<svg width="32" height="32" viewBox="0 0 32 32" fill="none" xmlns="http://www.w3.org/2000/svg">
<path d="M9.3335 13.3333V18.6666" stroke="#AEAEB2" stroke-width="1.5" stroke-linecap="round" stroke-linejoin="round"/>
<path d="M14.6665 13.3333V18.6666" stroke="#AEAEB2" stroke-width="1.5" stroke-linecap="round" stroke-linejoin="round"/>
<path fill-rule="evenodd" clip-rule="evenodd" d="M22.6667 24H6.66667C5.19333 24 4 22.8067 4 21.3333V10.6667C4 9.19333 5.19333 8 6.66667 8H22.6667C24.14 8 25.3333 9.19333 25.3333 10.6667V21.3333C25.3333 22.8067 24.14 24 22.6667 24Z" stroke="#AEAEB2" stroke-width="1.5" stroke-linecap="round" stroke-linejoin="round"/>
<path d="M25.3335 12H26.6855C26.8922 12 27.0962 12.048 27.2815 12.1413L27.9295 12.4653C28.3815 12.6907 28.6668 13.1533 28.6668 13.6573V18.3427C28.6668 18.848 28.3815 19.3093 27.9295 19.5347L27.2815 19.8587C27.0962 19.952 26.8922 20 26.6855 20H25.3335" stroke="#AEAEB2" stroke-width="1.5" stroke-linecap="round" stroke-linejoin="round"/>
</svg>
