<svg width="24" height="24" viewBox="0 0 24 24" fill="none" xmlns="http://www.w3.org/2000/svg">
<g clip-path="url(#clip0_3776_560)">
<path d="M12 21C7.029 21 3 16.971 3 12C3 7.029 7.029 3 12 3C16.971 3 21 7.029 21 12" stroke="#AEAEB2" stroke-width="1.5" stroke-linecap="round" stroke-linejoin="round"/>
<path d="M3.51001 9H20.38" stroke="#AEAEB2" stroke-width="1.5" stroke-linecap="round" stroke-linejoin="round"/>
<path d="M3.51001 15H12" stroke="#AEAEB2" stroke-width="1.5" stroke-linecap="round" stroke-linejoin="round"/>
<path d="M16 12C16 9.23599 15.277 6.47199 13.833 4.05999C12.986 2.64699 11.014 2.64699 10.168 4.05999C7.27799 8.88499 7.27799 15.116 10.168 19.941C10.591 20.647 11.296 21.001 12.001 21.001" stroke="#AEAEB2" stroke-width="1.5" stroke-linecap="round" stroke-linejoin="round"/>
<path d="M19.17 19.17L21.675 18.168C22.116 17.992 22.106 17.364 21.66 17.201L15.694 15.032C15.282 14.882 14.883 15.282 15.032 15.694L17.201 21.66C17.363 22.107 17.991 22.116 18.168 21.675L19.17 19.17Z" stroke="#AEAEB2" stroke-width="1.5" stroke-linecap="round" stroke-linejoin="round"/>
</g>
<defs>
<clipPath id="clip0_3776_560">
<rect width="24" height="24" fill="white"/>
</clipPath>
</defs>
</svg>
