<svg width="32" height="32" viewBox="0 0 32 32" fill="none" xmlns="http://www.w3.org/2000/svg">
<path d="M5.3335 22.5959V25.3332C5.3335 26.8065 6.52683 27.9999 8.00016 27.9999H24.0002C25.4735 27.9999 26.6668 26.8065 26.6668 25.3332V14.3252" stroke="#AEAEB2" stroke-width="1.5" stroke-linecap="round" stroke-linejoin="round"/>
<path d="M5.3335 17.9293V6.66667C5.3335 5.19333 6.52683 4 8.00016 4H24.0002C25.4735 4 26.6668 5.19333 26.6668 6.66667V9.65867" stroke="#AEAEB2" stroke-width="1.5" stroke-linecap="round" stroke-linejoin="round"/>
<path d="M6.97543 18.6129C7.88666 19.5241 7.88666 21.0015 6.97543 21.9127C6.06421 22.8239 4.58682 22.8239 3.67561 21.9127C2.76438 21.0015 2.76438 19.5241 3.67561 18.6129C4.58683 17.7016 6.06422 17.7016 6.97543 18.6129" stroke="#AEAEB2" stroke-width="1.5" stroke-linecap="round" stroke-linejoin="round"/>
<path d="M17.2656 19.9959C17.2656 18.7079 18.3096 17.6626 19.599 17.6626C20.8883 17.6626 21.9323 18.7066 21.9323 19.9959C21.9323 21.2853 20.8883 22.3293 19.599 22.3293C18.315 22.3346 17.271 21.2986 17.2656 20.0146C17.2656 20.0079 17.2656 20.0026 17.2656 19.9959Z" stroke="#AEAEB2" stroke-width="1.5" stroke-linecap="round" stroke-linejoin="round"/>
<path d="M14.1673 10.3421C15.0785 11.2533 15.0785 12.7307 14.1673 13.6419C13.2561 14.5532 11.7787 14.5532 10.8675 13.6419C9.95628 12.7307 9.95628 11.2533 10.8675 10.3421C11.7787 9.43089 13.2561 9.43089 14.1673 10.3421" stroke="#AEAEB2" stroke-width="1.5" stroke-linecap="round" stroke-linejoin="round"/>
<path d="M28.3246 10.3421C29.2358 11.2533 29.2358 12.7307 28.3246 13.6419C27.4133 14.5532 25.9359 14.5532 25.0247 13.6419C24.1135 12.7307 24.1135 11.2533 25.0247 10.3421C25.936 9.43089 27.4133 9.43089 28.3246 10.3421" stroke="#AEAEB2" stroke-width="1.5" stroke-linecap="round" stroke-linejoin="round"/>
<path d="M25.0537 13.6667L21.187 18.2934" stroke="#AEAEB2" stroke-width="1.5" stroke-linecap="round" stroke-linejoin="round"/>
<path d="M6.90674 18.5467L10.9334 13.6934" stroke="#AEAEB2" stroke-width="1.5" stroke-linecap="round" stroke-linejoin="round"/>
<path d="M18.0136 18.2934L14.1069 13.6934" stroke="#AEAEB2" stroke-width="1.5" stroke-linecap="round" stroke-linejoin="round"/>
</svg>
