<svg width="32" height="32" viewBox="0 0 32 32" fill="none" xmlns="http://www.w3.org/2000/svg">
<path d="M7.49331 24.4666L7.47998 24.4533C12.1466 29.1333 19.7466 29.1466 24.44 24.4666C29.12 19.7866 29.1333 12.1866 24.4533 7.49329C22.2 5.22663 19.1333 3.95996 15.9466 3.95996" stroke="#AEAEB2" stroke-width="1.5" stroke-linecap="round" stroke-linejoin="round"/>
<path d="M5.04022 20.5599V20.5465C5.02689 20.5732 5.00022 20.5999 4.96022 20.5999C4.92022 20.5865 4.89355 20.5599 4.89355 20.5199C4.89355 20.4799 4.92022 20.4532 4.94689 20.4532V20.4519C4.97355 20.4385 5.01355 20.4785 5.01355 20.5052C5.01355 20.5052 5.01355 20.5052 5.01222 20.5052" stroke="#AEAEB2" stroke-width="1.5" stroke-linecap="round" stroke-linejoin="round"/>
<path d="M4.13348 16.0001V15.9867C4.12015 16.0134 4.09348 16.0401 4.05348 16.0401C4.01348 16.0267 3.98682 16.0001 3.98682 15.9601C3.98682 15.9201 4.01348 15.8934 4.04015 15.8934V15.8921C4.06682 15.8787 4.10682 15.9187 4.10682 15.9454C4.10682 15.9454 4.10682 15.9454 4.10548 15.9454" stroke="#AEAEB2" stroke-width="1.5" stroke-linecap="round" stroke-linejoin="round"/>
<path d="M5.04007 11.4268V11.4134C5.04007 11.4401 5.00007 11.4801 4.9734 11.4801C4.9334 11.4801 4.90674 11.4401 4.90674 11.4134C4.90674 11.3734 4.9334 11.3468 4.96007 11.3468V11.3454C4.98674 11.3321 5.02674 11.3721 5.02674 11.3988C5.02674 11.3988 5.02674 11.3988 5.0134 11.3988" stroke="#AEAEB2" stroke-width="1.5" stroke-linecap="round" stroke-linejoin="round"/>
<path d="M7.62665 7.56V7.54666C7.61331 7.57333 7.58665 7.6 7.54665 7.6C7.50665 7.58666 7.47998 7.56 7.47998 7.52C7.47998 7.48 7.50665 7.45333 7.53331 7.45333H7.51998C7.54665 7.44 7.58665 7.48 7.58665 7.50667" stroke="#AEAEB2" stroke-width="1.5" stroke-linecap="round" stroke-linejoin="round"/>
<path d="M11.4933 4.97333V4.96C11.48 4.98666 11.4533 5.01333 11.4133 5.01333C11.3733 5 11.3467 4.97333 11.3467 4.93333C11.3467 4.89333 11.3733 4.86666 11.4 4.86666H11.3867C11.4133 4.85333 11.4533 4.89333 11.4533 4.92" stroke="#AEAEB2" stroke-width="1.5" stroke-linecap="round" stroke-linejoin="round"/>
<path d="M21.4002 16.7998H15.2002" stroke="#AEAEB2" stroke-width="1.5" stroke-linecap="round" stroke-linejoin="round"/>
<path d="M15.2002 16.7999V9.33325" stroke="#AEAEB2" stroke-width="1.5" stroke-linecap="round" stroke-linejoin="round"/>
</svg>
