<svg width="32" height="32" viewBox="0 0 32 32" fill="none" xmlns="http://www.w3.org/2000/svg">
<path d="M10 12.1067V14.1067" stroke="#AEAEB2" stroke-width="1.5" stroke-linecap="round" stroke-linejoin="round"/>
<path d="M22 12.1067V14.1067" stroke="#AEAEB2" stroke-width="1.5" stroke-linecap="round" stroke-linejoin="round"/>
<path d="M14.6665 18.1294H15.3332C16.0692 18.1294 16.6665 17.5321 16.6665 16.7961V12.1294" stroke="#AEAEB2" stroke-width="1.5" stroke-linecap="round" stroke-linejoin="round"/>
<path d="M20.3227 21.5427C17.936 23.9294 14.0654 23.9294 11.6787 21.5427" stroke="#AEAEB2" stroke-width="1.5" stroke-linecap="round" stroke-linejoin="round"/>
<path d="M10.1173 4H6.66667C5.19333 4 4 5.19333 4 6.66667V10.1173" stroke="#AEAEB2" stroke-width="1.5" stroke-linecap="round" stroke-linejoin="round"/>
<path d="M21.8828 28.0001H25.3335C26.8068 28.0001 28.0001 26.8068 28.0001 25.3335V21.8828" stroke="#AEAEB2" stroke-width="1.5" stroke-linecap="round" stroke-linejoin="round"/>
<path d="M4 21.8828V25.3335C4 26.8068 5.19333 28.0001 6.66667 28.0001H10.1173" stroke="#AEAEB2" stroke-width="1.5" stroke-linecap="round" stroke-linejoin="round"/>
<path d="M28.0001 10.1173V6.66667C28.0001 5.19333 26.8068 4 25.3335 4H21.8828" stroke="#AEAEB2" stroke-width="1.5" stroke-linecap="round" stroke-linejoin="round"/>
</svg>
