<svg width="32" height="32" viewBox="0 0 32 32" fill="none" xmlns="http://www.w3.org/2000/svg">
<path d="M22 17.5H10" stroke="#AEAEB2" stroke-width="1.5" stroke-linecap="round" stroke-linejoin="round"/>
<path d="M20.0002 22H12.0002V21.9987C10.8935 21.9987 10.0002 21.092 10.0002 19.9987C9.98683 19.9854 9.98683 19.9854 9.99883 19.9854V11.9854L9.9855 11.972C9.97216 10.8654 10.8788 9.97203 11.9722 9.97203C11.9722 9.97069 11.9722 9.97203 11.9722 9.97203H19.9722H19.9588C21.0522 9.95869 21.9455 10.8654 21.9455 11.9587H21.9322V19.9587C21.9322 21.052 21.0255 21.9454 19.9322 21.9454C19.9188 21.9454 19.9188 21.932 19.9188 21.932L20.0002 22Z" stroke="#AEAEB2" stroke-width="1.5" stroke-linecap="round" stroke-linejoin="round"/>
<path d="M16 4C14.4241 4 12.8637 4.31039 11.4078 4.91345C9.95189 5.5165 8.62902 6.40042 7.51472 7.51472C6.40042 8.62902 5.5165 9.95189 4.91345 11.4078C4.31039 12.8637 4 14.4241 4 16C4 17.5759 4.31039 19.1363 4.91345 20.5922C5.5165 22.0481 6.40042 23.371 7.51472 24.4853C8.62902 25.5996 9.95189 26.4835 11.4078 27.0866C12.8637 27.6896 14.4241 28 16 28C17.5759 28 19.1363 27.6896 20.5922 27.0866C22.0481 26.4835 23.371 25.5996 24.4853 24.4853C25.5996 23.371 26.4835 22.0481 27.0866 20.5922C27.6896 19.1363 28 17.5759 28 16C28 14.4241 27.6896 12.8637 27.0866 11.4078C26.4835 9.95189 25.5996 8.62902 24.4853 7.51472C23.371 6.40042 22.0481 5.5165 20.5922 4.91345C19.1363 4.31039 17.5759 4 16 4Z" stroke="#AEAEB2" stroke-width="1.5" stroke-linecap="round" stroke-linejoin="round"/>
<path d="M13.3335 14H18.6668" stroke="#AEAEB2" stroke-width="1.5" stroke-linecap="round" stroke-linejoin="round"/>
</svg>
