<svg width="32" height="32" viewBox="0 0 32 32" fill="none" xmlns="http://www.w3.org/2000/svg">
<path d="M15.7468 10.3999H9.3335" stroke="#AEAEB2" stroke-width="1.5" stroke-linecap="round" stroke-linejoin="round"/>
<path d="M12.5469 9.33325V10.3999" stroke="#AEAEB2" stroke-width="1.5" stroke-linecap="round" stroke-linejoin="round"/>
<path d="M14.1455 10.4026C14.1455 13.1599 11.9908 15.3933 9.3335 15.3933" stroke="#AEAEB2" stroke-width="1.5" stroke-linecap="round" stroke-linejoin="round"/>
<path d="M15.7508 15.3933C14.5975 15.3933 13.5655 14.7787 12.8335 13.8093" stroke="#AEAEB2" stroke-width="1.5" stroke-linecap="round" stroke-linejoin="round"/>
<path d="M25.3333 28H6.66667C5.19333 28 4 26.8067 4 25.3333V6.66667C4 5.19333 5.19333 4 6.66667 4H25.3333C26.8067 4 28 5.19333 28 6.66667V25.3333C28 26.8067 26.8067 28 25.3333 28Z" stroke="#AEAEB2" stroke-width="1.5" stroke-linecap="round" stroke-linejoin="round"/>
<path d="M19.6363 16.6067L16.6069 22.6667" stroke="#AEAEB2" stroke-width="1.5" stroke-linecap="round" stroke-linejoin="round"/>
<path d="M22.6669 22.6667L19.6362 16.6067" stroke="#AEAEB2" stroke-width="1.5" stroke-linecap="round" stroke-linejoin="round"/>
<path d="M17.1411 21.5974H22.1318" stroke="#AEAEB2" stroke-width="1.5" stroke-linecap="round" stroke-linejoin="round"/>
</svg>
