<?xml version="1.0" encoding="UTF-8" standalone="no"?>
<!DOCTYPE svg PUBLIC "-//W3C//DTD SVG 1.1//EN" "http://www.w3.org/Graphics/SVG/1.1/DTD/svg11.dtd">
<svg version="1.1" xmlns="http://www.w3.org/2000/svg" xmlns:xlink="http://www.w3.org/1999/xlink" preserveAspectRatio="xMidYMid meet" viewBox="0 0 640 640" width="640" height="640"><defs><path d="M126.02 567.51C296.8 567.51 391.68 567.51 410.66 567.51C450.86 566.92 482.78 548.37 497.85 519.51C515.29 487.12 509.09 446.77 485.74 418.8C430.76 352.84 375.78 286.87 320.8 220.91C311.94 210.01 313.41 193.82 324.06 184.98C335.25 175.66 391.21 129.03 491.94 45.11L513.22 68.08L353.61 207.07C448.67 321.03 501.48 384.34 512.04 397.01C543.38 434.4 551.65 487.41 530.37 531.58C510.86 572.22 468.59 600.49 413.91 600.49C385.12 600.52 154.81 600.75 126.02 600.78C116.85 600.78 109.46 593.42 109.46 584.29C109.46 584.26 109.46 584.03 109.46 584C109.46 574.87 116.85 567.51 126.02 567.51" id="gMK0W0TIg"></path><path d="M411.84 514.5C426.32 511.56 437.26 501.25 442.29 487.41C447.02 473.27 444.35 458.84 434.9 447.36C366.62 365.2 298.64 283.63 230.36 201.18C223.56 192.93 221.19 182.92 223.56 172.32C226.22 162.02 232.72 154.06 242.77 149.65C259.76 142.3 344.68 105.59 497.56 39.51L506.72 71.9C360.94 135.16 279.95 170.3 263.76 177.33C261.98 177.92 260.8 179.39 260.5 181.15C259.91 182.92 260.5 184.69 261.69 186.16C328.19 265.96 394.11 345.18 460.61 424.98C478.64 446.77 484.55 471.8 475.1 498.89C466.52 524.22 446.72 542.48 420.41 547.48C405.16 550.29 328.9 564.33 191.63 589.59L122.47 567.8C296.09 535.82 392.55 518.06 411.84 514.5Z" id="arSRZTNBw"></path><path d="M216.17 125.5C201.39 128.44 190.45 138.46 185.72 152.59C180.99 166.73 183.66 181.16 193.11 192.64C261.39 274.8 329.37 356.37 397.65 438.53C404.45 447.07 406.82 457.08 404.45 467.68C401.79 477.99 394.99 485.94 385.24 490.35C368.25 497.7 283.32 534.41 130.45 600.49L121.29 568.1C267.07 504.84 348.06 469.7 364.25 462.67C365.73 462.09 366.91 460.61 367.51 458.85C367.8 457.08 367.51 455.31 366.32 453.84C222.08 280.98 294.79 367.85 167.4 215.02C149.37 193.23 143.46 168.2 152.91 141.11C161.49 115.78 180.99 97.53 207.6 92.52C226.71 88.96 322.28 71.2 494.31 39.22L505.54 72.2C331.92 104.18 235.46 121.95 216.17 125.5Z" id="g1RZ4PX1pE"></path><path d="M501.7 72.49C330.91 72.49 236.03 72.49 217.05 72.49C176.86 73.08 145.23 91.64 129.86 120.2C112.71 152.89 118.92 193.23 142.27 221.2C197.25 287.17 252.23 353.13 307.21 419.09C316.07 429.99 314.6 446.18 303.66 455.02C292.49 464.34 236.62 510.97 136.06 594.89L114.78 571.92L274.1 432.93C179.22 318.97 126.51 255.66 115.97 242.99C84.63 205.6 76.36 152.59 97.64 108.42C117.15 67.78 159.42 39.51 213.8 39.51C242.59 39.48 472.91 39.25 501.7 39.22C510.86 39.22 518.55 46.58 518.55 55.71C518.55 55.74 518.55 55.97 518.55 56C518.55 65.13 510.86 72.49 501.7 72.49" id="b2vPAZUPp5"></path><path d="M136.06 594.89L114.78 571.92L254.59 450.01L288.88 467.39L136.06 594.89Z" id="b2W2PagJA"></path><path d="M130.45 600.49L121.29 568.1L319.62 482.11L337.65 510.97L130.45 600.49Z" id="akJHxsbz1"></path><path d="M354.2 525.1L363.07 557.79L191.63 589.59L122.47 567.8L354.2 525.1Z" id="ccGclQKwc"></path><path d="M126.02 567.51C269.85 567.51 349.75 567.51 365.73 567.51C368.39 578.11 369.87 589.3 369.87 600.49C345.48 600.52 150.4 600.75 126.02 600.78C116.85 600.78 109.46 593.42 109.46 584.29C109.46 584.26 109.46 584.03 109.46 584C109.46 574.87 116.85 567.51 126.02 567.51" id="d32nBcw0JF"></path></defs><g><g><g><use xlink:href="#gMK0W0TIg" opacity="1" fill="#b89eff" fill-opacity="1"></use><g><use xlink:href="#gMK0W0TIg" opacity="1" fill-opacity="0" stroke="#000000" stroke-width="1" stroke-opacity="0"></use></g></g><g><use xlink:href="#arSRZTNBw" opacity="1" fill="#a17fff" fill-opacity="1"></use><g><use xlink:href="#arSRZTNBw" opacity="1" fill-opacity="0" stroke="#000000" stroke-width="1" stroke-opacity="0"></use></g></g><g><use xlink:href="#g1RZ4PX1pE" opacity="1" fill="#794fec" fill-opacity="1"></use><g><use xlink:href="#g1RZ4PX1pE" opacity="1" fill-opacity="0" stroke="#000000" stroke-width="1" stroke-opacity="0"></use></g></g><g><use xlink:href="#b2vPAZUPp5" opacity="1" fill="#562ec2" fill-opacity="1"></use><g><use xlink:href="#b2vPAZUPp5" opacity="1" fill-opacity="0" stroke="#000000" stroke-width="1" stroke-opacity="0"></use></g></g><g><use xlink:href="#b2W2PagJA" opacity="1" fill="#562ec2" fill-opacity="1"></use><g><use xlink:href="#b2W2PagJA" opacity="1" fill-opacity="0" stroke="#000000" stroke-width="1" stroke-opacity="0"></use></g></g><g><use xlink:href="#akJHxsbz1" opacity="1" fill="#794fec" fill-opacity="1"></use><g><use xlink:href="#akJHxsbz1" opacity="1" fill-opacity="0" stroke="#000000" stroke-width="1" stroke-opacity="0"></use></g></g><g><use xlink:href="#ccGclQKwc" opacity="1" fill="#a17fff" fill-opacity="1"></use><g><use xlink:href="#ccGclQKwc" opacity="1" fill-opacity="0" stroke="#000000" stroke-width="1" stroke-opacity="0"></use></g></g><g><use xlink:href="#d32nBcw0JF" opacity="1" fill="#b89eff" fill-opacity="1"></use><g><use xlink:href="#d32nBcw0JF" opacity="1" fill-opacity="0" stroke="#000000" stroke-width="1" stroke-opacity="0"></use></g></g></g></g></svg>