<svg width="32" height="32" viewBox="0 0 32 32" fill="none" xmlns="http://www.w3.org/2000/svg">
<path d="M16.4 14.1973V14.1973C16.6163 14.4142 16.6159 14.7654 16.3991 14.9818C16.1822 15.1981 15.831 15.1977 15.6146 14.9808C15.3986 14.7643 15.3986 14.4138 15.6146 14.1973V14.1973C15.831 13.9805 16.1822 13.9801 16.3991 14.1964C16.3994 14.1967 16.3997 14.197 16.4 14.1973" stroke="#AEAEB2" stroke-width="1.5" stroke-linecap="round" stroke-linejoin="round"/>
<path d="M21.2239 14.4574V14.4586C21.2239 15.8776 20.5934 17.2233 19.503 18.1315L17.791 19.5582V19.5582C17.1085 20.1273 16.5978 20.8752 16.3163 21.7182L15.9999 22.6667L15.6839 21.7174V21.7174C15.4022 20.8746 14.8916 20.1267 14.2092 19.5574L12.4959 18.1334V18.1334C11.4055 17.2257 10.7752 15.8802 10.7759 14.4614V14.4881V14.488C10.769 11.6478 13.0658 9.33972 15.906 9.33279C15.9373 9.33271 15.9687 9.33292 16 9.33342V9.33342C18.8398 9.2885 21.1784 11.5542 21.2233 14.3941C21.2238 14.4241 21.224 14.4541 21.224 14.4841" stroke="#AEAEB2" stroke-width="1.5" stroke-linecap="round" stroke-linejoin="round"/>
<path d="M22.6667 28H9.33333V28C6.38781 28 4 25.6122 4 22.6667V9.33333V9.33333C4 6.38781 6.38781 4 9.33333 4H22.6667V4C25.6122 4 28 6.38781 28 9.33333V22.6667V22.6667C28 25.6122 25.6122 28 22.6667 28V28Z" stroke="#AEAEB2" stroke-width="1.5" stroke-linecap="round" stroke-linejoin="round"/>
</svg>
