<svg width="32" height="32" viewBox="0 0 32 32" fill="none" xmlns="http://www.w3.org/2000/svg">
<path d="M26.5273 4H5.47275C4.65937 4 4 4.65937 4 5.47275V26.5273C4 27.3406 4.65937 28 5.47275 28H26.5273C27.3406 28 28 27.3406 28 26.5273V5.47275C28 4.65937 27.3406 4 26.5273 4Z" stroke="#AEAEB2" stroke-width="1.5" stroke-linecap="round" stroke-linejoin="round"/>
<path d="M21.0371 14.2227V14.2227C21.8552 14.2227 22.5184 14.8859 22.5184 15.704V15.704V17.1853V17.1853C22.5221 17.7389 22.8372 18.2432 23.3331 18.4893V18.844H23.3331C22.8372 19.0901 22.5221 19.5944 22.5184 20.148V21.6293V21.6293C22.5184 22.4474 21.8552 23.1107 21.0371 23.1107V23.1107" stroke="#AEAEB2" stroke-width="1.5" stroke-linecap="round" stroke-linejoin="round"/>
<path d="M10.9625 23.1107V23.1107C10.1444 23.1107 9.48117 22.4474 9.48117 21.6293V20.148V20.148C9.47748 19.5944 9.1624 19.0901 8.6665 18.844V18.4893V18.4893C9.16239 18.2432 9.47747 17.7389 9.48117 17.1853V15.704V15.704C9.48117 14.8859 10.1444 14.2227 10.9625 14.2227" stroke="#AEAEB2" stroke-width="1.5" stroke-linecap="round" stroke-linejoin="round"/>
<path d="M28 9.33325H4" stroke="#AEAEB2" stroke-width="1.5" stroke-linecap="round" stroke-linejoin="round"/>
<path d="M18.9895 18.7334C19.0263 18.7334 19.0562 18.7036 19.0562 18.6668C19.0562 18.6299 19.0263 18.6001 18.9895 18.6001C18.9527 18.6001 18.9229 18.6299 18.9229 18.6668C18.9229 18.7036 18.9527 18.7334 18.9895 18.7334Z" stroke="#AEAEB2" stroke-width="1.5" stroke-linecap="round" stroke-linejoin="round"/>
<path d="M19.0562 18.6668C19.0562 18.6299 19.0263 18.6001 18.9895 18.6001V18.6001V18.6001C18.9527 18.6001 18.9229 18.6299 18.9229 18.6668V18.6668V18.6668C18.9229 18.7036 18.9527 18.7334 18.9895 18.7334C19.0263 18.7334 19.0562 18.7036 19.0562 18.6668C19.0562 18.6668 19.0562 18.6668 19.0562 18.6668" stroke="#AEAEB2" stroke-width="1.5" stroke-linecap="round" stroke-linejoin="round"/>
<path d="M13.0772 18.6668C13.0772 18.6299 13.0473 18.6001 13.0105 18.6001V18.6001V18.6001C12.9737 18.6001 12.9438 18.6299 12.9438 18.6668V18.6668V18.6668C12.9438 18.7036 12.9737 18.7334 13.0105 18.7334C13.0473 18.7334 13.0772 18.7036 13.0772 18.6668" stroke="#AEAEB2" stroke-width="1.5" stroke-linecap="round" stroke-linejoin="round"/>
<path d="M16.0669 18.6668C16.0669 18.6299 16.0371 18.6001 16.0003 18.6001V18.6001V18.6001C15.9634 18.6001 15.9336 18.6299 15.9336 18.6668V18.6668V18.6668C15.9336 18.7036 15.9634 18.7334 16.0003 18.7334C16.0371 18.7334 16.0669 18.7036 16.0669 18.6668" stroke="#AEAEB2" stroke-width="1.5" stroke-linecap="round" stroke-linejoin="round"/>
</svg>
