<svg width="32" height="32" viewBox="0 0 32 32" fill="none" xmlns="http://www.w3.org/2000/svg">
<path d="M10.6665 22.6666V21.3333" stroke="#AEAEB2" stroke-width="1.5" stroke-linecap="round" stroke-linejoin="round"/>
<path d="M11.9998 16C11.2638 16 10.6665 16.5973 10.6665 17.3333" stroke="#AEAEB2" stroke-width="1.5" stroke-linecap="round" stroke-linejoin="round"/>
<path d="M16 16H17.3333" stroke="#AEAEB2" stroke-width="1.5" stroke-linecap="round" stroke-linejoin="round"/>
<path d="M21.3335 16H22.6668" stroke="#AEAEB2" stroke-width="1.5" stroke-linecap="round" stroke-linejoin="round"/>
<path d="M28 21.3333V22.6666" stroke="#AEAEB2" stroke-width="1.5" stroke-linecap="round" stroke-linejoin="round"/>
<path d="M26.6665 28.0001C27.4025 28.0001 27.9998 27.4027 27.9998 26.6667" stroke="#AEAEB2" stroke-width="1.5" stroke-linecap="round" stroke-linejoin="round"/>
<path d="M26.6665 16C27.4025 16 27.9998 16.5973 27.9998 17.3333" stroke="#AEAEB2" stroke-width="1.5" stroke-linecap="round" stroke-linejoin="round"/>
<path d="M11.9998 28.0001C11.2638 28.0001 10.6665 27.4027 10.6665 26.6667" stroke="#AEAEB2" stroke-width="1.5" stroke-linecap="round" stroke-linejoin="round"/>
<path d="M22.6668 28H21.3335" stroke="#AEAEB2" stroke-width="1.5" stroke-linecap="round" stroke-linejoin="round"/>
<path d="M16 28H17.3333" stroke="#AEAEB2" stroke-width="1.5" stroke-linecap="round" stroke-linejoin="round"/>
<path d="M5.33333 5.33325H14.6667C15.4027 5.33325 16 5.93059 16 6.66659V21.3333C16 22.0693 15.4027 22.6666 14.6667 22.6666H5.33333C4.59733 22.6666 4 22.0693 4 21.3333V6.66659C4 5.93059 4.59733 5.33325 5.33333 5.33325Z" stroke="#AEAEB2" stroke-width="1.5" stroke-linecap="round" stroke-linejoin="round"/>
<path d="M27.9998 10.6666V7.99992C27.9998 6.52659 26.8065 5.33325 25.3332 5.33325H22.6665" stroke="#AEAEB2" stroke-width="1.5" stroke-linecap="round" stroke-linejoin="round"/>
<path d="M23.3335 7.33325L21.3335 5.33325L23.3335 3.33325" stroke="#AEAEB2" stroke-width="1.5" stroke-linecap="round" stroke-linejoin="round"/>
</svg>
