<svg width="32" height="32" viewBox="0 0 32 32" fill="none" xmlns="http://www.w3.org/2000/svg">
<path d="M21.3333 28H10.6667V28C6.98477 28 4 25.0152 4 21.3333V21.3333V10.6667V10.6667C4 6.98477 6.98477 4 10.6667 4H21.3333V4C25.0152 4 28 6.98477 28 10.6667V21.3333V21.3333C28 25.0152 25.0152 28 21.3333 28V28ZM18 12H9.33333H18ZM21.3333 14.3333H19.3333V14.3333C18.597 14.3333 18 13.7364 18 13V11V11C18 10.2636 18.597 9.66667 19.3333 9.66667H21.3333V9.66667C22.0697 9.66667 22.6667 10.2636 22.6667 11V13V13C22.6667 13.7364 22.0697 14.3333 21.3333 14.3333C21.3333 14.3333 21.3333 14.3333 21.3333 14.3333V14.3333ZM14 20H22.6667H14ZM10.6667 17.6667H12.6667V17.6667C13.403 17.6667 14 18.2636 14 19V21V21C14 21.7364 13.403 22.3333 12.6667 22.3333V22.3333H10.6667V22.3333C9.93029 22.3333 9.33333 21.7364 9.33333 21V19V19C9.33333 18.2636 9.93029 17.6667 10.6667 17.6667V17.6667Z" stroke="#AEAEB2" stroke-width="1.5" stroke-linecap="round" stroke-linejoin="round"/>
</svg>
