<svg width="947" height="330" viewBox="0 0 947 330" fill="none" xmlns="http://www.w3.org/2000/svg">
<g clip-path="url(#clip0_3_40)">
<path fill-rule="evenodd" clip-rule="evenodd" d="M23.4887 310.142H189.844C213.332 309.774 231.939 298.905 240.782 281.956C251.006 262.981 247.322 239.308 233.689 222.912C201.542 184.225 169.487 145.538 137.34 106.85C132.181 100.495 133.01 91.0071 139.274 85.7567L237.374 3.6845L249.809 17.1329L156.591 98.6524L249.164 210.016C267.494 231.939 272.284 263.073 259.849 288.957C248.427 312.814 223.741 329.394 191.778 329.394L23.5808 329.578C18.2383 329.578 13.9075 325.249 13.9075 319.906V319.722C13.8169 314.38 18.1461 310.142 23.4887 310.142Z" fill="#B89EFF"/>
<path fill-rule="evenodd" clip-rule="evenodd" d="M21.4622 310.235L190.581 279.008C199.055 277.258 205.411 271.271 208.358 263.165C211.122 254.875 209.556 246.401 204.029 239.676C164.144 191.502 124.444 143.695 84.5592 95.3363C80.5984 90.5465 79.2167 84.6513 80.5984 78.3876C82.1643 72.3082 85.9409 67.7026 91.8361 65.1235L240.69 0.55267L246.032 19.5278L104.087 81.3352C103.074 81.7037 102.337 82.5327 102.153 83.5459C101.784 84.5592 102.153 85.5724 102.89 86.4935C141.761 133.287 180.264 179.711 219.135 226.596C229.636 239.4 233.136 254.046 227.61 269.981C222.636 284.812 211.03 295.497 195.647 298.444L61.9917 323.13L21.4622 310.235Z" fill="#A17FFF"/>
<path fill-rule="evenodd" clip-rule="evenodd" d="M245.295 19.6199L76.177 50.846C67.5184 52.5962 61.1627 58.3993 58.3993 66.6894C55.6359 74.9795 57.2018 83.4538 62.7286 90.178C102.613 138.353 142.314 186.159 182.198 234.426C186.159 239.4 187.541 245.295 186.159 251.559C184.593 257.638 180.632 262.244 174.922 264.823L26.0679 329.394L20.7253 310.419L162.671 248.611C163.5 248.243 164.236 247.414 164.605 246.401C164.789 245.387 164.605 244.374 163.96 243.453C79.6773 142.037 122.141 193.068 47.7143 103.35C37.2135 90.5465 33.7132 75.9006 39.2399 59.9652C44.214 45.1351 55.6359 34.45 71.2029 31.5024L238.755 0.276337L245.295 19.6199Z" fill="#794FEC"/>
<path fill-rule="evenodd" clip-rule="evenodd" d="M242.993 19.8042H76.7296C53.241 20.1726 34.7264 31.0419 25.7915 47.8063C15.7512 66.9657 19.4357 90.6386 33.0684 107.035C65.2156 145.722 97.2707 184.409 129.418 223.096C134.576 229.452 133.747 238.94 127.391 244.19L29.476 326.262L17.0408 312.814L110.074 231.202L17.6856 119.746C-0.644773 97.8234 -5.43462 66.6894 7.00056 40.8058C18.4225 16.9487 43.1086 0.368448 74.8874 0.368448L243.085 0.184223C248.427 0.184223 252.941 4.5135 252.941 9.85602V10.0402C252.849 15.4749 248.335 19.8042 242.993 19.8042Z" fill="#562EC2"/>
<path fill-rule="evenodd" clip-rule="evenodd" d="M118.641 251.375L29.3839 326.17L16.9487 312.722L98.6524 241.15L118.641 251.375Z" fill="#562EC2"/>
<path fill-rule="evenodd" clip-rule="evenodd" d="M147.196 276.982L26.16 329.486L20.7253 310.419L136.603 260.033L147.196 276.982Z" fill="#794FEC"/>
<path fill-rule="evenodd" clip-rule="evenodd" d="M21.4622 310.235L156.867 285.272L162.026 304.431L61.8996 323.038L21.4622 310.235Z" fill="#A17FFF"/>
<path fill-rule="evenodd" clip-rule="evenodd" d="M23.4887 310.142H163.592C165.158 316.314 165.987 322.946 165.987 329.486L23.4887 329.67C18.1462 329.67 13.8169 325.341 13.8169 319.998V319.814C13.8169 314.38 18.1462 310.142 23.4887 310.142Z" fill="#B89EFF"/>
<path fill-rule="evenodd" clip-rule="evenodd" d="M491.235 145.169C497.96 139.458 503.302 135.497 512.79 135.313C530.383 135.129 534.068 146.919 534.068 160.368L533.883 171.237V228.899H573.215C573.4 204.029 573.215 179.343 573.584 154.472C573.768 141.485 573.4 127.852 568.241 119.286C560.965 106.666 546.871 100.679 531.949 100.955C508.276 101.508 497.775 111.64 491.051 119.286V56.557H451.719V228.899H491.051L491.235 145.169ZM338.513 219.227C339.526 221.254 343.487 222.636 345.79 223.741C353.896 227.333 362.554 229.452 371.489 230.465C396.175 233.413 421.783 228.899 434.678 206.792C440.205 196.936 441.587 182.659 435.876 172.066C423.072 148.025 383.556 152.078 375.634 144.248C373.055 142.037 374.253 137.892 376.003 135.958C379.964 131.997 388.07 131.26 394.978 131.813H433.112V112.838C432.099 110.443 421.691 106.666 418.467 105.377C401.057 99.6656 378.213 98.8366 362.002 106.021C337.131 117.075 330.776 146.459 343.487 162.855C354.541 177.316 370.752 178.422 389.728 182.843C394.702 184.041 403.36 185.422 402.807 191.317C401.978 199.423 385.675 200.16 378.95 200.252H338.329V219.227H338.513ZM656.485 196.107C652.893 202.463 626.456 207.529 623.325 193.897C619.364 175.935 651.327 176.948 656.485 178.698V196.107ZM627.101 135.313C627.746 135.313 628.483 135.313 629.128 135.497C642.392 135.866 655.011 141.669 656.393 154.288C637.049 154.288 619.916 153.736 603.705 161.841C590.717 168.197 580.216 179.803 583.716 200.344C587.124 221.438 605.823 231.386 624.614 231.295C645.155 231.11 653.445 222.175 658.788 215.911L664.867 228.899H694.251L693.606 161.197C693.422 144.616 692.593 131.813 682.553 120.483C666.525 101.968 639.352 97.7312 614.021 102.705C599.56 105.653 600.757 107.035 591.546 109.982V135.405H627.101V135.313ZM864.751 150.327C864.751 137.892 875.252 130.339 886.306 130.431C896.162 130.431 906.018 136.326 906.018 150.327H864.751ZM945.442 176.395C947.837 157.42 948.205 144.064 939.362 128.865C933.007 117.812 922.598 108.969 908.136 104.179C893.122 99.0208 873.778 100.034 860.33 106.574C831.683 120.207 818.879 149.775 826.617 181.185C834.17 211.582 859.961 227.149 889.437 230.373C905.189 232.307 923.611 230.926 938.349 225.399V197.213H906.202C895.701 197.581 885.477 195.462 876.357 190.12C872.949 188.093 866.133 182.014 865.857 176.303H945.442V176.395ZM832.42 228.715C831.222 225.952 829.472 223.557 827.722 220.793L793.088 164.881L832.42 103.534L785.627 103.35C784.429 103.719 754.216 155.117 750.256 161.749V56.7412C745.742 56.3728 714.7 56.1886 710.923 56.9255V228.899C719.029 228.715 745.281 229.268 750.256 228.715L750.44 170.684C751.637 171.882 782.587 225.215 783.969 228.715H832.42Z" fill="white"/>
</g>
<defs>
<clipPath id="clip0_3_40">
<rect width="946.915" height="330" fill="white"/>
</clipPath>
</defs>
</svg>
