<svg width="32" height="32" viewBox="0 0 32 32" fill="none" xmlns="http://www.w3.org/2000/svg">
<path d="M16.9118 11.4014L15.9998 8.66675L15.0878 11.4014C14.8225 12.1974 14.1972 12.8227 13.4012 13.0881L10.6665 14.0001L13.4012 14.9121C14.1972 15.1774 14.8225 15.8027 15.0878 16.5987L15.9998 19.3334L16.9118 16.5987C17.1772 15.8027 17.8025 15.1774 18.5985 14.9121L21.3332 14.0001L18.5985 13.0881C17.8012 12.8227 17.1772 12.1987 16.9118 11.4014Z" stroke="#AEAEB2" stroke-width="1.5" stroke-linecap="round" stroke-linejoin="round"/>
<path d="M20.6665 19.3333V23.3333" stroke="#AEAEB2" stroke-width="1.5" stroke-linecap="round" stroke-linejoin="round"/>
<path d="M22.6665 21.3333H18.6665" stroke="#AEAEB2" stroke-width="1.5" stroke-linecap="round" stroke-linejoin="round"/>
<path d="M10 18.6667V21.3334" stroke="#AEAEB2" stroke-width="1.5" stroke-linecap="round" stroke-linejoin="round"/>
<path d="M11.3332 20H8.6665" stroke="#AEAEB2" stroke-width="1.5" stroke-linecap="round" stroke-linejoin="round"/>
<path d="M22.6667 28H9.33333C6.388 28 4 25.612 4 22.6667V9.33333C4 6.388 6.388 4 9.33333 4H22.6667C25.612 4 28 6.388 28 9.33333V22.6667C28 25.612 25.612 28 22.6667 28Z" stroke="#AEAEB2" stroke-width="1.5" stroke-linecap="round" stroke-linejoin="round"/>
</svg>
