<svg width="32" height="32" viewBox="0 0 32 32" fill="none" xmlns="http://www.w3.org/2000/svg">
<path d="M21.4134 16.1599H15.2134" stroke="#AEAEB2" stroke-width="1.5" stroke-linecap="round" stroke-linejoin="round"/>
<path d="M16.0132 3.34668C14.4373 3.34668 12.8769 3.65707 11.421 4.26013C9.96508 4.86318 8.64221 5.7471 7.5279 6.8614C6.4136 7.9757 5.52969 9.29857 4.92663 10.7545C4.32357 12.2104 4.01318 13.7708 4.01318 15.3467C4.01318 16.9225 4.32357 18.483 4.92663 19.9389C5.52969 21.3948 6.4136 22.7177 7.5279 23.832C8.64221 24.9463 9.96508 25.8302 11.421 26.4332C12.8769 27.0363 14.4373 27.3467 16.0132 27.3467C19.1958 27.3467 22.248 26.0824 24.4985 23.832C26.7489 21.5815 28.0132 18.5293 28.0132 15.3467C28.0132 12.1641 26.7489 9.11184 24.4985 6.8614C22.248 4.61096 19.1958 3.34668 16.0132 3.34668V3.34668Z" stroke="#AEAEB2" stroke-width="1.5" stroke-linecap="round" stroke-linejoin="round"/>
<path d="M15.2134 16.16V8.69336" stroke="#AEAEB2" stroke-width="1.5" stroke-linecap="round" stroke-linejoin="round"/>
</svg>
