<svg width="32" height="32" viewBox="0 0 32 32" fill="none" xmlns="http://www.w3.org/2000/svg">
<path d="M15.7803 20L22.4469 26.6667C23.5509 27.7707 25.3429 27.7707 26.4469 26.6667C27.5509 25.5627 27.5509 23.7707 26.4469 22.6667L19.7803 16" stroke="#AEAEB2" stroke-width="1.5" stroke-linecap="round" stroke-linejoin="round"/>
<path d="M27.8879 7.79599C27.9199 7.82666 27.9439 7.86666 27.9559 7.90932C28.5826 9.99866 28.0972 12.3493 26.4466 14C24.7786 15.668 22.3959 16.1453 20.2906 15.4893L9.16122 26.6187C8.07722 27.7027 6.30922 27.784 5.18789 26.7387C4.00922 25.6413 3.98522 23.796 5.11322 22.6667L16.2906 11.4893C15.6346 9.38399 16.1119 7.00132 17.7799 5.33332C19.4306 3.68266 21.7812 3.19732 23.8706 3.82399C23.9132 3.83732 23.9532 3.85999 23.9839 3.89199L24.1999 4.10799C24.3039 4.21199 24.3039 4.38132 24.1999 4.48532L20.6866 7.99999L23.7799 11.0933L27.2946 7.57866C27.3986 7.47466 27.5679 7.47466 27.6719 7.57866L27.8879 7.79599V7.79599Z" stroke="#AEAEB2" stroke-width="1.5" stroke-linecap="round" stroke-linejoin="round"/>
<path d="M3.91072 5.72403L4.80939 8.42136C4.99072 8.96669 5.50006 9.33336 6.07472 9.33336H9.11339V6.29469C9.11339 5.72136 8.74672 5.21069 8.20139 5.02936L5.50405 4.13069C5.26405 4.05069 5.00005 4.11336 4.82139 4.29203L4.07205 5.04136C3.89339 5.22003 3.83072 5.48403 3.91072 5.72403V5.72403Z" stroke="#AEAEB2" stroke-width="1.5" stroke-linecap="round" stroke-linejoin="round"/>
<path d="M9.12012 9.33325L13.7868 13.9999" stroke="#AEAEB2" stroke-width="1.5" stroke-linecap="round" stroke-linejoin="round"/>
</svg>
