<svg width="32" height="32" viewBox="0 0 32 32" fill="none" xmlns="http://www.w3.org/2000/svg">
<path d="M21.3334 26.7334V26.72C27.2667 23.76 29.6801 16.56 26.7334 10.6267C23.7734 4.68002 16.5734 2.26669 10.6401 5.21335C6.54673 7.24002 3.97339 11.4 3.97339 15.96H3.96006C3.94673 19.2667 5.26673 22.44 7.61339 24.7867C9.34673 26.52 11.7201 27.4934 14.1734 27.4934H14.1601C15.1334 27.48 15.9201 26.6934 15.9201 25.72V21.2667" stroke="#AEAEB2" stroke-width="1.5" stroke-linecap="round" stroke-linejoin="round"/>
<path d="M20.667 15.3333C20.667 14.5867 20.067 14 19.3336 14H12.667H12.6536C11.907 14 11.3203 14.5867 11.3203 15.3333V18.6667C11.3203 20.1333 12.507 21.32 13.987 21.32H17.987L17.9736 21.3187C19.4403 21.3187 20.6403 20.1187 20.6403 18.652L20.667 15.3333Z" stroke="#AEAEB2" stroke-width="1.5" stroke-linecap="round" stroke-linejoin="round"/>
<path d="M13.3339 14.0001V10.6667C13.3206 10.2934 13.6272 9.98675 13.9872 9.98675H17.9872H17.9739C18.3339 9.97341 18.6406 10.2801 18.6406 10.6401V13.9734" stroke="#AEAEB2" stroke-width="1.5" stroke-linecap="round" stroke-linejoin="round"/>
</svg>
