<svg width="32" height="32" viewBox="0 0 32 32" fill="none" xmlns="http://www.w3.org/2000/svg">
<path d="M15.9999 20.9387C16.2239 20.9387 16.4066 21.1147 16.4066 21.3307C16.4066 21.5467 16.2239 21.7227 15.9999 21.7227C15.7759 21.7227 15.5933 21.5467 15.5933 21.3307C15.5933 21.1147 15.7759 20.9387 15.9999 20.9387Z" stroke="#AEAEB2" stroke-width="1.5" stroke-linecap="round" stroke-linejoin="round"/>
<path d="M22.5 13.8306C18.7093 10.8719 13.2907 10.8719 9.5 13.8306" stroke="#AEAEB2" stroke-width="1.5" stroke-linecap="round" stroke-linejoin="round"/>
<path d="M12.2095 17.616C14.4201 15.892 17.5801 15.892 19.7921 17.616" stroke="#AEAEB2" stroke-width="1.5" stroke-linecap="round" stroke-linejoin="round"/>
<path d="M24 28H8C5.79067 28 4 26.2093 4 24V8C4 5.79067 5.79067 4 8 4H24C26.2093 4 28 5.79067 28 8V24C28 26.2093 26.2093 28 24 28Z" stroke="#AEAEB2" stroke-width="1.5" stroke-linecap="round" stroke-linejoin="round"/>
</svg>
