<svg width="520" height="250" viewBox="0 0 520 250" fill="none" xmlns="http://www.w3.org/2000/svg">
<path d="M431.743 144H433.199V136.468L437.931 144H439.541V134.2H438.085V141.746L433.367 134.2H431.743V144ZM446.446 141.704C446.25 142.502 445.578 142.95 444.542 142.95C443.31 142.95 442.442 142.04 442.33 140.71H447.72C447.734 140.584 447.748 140.36 447.748 140.178C447.748 138.386 446.586 136.832 444.402 136.832C442.232 136.832 441 138.456 441 140.43C441 142.39 442.358 144.112 444.542 144.112C446.278 144.112 447.552 143.16 447.804 141.704H446.446ZM444.402 137.924C445.564 137.924 446.292 138.638 446.376 139.716H442.372C442.582 138.54 443.296 137.924 444.402 137.924ZM450.466 144H451.726L453.322 138.736L454.932 144H456.192L458.376 136.944H457.004L455.562 142.194L453.98 136.944H452.692L451.096 142.194L449.64 136.944H448.282L450.466 144ZM468.951 136.944H467.593V140.766C467.593 141.998 466.809 142.894 465.703 142.894C464.709 142.894 464.051 142.138 464.051 141.018V136.944H462.693V141.284C462.693 142.964 463.729 144.112 465.325 144.112C466.375 144.112 467.215 143.636 467.593 142.754V144H468.951V136.944ZM473.169 144.112C474.765 144.112 475.815 143.286 475.815 141.998C475.815 138.778 471.783 140.57 471.783 138.82C471.783 138.274 472.273 137.91 473.001 137.91C473.603 137.91 474.387 138.232 474.485 139.044H475.759C475.689 137.714 474.597 136.832 473.001 136.832C471.531 136.832 470.495 137.644 470.495 138.862C470.495 141.872 474.499 140.15 474.499 142.026C474.499 142.544 473.981 142.978 473.169 142.978C472.259 142.978 471.671 142.516 471.587 141.704H470.313C470.411 143.188 471.517 144.112 473.169 144.112ZM482.225 141.704C482.029 142.502 481.357 142.95 480.321 142.95C479.089 142.95 478.221 142.04 478.109 140.71H483.499C483.513 140.584 483.527 140.36 483.527 140.178C483.527 138.386 482.365 136.832 480.181 136.832C478.011 136.832 476.779 138.456 476.779 140.43C476.779 142.39 478.137 144.112 480.321 144.112C482.057 144.112 483.331 143.16 483.583 141.704H482.225ZM480.181 137.924C481.343 137.924 482.071 138.638 482.155 139.716H478.151C478.361 138.54 479.075 137.924 480.181 137.924ZM488.998 138.12V136.944H488.144C487.15 136.944 486.59 137.364 486.268 138.302V136.944H484.91V144H486.268V140.808C486.268 139.268 486.688 138.12 487.976 138.12H488.998Z" fill="#8E8E93"/>
<g clip-path="url(#clip0_246_545)">
<path d="M452.994 121.842H463.559C465.051 121.818 466.233 121.123 466.794 120.039C467.443 118.826 467.209 117.311 466.344 116.263C464.302 113.788 462.266 111.314 460.225 108.84C459.897 108.433 459.95 107.826 460.347 107.49L466.578 102.241L467.367 103.101L461.447 108.315L467.326 115.438C468.491 116.84 468.795 118.831 468.005 120.487C467.28 122.013 465.712 123.073 463.682 123.073L453 123.085C452.661 123.085 452.386 122.808 452.386 122.466V122.455C452.38 122.119 452.655 121.842 452.994 121.842Z" fill="#B89EFF"/>
<path d="M452.859 121.854L463.6 119.857C464.138 119.745 464.542 119.362 464.729 118.843C464.905 118.313 464.805 117.771 464.454 117.341C461.921 114.26 459.4 111.202 456.867 108.109C456.615 107.803 456.527 107.426 456.615 107.025C456.715 106.636 456.954 106.342 457.329 106.177L466.782 102.047L467.122 103.261L458.107 107.214C458.042 107.237 457.996 107.29 457.984 107.355C457.961 107.42 457.984 107.485 458.031 107.544C460.499 110.536 462.945 113.506 465.413 116.504C466.08 117.323 466.303 118.26 465.952 119.279C465.636 120.228 464.899 120.911 463.922 121.1L455.433 122.679L452.859 121.854Z" fill="#A17FFF"/>
<path d="M467.075 103.266L456.334 105.264C455.784 105.376 455.381 105.747 455.205 106.277C455.03 106.807 455.129 107.349 455.48 107.779C458.013 110.861 460.534 113.918 463.068 117.005C463.319 117.323 463.407 117.7 463.319 118.101C463.22 118.49 462.968 118.785 462.605 118.949L453.152 123.079L452.812 121.866L461.827 117.913C461.88 117.889 461.927 117.836 461.95 117.771C461.962 117.706 461.95 117.642 461.909 117.583C456.556 111.096 459.253 114.36 454.527 108.622C453.86 107.803 453.637 106.866 453.988 105.847C454.304 104.898 455.03 104.215 456.018 104.026L466.659 102.029L467.075 103.266Z" fill="#794FEC"/>
<path d="M466.934 103.278H456.369C454.877 103.302 453.702 103.997 453.134 105.069C452.497 106.295 452.731 107.809 453.596 108.857C455.638 111.332 457.674 113.806 459.715 116.281C460.043 116.687 459.99 117.294 459.587 117.63L453.368 122.879L452.578 122.019L458.493 116.805L452.619 109.67C451.455 108.268 451.151 106.277 451.941 104.622C452.66 103.102 454.234 102.041 456.252 102.041L466.934 102.029C467.274 102.029 467.56 102.306 467.56 102.648V102.66C467.56 103.001 467.274 103.278 466.934 103.278Z" fill="#562EC2"/>
<path d="M459.037 118.089L453.363 122.873L452.573 122.007L457.762 117.436L459.037 118.089Z" fill="#562EC2"/>
<path d="M460.845 119.721L453.158 123.079L452.818 121.866L460.178 118.637L460.845 119.721Z" fill="#794FEC"/>
<path d="M452.859 121.854L461.459 120.251L461.786 121.477L455.428 122.673L452.859 121.854Z" fill="#A17FFF"/>
<path d="M452.994 121.842H461.892C461.991 122.237 462.044 122.661 462.044 123.079L452.994 123.091C452.655 123.091 452.38 122.814 452.38 122.473V122.461C452.38 122.119 452.655 121.842 452.994 121.842Z" fill="#B89EFF"/>
</g>
<path d="M242.161 139.112C244.261 139.112 245.773 138.062 245.773 136.27C245.773 132.532 240.187 134.114 240.187 131.734C240.187 130.908 240.901 130.376 242.077 130.376C243.281 130.376 244.065 131.034 244.163 132.042H245.577C245.451 130.25 244.079 129.088 242.077 129.088C240.103 129.088 238.731 130.166 238.731 131.734C238.731 135.346 244.289 133.932 244.289 136.284C244.289 137.348 243.393 137.824 242.161 137.824C240.775 137.824 239.949 137.012 239.837 135.752H238.423C238.535 137.782 239.949 139.112 242.161 139.112ZM247.03 128.99V130.698H248.542V128.99H247.03ZM247.114 139H248.472V131.944H247.114V139ZM255.468 131.944V132.882C255.034 132.266 254.166 131.832 253.228 131.832C251.072 131.832 249.854 133.372 249.854 135.472C249.854 137.572 251.072 139.112 253.242 139.112C254.236 139.112 255.132 138.706 255.468 138.104V139.252C255.468 140.106 254.88 140.722 254.068 140.722H250.806V141.856H254.208C255.748 141.856 256.826 140.82 256.826 139.336V131.944H255.468ZM253.396 137.922C252.094 137.922 251.24 136.956 251.24 135.472C251.24 133.988 252.094 133.022 253.396 133.022C254.712 133.022 255.566 133.988 255.566 135.472C255.566 136.956 254.712 137.922 253.396 137.922ZM258.612 139H259.97V135.178C259.97 133.946 260.754 133.05 261.86 133.05C262.854 133.05 263.512 133.806 263.512 134.926V139H264.87V134.66C264.87 132.98 263.834 131.832 262.238 131.832C261.188 131.832 260.348 132.308 259.97 133.19V131.944H258.612V139ZM272.8 131.944H271.442V135.766C271.442 136.998 270.658 137.894 269.552 137.894C268.558 137.894 267.9 137.138 267.9 136.018V131.944H266.542V136.284C266.542 137.964 267.578 139.112 269.174 139.112C270.224 139.112 271.064 138.636 271.442 137.754V139H272.8V131.944ZM274.61 141.856H275.968V138.006C276.374 138.678 277.214 139.112 278.152 139.112C280.294 139.112 281.568 137.572 281.568 135.472C281.568 133.372 280.35 131.832 278.222 131.832C277.242 131.832 276.388 132.294 275.968 132.994V131.944H274.61V141.856ZM278.026 137.922C276.71 137.922 275.856 136.942 275.856 135.472C275.856 134.002 276.71 133.022 278.026 133.022C279.328 133.022 280.196 134.002 280.196 135.472C280.196 136.942 279.328 137.922 278.026 137.922ZM242.093 159.112C243.689 159.112 244.739 158.286 244.739 156.998C244.739 153.778 240.707 155.57 240.707 153.82C240.707 153.274 241.197 152.91 241.925 152.91C242.527 152.91 243.311 153.232 243.409 154.044H244.683C244.613 152.714 243.521 151.832 241.925 151.832C240.455 151.832 239.419 152.644 239.419 153.862C239.419 156.872 243.423 155.15 243.423 157.026C243.423 157.544 242.905 157.978 242.093 157.978C241.183 157.978 240.595 157.516 240.511 156.704H239.237C239.335 158.188 240.441 159.112 242.093 159.112ZM249.203 159.112C250.995 159.112 252.255 158.104 252.479 156.62H251.135C250.911 157.418 250.197 157.922 249.231 157.922C247.831 157.922 247.117 156.83 247.117 155.472C247.117 154.114 247.817 153.022 249.231 153.022C250.183 153.022 250.995 153.61 251.121 154.408H252.479C252.283 152.812 250.855 151.832 249.203 151.832C246.977 151.832 245.703 153.526 245.703 155.472C245.703 157.418 246.977 159.112 249.203 159.112ZM257.853 153.12V151.944H256.999C256.005 151.944 255.445 152.364 255.123 153.302V151.944H253.765V159H255.123V155.808C255.123 154.268 255.543 153.12 256.831 153.12H257.853ZM263.714 156.704C263.518 157.502 262.846 157.95 261.81 157.95C260.578 157.95 259.71 157.04 259.598 155.71H264.988C265.002 155.584 265.016 155.36 265.016 155.178C265.016 153.386 263.854 151.832 261.67 151.832C259.5 151.832 258.268 153.456 258.268 155.43C258.268 157.39 259.626 159.112 261.81 159.112C263.546 159.112 264.82 158.16 265.072 156.704H263.714ZM261.67 152.924C262.832 152.924 263.56 153.638 263.644 154.716H259.64C259.85 153.54 260.564 152.924 261.67 152.924ZM271.438 156.704C271.242 157.502 270.57 157.95 269.534 157.95C268.302 157.95 267.434 157.04 267.322 155.71H272.712C272.726 155.584 272.74 155.36 272.74 155.178C272.74 153.386 271.578 151.832 269.394 151.832C267.224 151.832 265.992 153.456 265.992 155.43C265.992 157.39 267.35 159.112 269.534 159.112C271.27 159.112 272.544 158.16 272.796 156.704H271.438ZM269.394 152.924C270.556 152.924 271.284 153.638 271.368 154.716H267.364C267.574 153.54 268.288 152.924 269.394 152.924ZM274.123 159H275.481V155.178C275.481 153.946 276.265 153.05 277.371 153.05C278.365 153.05 279.023 153.806 279.023 154.926V159H280.381V154.66C280.381 152.98 279.345 151.832 277.749 151.832C276.699 151.832 275.859 152.308 275.481 153.19V151.944H274.123V159Z" fill="#8E8E93"/>
<path d="M254.465 102.647C254.66 102.841 254.66 103.159 254.465 103.353C254.271 103.548 253.953 103.548 253.759 103.353C253.564 103.159 253.564 102.841 253.759 102.647C253.953 102.451 254.269 102.451 254.465 102.647Z" stroke="#48484A" stroke-width="1.5" stroke-linecap="round" stroke-linejoin="round"/>
<path d="M260.353 102.647C260.548 102.841 260.548 103.159 260.353 103.353C260.159 103.548 259.841 103.548 259.647 103.353C259.452 103.159 259.452 102.841 259.647 102.647C259.841 102.451 260.159 102.451 260.353 102.647Z" stroke="#48484A" stroke-width="1.5" stroke-linecap="round" stroke-linejoin="round"/>
<path d="M261.333 91H262.667C264.14 91 265.333 92.1933 265.333 93.6667C265.333 92.1933 266.527 91 268 91H269.333" stroke="#48484A" stroke-width="1.5" stroke-linecap="round" stroke-linejoin="round"/>
<path d="M265.333 112.333V93.6665" stroke="#48484A" stroke-width="1.5" stroke-linecap="round" stroke-linejoin="round"/>
<path d="M269.333 115H268C266.527 115 265.333 113.807 265.333 112.333C265.333 113.807 264.14 115 262.667 115H261.333" stroke="#48484A" stroke-width="1.5" stroke-linecap="round" stroke-linejoin="round"/>
<path d="M261.333 109.667H250.667C249.193 109.667 248 108.473 248 107V99.0002C248 97.5268 249.193 96.3335 250.667 96.3335H261.333" stroke="#48484A" stroke-width="1.5" stroke-linecap="round" stroke-linejoin="round"/>
<path d="M265.333 109.667H269.333C270.807 109.667 272 108.473 272 107V99.0002C272 97.5268 270.807 96.3335 269.333 96.3335H265.333" stroke="#48484A" stroke-width="1.5" stroke-linecap="round" stroke-linejoin="round"/>
<path d="M30.1554 134H31.6674L27.8174 124.2H26.4734L22.6234 134H24.1214L25.0594 131.508H29.2174L30.1554 134ZM25.5494 130.234L27.1454 126.02L28.7414 130.234H25.5494ZM32.6219 134H33.9799V130.178C33.9799 128.946 34.7639 128.05 35.8699 128.05C36.8639 128.05 37.5219 128.806 37.5219 129.926V134H38.8799V129.66C38.8799 127.98 37.8439 126.832 36.2479 126.832C35.1979 126.832 34.3579 127.308 33.9799 128.19V126.944H32.6219V134ZM43.854 134.112C45.968 134.112 47.48 132.586 47.48 130.472C47.48 128.358 45.968 126.832 43.854 126.832C41.74 126.832 40.214 128.358 40.214 130.472C40.214 132.586 41.74 134.112 43.854 134.112ZM43.854 132.922C42.51 132.922 41.6 131.914 41.6 130.472C41.6 129.03 42.51 128.022 43.854 128.022C45.184 128.022 46.094 129.03 46.094 130.472C46.094 131.914 45.184 132.922 43.854 132.922ZM48.8094 134H50.1674V130.178C50.1674 128.946 50.9514 128.05 52.0574 128.05C53.0514 128.05 53.7094 128.806 53.7094 129.926V134H55.0674V129.66C55.0674 127.98 54.0314 126.832 52.4354 126.832C51.3854 126.832 50.5454 127.308 50.1674 128.19V126.944H48.8094V134ZM62.3574 126.944H60.9574L59.0954 132.236L57.2474 126.944H55.8474L58.4654 134.07L57.5134 136.856H58.8154L59.8794 133.748L62.3574 126.944ZM63.3836 134H64.7416V129.898C64.7416 128.778 65.3856 128.022 66.4636 128.022C67.3876 128.022 67.9476 128.778 67.9476 129.898V134H69.3056V129.898C69.3056 128.778 69.9496 128.022 71.0276 128.022C71.9656 128.022 72.5256 128.778 72.5256 129.898V134H73.8836V129.52C73.8836 127.882 72.9316 126.832 71.4056 126.832C70.3136 126.832 69.3896 127.476 69.1096 128.274C68.8296 127.35 67.9756 126.832 66.8276 126.832C65.7916 126.832 65.0356 127.406 64.7416 128.204V126.944H63.3836V134ZM78.854 134.112C80.968 134.112 82.48 132.586 82.48 130.472C82.48 128.358 80.968 126.832 78.854 126.832C76.74 126.832 75.214 128.358 75.214 130.472C75.214 132.586 76.74 134.112 78.854 134.112ZM78.854 132.922C77.51 132.922 76.6 131.914 76.6 130.472C76.6 129.03 77.51 128.022 78.854 128.022C80.184 128.022 81.094 129.03 81.094 130.472C81.094 131.914 80.184 132.922 78.854 132.922ZM90.0674 126.944H88.7094V130.766C88.7094 131.998 87.9254 132.894 86.8194 132.894C85.8254 132.894 85.1674 132.138 85.1674 131.018V126.944H83.8094V131.284C83.8094 132.964 84.8454 134.112 86.4414 134.112C87.4914 134.112 88.3314 133.636 88.7094 132.754V134H90.0674V126.944ZM94.2855 134.112C95.8815 134.112 96.9315 133.286 96.9315 131.998C96.9315 128.778 92.8995 130.57 92.8995 128.82C92.8995 128.274 93.3895 127.91 94.1175 127.91C94.7195 127.91 95.5035 128.232 95.6015 129.044H96.8755C96.8055 127.714 95.7135 126.832 94.1175 126.832C92.6475 126.832 91.6115 127.644 91.6115 128.862C91.6115 131.872 95.6155 130.15 95.6155 132.026C95.6155 132.544 95.0975 132.978 94.2855 132.978C93.3755 132.978 92.7875 132.516 92.7035 131.704H91.4295C91.5275 133.188 92.6335 134.112 94.2855 134.112ZM53.4131 146.944H52.0551V150.766C52.0551 151.998 51.2711 152.894 50.1651 152.894C49.1711 152.894 48.5131 152.138 48.5131 151.018V146.944H47.1551V151.284C47.1551 152.964 48.1911 154.112 49.7871 154.112C50.8371 154.112 51.6771 153.636 52.0551 152.754V154H53.4131V146.944ZM57.6312 154.112C59.2272 154.112 60.2772 153.286 60.2772 151.998C60.2772 148.778 56.2452 150.57 56.2452 148.82C56.2452 148.274 56.7352 147.91 57.4632 147.91C58.0652 147.91 58.8492 148.232 58.9472 149.044H60.2212C60.1512 147.714 59.0592 146.832 57.4632 146.832C55.9932 146.832 54.9572 147.644 54.9572 148.862C54.9572 151.872 58.9612 150.15 58.9612 152.026C58.9612 152.544 58.4432 152.978 57.6312 152.978C56.7212 152.978 56.1332 152.516 56.0492 151.704H54.7752C54.8732 153.188 55.9792 154.112 57.6312 154.112ZM66.6873 151.704C66.4913 152.502 65.8193 152.95 64.7833 152.95C63.5513 152.95 62.6833 152.04 62.5713 150.71H67.9613C67.9753 150.584 67.9893 150.36 67.9893 150.178C67.9893 148.386 66.8273 146.832 64.6433 146.832C62.4733 146.832 61.2413 148.456 61.2413 150.43C61.2413 152.39 62.5993 154.112 64.7833 154.112C66.5193 154.112 67.7933 153.16 68.0453 151.704H66.6873ZM64.6433 147.924C65.8053 147.924 66.5333 148.638 66.6173 149.716H62.6133C62.8233 148.54 63.5373 147.924 64.6433 147.924ZM73.4599 148.12V146.944H72.6059C71.6119 146.944 71.0519 147.364 70.7299 148.302V146.944H69.3719V154H70.7299V150.808C70.7299 149.268 71.1499 148.12 72.4379 148.12H73.4599Z" fill="#8E8E93"/>
<g clip-path="url(#clip1_246_545)">
<path d="M52.9939 111.842H63.559C65.0507 111.818 66.2324 111.123 66.794 110.039C67.4434 108.826 67.2094 107.311 66.3436 106.263C64.3019 103.788 62.2661 101.314 60.2245 98.8396C59.8969 98.4331 59.9495 97.8263 60.3473 97.4905L66.5776 92.2412L67.3673 93.1014L61.4471 98.3153L67.3264 105.438C68.4905 106.84 68.7947 108.831 68.005 110.487C67.2796 112.013 65.7118 113.073 63.6818 113.073L52.9997 113.085C52.6604 113.085 52.3855 112.808 52.3855 112.466V112.455C52.3796 112.119 52.6546 111.842 52.9939 111.842Z" fill="#B89EFF"/>
<path d="M52.8594 111.854L63.6 109.857C64.1382 109.745 64.5418 109.362 64.729 108.843C64.9045 108.313 64.8051 107.771 64.4541 107.341C61.921 104.26 59.3997 101.202 56.8666 98.1092C56.6151 97.8028 56.5273 97.4257 56.6151 97.0251C56.7145 96.6363 56.9544 96.3417 57.3288 96.1768L66.7824 92.0469L67.1217 93.2605L58.1068 97.2137C58.0425 97.2372 57.9957 97.2902 57.984 97.3551C57.9606 97.4199 57.984 97.4847 58.0308 97.5436C60.4995 100.536 62.9448 103.506 65.4135 106.504C66.0804 107.323 66.3027 108.26 65.9517 109.279C65.6358 110.228 64.8987 110.911 63.9217 111.1L55.4334 112.679L52.8594 111.854Z" fill="#A17FFF"/>
<path d="M67.0748 93.2665L56.3342 95.2637C55.7843 95.3756 55.3806 95.7468 55.2051 96.277C55.0296 96.8072 55.1291 97.3493 55.4801 97.7793C58.0131 100.861 60.5345 103.918 63.0675 107.005C63.3191 107.323 63.4068 107.7 63.3191 108.101C63.2196 108.49 62.9681 108.785 62.6054 108.949L53.1518 113.079L52.8125 111.866L61.8273 107.913C61.88 107.889 61.9268 107.836 61.9502 107.771C61.9619 107.706 61.9502 107.642 61.9092 107.583C56.5565 101.096 59.2533 104.36 54.5265 98.6218C53.8596 97.8029 53.6373 96.8662 53.9883 95.8469C54.3042 94.8984 55.0296 94.215 56.0183 94.0265L66.6594 92.0293L67.0748 93.2665Z" fill="#794FEC"/>
<path d="M66.9343 93.2783H56.3692C54.8775 93.3018 53.7016 93.997 53.1342 95.0693C52.4965 96.2947 52.7305 97.8088 53.5963 98.8575C55.638 101.332 57.6738 103.806 59.7154 106.281C60.043 106.687 59.9904 107.294 59.5867 107.63L53.3682 112.879L52.5784 112.019L58.4928 106.805L52.6194 99.6705C51.4552 98.2683 51.151 96.277 51.9408 94.6215C52.6603 93.1015 54.234 92.0411 56.2522 92.0411L66.9343 92.0293C67.2736 92.0293 67.5603 92.3062 67.5603 92.6479V92.6597C67.5603 93.0014 67.2736 93.2783 66.9343 93.2783Z" fill="#562EC2"/>
<path d="M59.0369 108.089L53.3624 112.873L52.5726 112.007L57.7616 107.436L59.0369 108.089Z" fill="#562EC2"/>
<path d="M60.8446 109.721L53.1577 113.079L52.8184 111.866L60.1777 108.637L60.8446 109.721Z" fill="#794FEC"/>
<path d="M52.8594 111.854L61.4589 110.251L61.7865 111.477L55.4275 112.673L52.8594 111.854Z" fill="#A17FFF"/>
<path d="M52.9939 111.842H61.8917C61.9912 112.237 62.0438 112.661 62.0438 113.079L52.9939 113.091C52.6546 113.091 52.3796 112.814 52.3796 112.473V112.461C52.3796 112.119 52.6546 111.842 52.9939 111.842Z" fill="#B89EFF"/>
</g>
<rect x="201" y="1" width="118" height="248" rx="14" stroke="#48484A" stroke-width="2" stroke-dasharray="4 4"/>
<path d="M134 124C133.448 124 133 124.448 133 125C133 125.552 133.448 126 134 126V124ZM185.707 125.707C186.098 125.317 186.098 124.683 185.707 124.293L179.343 117.929C178.953 117.538 178.319 117.538 177.929 117.929C177.538 118.319 177.538 118.953 177.929 119.343L183.586 125L177.929 130.657C177.538 131.047 177.538 131.681 177.929 132.071C178.319 132.462 178.953 132.462 179.343 132.071L185.707 125.707ZM134 126H185V124H134V126Z" fill="#48484A"/>
<path d="M334 124C333.448 124 333 124.448 333 125C333 125.552 333.448 126 334 126V124ZM385.707 125.707C386.098 125.317 386.098 124.683 385.707 124.293L379.343 117.929C378.953 117.538 378.319 117.538 377.929 117.929C377.538 118.319 377.538 118.953 377.929 119.343L383.586 125L377.929 130.657C377.538 131.047 377.538 131.681 377.929 132.071C378.319 132.462 378.953 132.462 379.343 132.071L385.707 125.707ZM334 126H385V124H334V126Z" fill="#48484A"/>
<defs>
<clipPath id="clip0_246_545">
<rect width="18" height="21.2727" fill="white" transform="translate(451 102)"/>
</clipPath>
<clipPath id="clip1_246_545">
<rect width="18" height="21.2727" fill="white" transform="translate(51 92)"/>
</clipPath>
</defs>
</svg>
