<svg width="520" height="250" viewBox="0 0 520 250" fill="none" xmlns="http://www.w3.org/2000/svg">
<rect x="401" y="1" width="118" height="248" rx="14" stroke="#48484A" stroke-width="2"/>
<g clip-path="url(#clip0_325_313)">
<path d="M489.994 33.842H500.559C502.051 33.8184 503.233 33.1232 503.794 32.0392C504.443 30.8256 504.209 29.3115 503.344 28.2628C501.302 25.7884 499.266 23.314 497.225 20.8396C496.897 20.4331 496.95 19.8263 497.347 19.4905L503.578 14.2412L504.367 15.1014L498.447 20.3153L504.326 27.438C505.491 28.8402 505.795 30.8315 505.005 32.487C504.28 34.0128 502.712 35.0733 500.682 35.0733L490 35.0851C489.661 35.0851 489.386 34.8082 489.386 34.4665V34.4547C489.38 34.1189 489.655 33.842 489.994 33.842Z" fill="#B89EFF"/>
<path d="M489.859 33.8539L500.6 31.8567C501.138 31.7447 501.542 31.3618 501.729 30.8433C501.905 30.3131 501.805 29.7711 501.454 29.341C498.921 26.2598 496.4 23.2022 493.867 20.1092C493.615 19.8028 493.527 19.4257 493.615 19.0251C493.715 18.6363 493.954 18.3417 494.329 18.1768L503.782 14.0469L504.122 15.2605L495.107 19.2137C495.042 19.2372 494.996 19.2902 494.984 19.3551C494.961 19.4199 494.984 19.4847 495.031 19.5436C497.499 22.5364 499.945 25.5057 502.413 28.5044C503.08 29.3233 503.303 30.2601 502.952 31.2793C502.636 32.2278 501.899 32.9112 500.922 33.0998L492.433 34.6787L489.859 33.8539Z" fill="#A17FFF"/>
<path d="M504.075 15.2665L493.334 17.2637C492.784 17.3756 492.381 17.7468 492.205 18.277C492.03 18.8072 492.129 19.3493 492.48 19.7793C495.013 22.8605 497.534 25.9182 500.068 29.0053C500.319 29.3234 500.407 29.7005 500.319 30.1011C500.22 30.4899 499.968 30.7845 499.605 30.9495L490.152 35.0794L489.812 33.8657L498.827 29.9126C498.88 29.889 498.927 29.836 498.95 29.7712C498.962 29.7064 498.95 29.6416 498.909 29.5827C493.556 23.0962 496.253 26.3601 491.527 20.6218C490.86 19.8029 490.637 18.8662 490.988 17.8469C491.304 16.8984 492.03 16.215 493.018 16.0265L503.659 14.0293L504.075 15.2665Z" fill="#794FEC"/>
<path d="M503.934 15.2783H493.369C491.877 15.3018 490.702 15.997 490.134 17.0693C489.497 18.2947 489.731 19.8088 490.596 20.8575C492.638 23.3319 494.674 25.8063 496.715 28.2807C497.043 28.6872 496.99 29.294 496.587 29.6298L490.368 34.8791L489.578 34.0189L495.493 28.805L489.619 21.6705C488.455 20.2683 488.151 18.277 488.941 16.6215C489.66 15.1015 491.234 14.0411 493.252 14.0411L503.934 14.0293C504.274 14.0293 504.56 14.3062 504.56 14.6479V14.6597C504.56 15.0014 504.274 15.2783 503.934 15.2783Z" fill="#562EC2"/>
<path d="M496.037 30.0895L490.363 34.8733L489.573 34.0073L494.762 29.4355L496.037 30.0895Z" fill="#562EC2"/>
<path d="M497.845 31.7212L490.158 35.0793L489.818 33.8657L497.178 30.6372L497.845 31.7212Z" fill="#794FEC"/>
<path d="M489.859 33.8539L498.459 32.2515L498.786 33.4769L492.428 34.6728L489.859 33.8539Z" fill="#A17FFF"/>
<path d="M489.994 33.8423H498.892C498.991 34.237 499.044 34.6612 499.044 35.0795L489.994 35.0913C489.655 35.0913 489.38 34.8144 489.38 34.4727V34.4609C489.38 34.1192 489.655 33.8423 489.994 33.8423Z" fill="#B89EFF"/>
</g>
<path d="M427.272 121H428.728V113.468L433.46 121H435.07V111.2H433.614V118.746L428.896 111.2H427.272V121ZM441.975 118.704C441.779 119.502 441.107 119.95 440.071 119.95C438.839 119.95 437.971 119.04 437.859 117.71H443.249C443.263 117.584 443.277 117.36 443.277 117.178C443.277 115.386 442.115 113.832 439.931 113.832C437.761 113.832 436.529 115.456 436.529 117.43C436.529 119.39 437.887 121.112 440.071 121.112C441.807 121.112 443.081 120.16 443.333 118.704H441.975ZM439.931 114.924C441.093 114.924 441.821 115.638 441.905 116.716H437.901C438.111 115.54 438.825 114.924 439.931 114.924ZM445.995 121H447.255L448.851 115.736L450.461 121H451.721L453.905 113.944H452.533L451.091 119.194L449.509 113.944H448.221L446.625 119.194L445.169 113.944H443.811L445.995 121ZM459.034 111.732V113.944H457.592V115.12H459.034V118.69C459.034 120.132 459.944 121 461.372 121H462.478V119.824H461.484C460.798 119.824 460.392 119.404 460.392 118.648V115.12H462.478V113.944H460.392V111.732H459.034ZM463.553 110.99V112.698H465.065V110.99H463.553ZM463.637 121H464.995V113.944H463.637V121ZM469.807 121.112C471.599 121.112 472.859 120.104 473.083 118.62H471.739C471.515 119.418 470.801 119.922 469.835 119.922C468.435 119.922 467.721 118.83 467.721 117.472C467.721 116.114 468.421 115.022 469.835 115.022C470.787 115.022 471.599 115.61 471.725 116.408H473.083C472.887 114.812 471.459 113.832 469.807 113.832C467.581 113.832 466.307 115.526 466.307 117.472C466.307 119.418 467.581 121.112 469.807 121.112ZM479.227 121H480.907L477.673 116.702L480.641 113.944H478.877L475.811 116.758V110.99H474.439V121H475.811V118.438L476.693 117.626L479.227 121ZM486.587 118.704C486.391 119.502 485.719 119.95 484.683 119.95C483.451 119.95 482.583 119.04 482.471 117.71H487.861C487.875 117.584 487.889 117.36 487.889 117.178C487.889 115.386 486.727 113.832 484.543 113.832C482.373 113.832 481.141 115.456 481.141 117.43C481.141 119.39 482.499 121.112 484.683 121.112C486.419 121.112 487.693 120.16 487.945 118.704H486.587ZM484.543 114.924C485.705 114.924 486.433 115.638 486.517 116.716H482.513C482.723 115.54 483.437 114.924 484.543 114.924ZM489.988 111.732V113.944H488.546V115.12H489.988V118.69C489.988 120.132 490.898 121 492.326 121H493.432V119.824H492.438C491.752 119.824 491.346 119.404 491.346 118.648V115.12H493.432V113.944H491.346V111.732H489.988ZM442.093 141.112C443.689 141.112 444.739 140.286 444.739 138.998C444.739 135.778 440.707 137.57 440.707 135.82C440.707 135.274 441.197 134.91 441.925 134.91C442.527 134.91 443.311 135.232 443.409 136.044H444.683C444.613 134.714 443.521 133.832 441.925 133.832C440.455 133.832 439.419 134.644 439.419 135.862C439.419 138.872 443.423 137.15 443.423 139.026C443.423 139.544 442.905 139.978 442.093 139.978C441.183 139.978 440.595 139.516 440.511 138.704H439.237C439.335 140.188 440.441 141.112 442.093 141.112ZM449.203 141.112C450.995 141.112 452.255 140.104 452.479 138.62H451.135C450.911 139.418 450.197 139.922 449.231 139.922C447.831 139.922 447.117 138.83 447.117 137.472C447.117 136.114 447.817 135.022 449.231 135.022C450.183 135.022 450.995 135.61 451.121 136.408H452.479C452.283 134.812 450.855 133.832 449.203 133.832C446.977 133.832 445.703 135.526 445.703 137.472C445.703 139.418 446.977 141.112 449.203 141.112ZM457.853 135.12V133.944H456.999C456.005 133.944 455.445 134.364 455.123 135.302V133.944H453.765V141H455.123V137.808C455.123 136.268 455.543 135.12 456.831 135.12H457.853ZM463.714 138.704C463.518 139.502 462.846 139.95 461.81 139.95C460.578 139.95 459.71 139.04 459.598 137.71H464.988C465.002 137.584 465.016 137.36 465.016 137.178C465.016 135.386 463.854 133.832 461.67 133.832C459.5 133.832 458.268 135.456 458.268 137.43C458.268 139.39 459.626 141.112 461.81 141.112C463.546 141.112 464.82 140.16 465.072 138.704H463.714ZM461.67 134.924C462.832 134.924 463.56 135.638 463.644 136.716H459.64C459.85 135.54 460.564 134.924 461.67 134.924ZM471.438 138.704C471.242 139.502 470.57 139.95 469.534 139.95C468.302 139.95 467.434 139.04 467.322 137.71H472.712C472.726 137.584 472.74 137.36 472.74 137.178C472.74 135.386 471.578 133.832 469.394 133.832C467.224 133.832 465.992 135.456 465.992 137.43C465.992 139.39 467.35 141.112 469.534 141.112C471.27 141.112 472.544 140.16 472.796 138.704H471.438ZM469.394 134.924C470.556 134.924 471.284 135.638 471.368 136.716H467.364C467.574 135.54 468.288 134.924 469.394 134.924ZM474.123 141H475.481V137.178C475.481 135.946 476.265 135.05 477.371 135.05C478.365 135.05 479.023 135.806 479.023 136.926V141H480.381V136.66C480.381 134.98 479.345 133.832 477.749 133.832C476.699 133.832 475.859 134.308 475.481 135.19V133.944H474.123V141Z" fill="#8E8E93"/>
<path fill-rule="evenodd" clip-rule="evenodd" d="M410 52L386 64L390.144 52L386 40L410 52Z" fill="#46D39A" stroke="white" stroke-width="2"/>
<rect x="201" y="1" width="118" height="248" rx="14" stroke="#48484A" stroke-width="2" stroke-dasharray="4 4"/>
<path d="M319 204C318.448 204 318 204.448 318 205C318 205.552 318.448 206 319 206V204ZM385.707 205.707C386.098 205.317 386.098 204.683 385.707 204.293L379.343 197.929C378.953 197.538 378.319 197.538 377.929 197.929C377.538 198.319 377.538 198.953 377.929 199.343L383.586 205L377.929 210.657C377.538 211.047 377.538 211.681 377.929 212.071C378.319 212.462 378.953 212.462 379.343 212.071L385.707 205.707ZM319 206H385V204H319V206Z" fill="#48484A"/>
<path d="M134 124C133.448 124 133 124.448 133 125C133 125.552 133.448 126 134 126V124ZM185.707 125.707C186.098 125.317 186.098 124.683 185.707 124.293L179.343 117.929C178.953 117.538 178.319 117.538 177.929 117.929C177.538 118.319 177.538 118.953 177.929 119.343L183.586 125L177.929 130.657C177.538 131.047 177.538 131.681 177.929 132.071C178.319 132.462 178.953 132.462 179.343 132.071L185.707 125.707ZM134 126H185V124H134V126Z" fill="#48484A"/>
<rect x="201" y="161" width="118" height="88" rx="14" stroke="#48484A" stroke-width="2"/>
<g clip-path="url(#clip1_325_313)">
<path d="M289.994 193.842H300.559C302.051 193.818 303.232 193.123 303.794 192.039C304.443 190.826 304.209 189.311 303.344 188.263C301.302 185.788 299.266 183.314 297.224 180.84C296.897 180.433 296.95 179.826 297.347 179.49L303.578 174.241L304.367 175.101L298.447 180.315L304.326 187.438C305.491 188.84 305.795 190.831 305.005 192.487C304.28 194.013 302.712 195.073 300.682 195.073L290 195.085C289.66 195.085 289.385 194.808 289.385 194.466V194.455C289.38 194.119 289.655 193.842 289.994 193.842Z" fill="#B89EFF"/>
<path d="M289.859 193.854L300.6 191.857C301.138 191.745 301.542 191.362 301.729 190.843C301.905 190.313 301.805 189.771 301.454 189.341C298.921 186.26 296.4 183.202 293.867 180.109C293.615 179.803 293.527 179.426 293.615 179.025C293.715 178.636 293.954 178.342 294.329 178.177L303.782 174.047L304.122 175.261L295.107 179.214C295.042 179.237 294.996 179.29 294.984 179.355C294.961 179.42 294.984 179.485 295.031 179.544C297.499 182.536 299.945 185.506 302.413 188.504C303.08 189.323 303.303 190.26 302.952 191.279C302.636 192.228 301.899 192.911 300.922 193.1L292.433 194.679L289.859 193.854Z" fill="#A17FFF"/>
<path d="M304.075 175.266L293.334 177.264C292.784 177.376 292.381 177.747 292.205 178.277C292.03 178.807 292.129 179.349 292.48 179.779C295.013 182.861 297.534 185.918 300.068 189.005C300.319 189.323 300.407 189.7 300.319 190.101C300.22 190.49 299.968 190.785 299.605 190.949L290.152 195.079L289.812 193.866L298.827 189.913C298.88 189.889 298.927 189.836 298.95 189.771C298.962 189.706 298.95 189.642 298.909 189.583C293.556 183.096 296.253 186.36 291.527 180.622C290.86 179.803 290.637 178.866 290.988 177.847C291.304 176.898 292.03 176.215 293.018 176.026L303.659 174.029L304.075 175.266Z" fill="#794FEC"/>
<path d="M303.934 175.278H293.369C291.877 175.302 290.702 175.997 290.134 177.069C289.497 178.295 289.731 179.809 290.596 180.857C292.638 183.332 294.674 185.806 296.715 188.281C297.043 188.687 296.99 189.294 296.587 189.63L290.368 194.879L289.578 194.019L295.493 188.805L289.619 181.67C288.455 180.268 288.151 178.277 288.941 176.622C289.66 175.102 291.234 174.041 293.252 174.041L303.934 174.029C304.274 174.029 304.56 174.306 304.56 174.648V174.66C304.56 175.001 304.274 175.278 303.934 175.278Z" fill="#562EC2"/>
<path d="M296.037 190.089L290.362 194.873L289.573 194.007L294.762 189.436L296.037 190.089Z" fill="#562EC2"/>
<path d="M297.845 191.721L290.158 195.079L289.818 193.866L297.178 190.637L297.845 191.721Z" fill="#794FEC"/>
<path d="M289.859 193.854L298.459 192.251L298.786 193.477L292.428 194.673L289.859 193.854Z" fill="#A17FFF"/>
<path d="M289.994 193.842H298.892C298.991 194.237 299.044 194.661 299.044 195.079L289.994 195.091C289.655 195.091 289.38 194.814 289.38 194.473V194.461C289.38 194.119 289.655 193.842 289.994 193.842Z" fill="#B89EFF"/>
</g>
<path d="M245.16 191H246.672L242.822 181.2H241.478L237.628 191H239.126L240.064 188.508H244.222L245.16 191ZM240.554 187.234L242.15 183.02L243.746 187.234H240.554ZM250.105 191.112C251.701 191.112 252.751 190.286 252.751 188.998C252.751 185.778 248.719 187.57 248.719 185.82C248.719 185.274 249.209 184.91 249.937 184.91C250.539 184.91 251.323 185.232 251.421 186.044H252.695C252.625 184.714 251.533 183.832 249.937 183.832C248.467 183.832 247.431 184.644 247.431 185.862C247.431 188.872 251.435 187.15 251.435 189.026C251.435 189.544 250.917 189.978 250.105 189.978C249.195 189.978 248.607 189.516 248.523 188.704H247.249C247.347 190.188 248.453 191.112 250.105 191.112ZM259.02 191H260.7L257.466 186.702L260.434 183.944H258.67L255.604 186.758V180.99H254.232V191H255.604V188.438L256.486 187.626L259.02 191ZM265.734 191H267.092V185.12H269.22V183.944H267.092V183.3C267.092 182.6 267.512 182.166 268.156 182.166H269.22V180.99H268.058C266.644 180.99 265.734 181.872 265.734 183.258V183.944H264.292V185.12H265.734V191ZM273.173 191.112C275.287 191.112 276.799 189.586 276.799 187.472C276.799 185.358 275.287 183.832 273.173 183.832C271.059 183.832 269.533 185.358 269.533 187.472C269.533 189.586 271.059 191.112 273.173 191.112ZM273.173 189.922C271.829 189.922 270.919 188.914 270.919 187.472C270.919 186.03 271.829 185.022 273.173 185.022C274.503 185.022 275.413 186.03 275.413 187.472C275.413 188.914 274.503 189.922 273.173 189.922ZM282.217 185.12V183.944H281.363C280.369 183.944 279.809 184.364 279.487 185.302V183.944H278.129V191H279.487V187.808C279.487 186.268 279.907 185.12 281.195 185.12H282.217ZM228.16 211.112C229.098 211.112 229.966 210.65 230.386 209.95V211H231.744V200.99H230.386V204.98C229.966 204.294 229.112 203.832 228.146 203.832C225.99 203.832 224.772 205.372 224.772 207.472C224.772 209.572 225.99 211.112 228.16 211.112ZM228.314 209.922C227.012 209.922 226.158 208.942 226.158 207.472C226.158 206.002 227.012 205.022 228.314 205.022C229.63 205.022 230.484 206.002 230.484 207.472C230.484 208.942 229.63 209.922 228.314 209.922ZM238.571 208.704C238.375 209.502 237.703 209.95 236.667 209.95C235.435 209.95 234.567 209.04 234.455 207.71H239.845C239.859 207.584 239.873 207.36 239.873 207.178C239.873 205.386 238.711 203.832 236.527 203.832C234.357 203.832 233.125 205.456 233.125 207.43C233.125 209.39 234.483 211.112 236.667 211.112C238.403 211.112 239.677 210.16 239.929 208.704H238.571ZM236.527 204.924C237.689 204.924 238.417 205.638 238.501 206.716H234.497C234.707 205.54 235.421 204.924 236.527 204.924ZM243.665 211.112C245.261 211.112 246.311 210.286 246.311 208.998C246.311 205.778 242.279 207.57 242.279 205.82C242.279 205.274 242.769 204.91 243.497 204.91C244.099 204.91 244.883 205.232 244.981 206.044H246.255C246.185 204.714 245.093 203.832 243.497 203.832C242.027 203.832 240.991 204.644 240.991 205.862C240.991 208.872 244.995 207.15 244.995 209.026C244.995 209.544 244.477 209.978 243.665 209.978C242.755 209.978 242.167 209.516 242.083 208.704H240.809C240.907 210.188 242.013 211.112 243.665 211.112ZM250.775 211.112C252.567 211.112 253.827 210.104 254.051 208.62H252.707C252.483 209.418 251.769 209.922 250.803 209.922C249.403 209.922 248.689 208.83 248.689 207.472C248.689 206.114 249.389 205.022 250.803 205.022C251.755 205.022 252.567 205.61 252.693 206.408H254.051C253.855 204.812 252.427 203.832 250.775 203.832C248.549 203.832 247.275 205.526 247.275 207.472C247.275 209.418 248.549 211.112 250.775 211.112ZM259.426 205.12V203.944H258.572C257.578 203.944 257.018 204.364 256.696 205.302V203.944H255.338V211H256.696V207.808C256.696 206.268 257.116 205.12 258.404 205.12H259.426ZM260.463 200.99V202.698H261.975V200.99H260.463ZM260.547 211H261.905V203.944H260.547V211ZM263.693 213.856H265.051V210.006C265.457 210.678 266.297 211.112 267.235 211.112C269.377 211.112 270.651 209.572 270.651 207.472C270.651 205.372 269.433 203.832 267.305 203.832C266.325 203.832 265.471 204.294 265.051 204.994V203.944H263.693V213.856ZM267.109 209.922C265.793 209.922 264.939 208.942 264.939 207.472C264.939 206.002 265.793 205.022 267.109 205.022C268.411 205.022 269.279 206.002 269.279 207.472C269.279 208.942 268.411 209.922 267.109 209.922ZM272.693 201.732V203.944H271.251V205.12H272.693V208.69C272.693 210.132 273.603 211 275.031 211H276.137V209.824H275.143C274.457 209.824 274.051 209.404 274.051 208.648V205.12H276.137V203.944H274.051V201.732H272.693ZM277.211 200.99V202.698H278.723V200.99H277.211ZM277.295 211H278.653V203.944H277.295V211ZM283.605 211.112C285.719 211.112 287.231 209.586 287.231 207.472C287.231 205.358 285.719 203.832 283.605 203.832C281.491 203.832 279.965 205.358 279.965 207.472C279.965 209.586 281.491 211.112 283.605 211.112ZM283.605 209.922C282.261 209.922 281.351 208.914 281.351 207.472C281.351 206.03 282.261 205.022 283.605 205.022C284.935 205.022 285.845 206.03 285.845 207.472C285.845 208.914 284.935 209.922 283.605 209.922ZM288.56 211H289.918V207.178C289.918 205.946 290.702 205.05 291.808 205.05C292.802 205.05 293.46 205.806 293.46 206.926V211H294.818V206.66C294.818 204.98 293.782 203.832 292.186 203.832C291.136 203.832 290.296 204.308 289.918 205.19V203.944H288.56V211ZM245.661 231.112C247.257 231.112 248.307 230.286 248.307 228.998C248.307 225.778 244.275 227.57 244.275 225.82C244.275 225.274 244.765 224.91 245.493 224.91C246.095 224.91 246.879 225.232 246.977 226.044H248.251C248.181 224.714 247.089 223.832 245.493 223.832C244.023 223.832 242.987 224.644 242.987 225.862C242.987 228.872 246.991 227.15 246.991 229.026C246.991 229.544 246.473 229.978 245.661 229.978C244.751 229.978 244.163 229.516 244.079 228.704H242.805C242.903 230.188 244.009 231.112 245.661 231.112ZM249.789 231H251.147V227.178C251.147 225.946 251.931 225.05 253.037 225.05C254.031 225.05 254.689 225.806 254.689 226.926V231H256.047V226.66C256.047 224.98 255.011 223.832 253.415 223.832C252.365 223.832 251.525 224.308 251.147 225.19V220.99H249.789V231ZM262.825 228.704C262.629 229.502 261.957 229.95 260.921 229.95C259.689 229.95 258.821 229.04 258.709 227.71H264.099C264.113 227.584 264.127 227.36 264.127 227.178C264.127 225.386 262.965 223.832 260.781 223.832C258.611 223.832 257.379 225.456 257.379 227.43C257.379 229.39 258.737 231.112 260.921 231.112C262.657 231.112 263.931 230.16 264.183 228.704H262.825ZM260.781 224.924C261.943 224.924 262.671 225.638 262.755 226.716H258.751C258.961 225.54 259.675 224.924 260.781 224.924ZM270.55 228.704C270.354 229.502 269.682 229.95 268.646 229.95C267.414 229.95 266.546 229.04 266.434 227.71H271.824C271.838 227.584 271.852 227.36 271.852 227.178C271.852 225.386 270.69 223.832 268.506 223.832C266.336 223.832 265.104 225.456 265.104 227.43C265.104 229.39 266.462 231.112 268.646 231.112C270.382 231.112 271.656 230.16 271.908 228.704H270.55ZM268.506 224.924C269.668 224.924 270.396 225.638 270.48 226.716H266.476C266.686 225.54 267.4 224.924 268.506 224.924ZM273.951 221.732V223.944H272.509V225.12H273.951V228.69C273.951 230.132 274.861 231 276.289 231H277.395V229.824H276.401C275.715 229.824 275.309 229.404 275.309 228.648V225.12H277.395V223.944H275.309V221.732H273.951Z" fill="#8E8E93"/>
<rect x="1" y="1" width="118" height="248" rx="14" stroke="#1C1C1E" stroke-width="2"/>
<path d="M35.595 101H37.051V96.912L40.495 91.2H38.871L36.323 95.526L33.789 91.2H32.165L35.595 96.912V101ZM43.2797 101.112C45.3937 101.112 46.9057 99.586 46.9057 97.472C46.9057 95.358 45.3937 93.832 43.2797 93.832C41.1657 93.832 39.6397 95.358 39.6397 97.472C39.6397 99.586 41.1657 101.112 43.2797 101.112ZM43.2797 99.922C41.9357 99.922 41.0257 98.914 41.0257 97.472C41.0257 96.03 41.9357 95.022 43.2797 95.022C44.6097 95.022 45.5197 96.03 45.5197 97.472C45.5197 98.914 44.6097 99.922 43.2797 99.922ZM54.4932 93.944H53.1352V97.766C53.1352 98.998 52.3512 99.894 51.2452 99.894C50.2512 99.894 49.5932 99.138 49.5932 98.018V93.944H48.2352V98.284C48.2352 99.964 49.2712 101.112 50.8672 101.112C51.9172 101.112 52.7572 100.636 53.1352 99.754V101H54.4932V93.944ZM60.3212 95.12V93.944H59.4672C58.4732 93.944 57.9132 94.364 57.5912 95.302V93.944H56.2332V101H57.5912V97.808C57.5912 96.268 58.0112 95.12 59.2992 95.12H60.3212ZM67.4408 93.832C65.7748 93.832 64.5148 94.868 64.4028 96.254H65.6628C65.7048 95.54 66.4188 94.924 67.3988 94.924C68.4908 94.924 69.1068 95.512 69.1068 96.366C69.1068 96.618 68.9528 96.786 68.6308 96.786H67.1608C65.4948 96.786 64.4168 97.626 64.4168 98.984C64.4168 100.244 65.3688 101.112 66.8108 101.112C67.8748 101.112 68.7708 100.608 69.1068 99.852V101H70.4648V96.45C70.4648 94.882 69.2608 93.832 67.4408 93.832ZM67.0768 100.034C66.2928 100.034 65.7608 99.6 65.7608 98.956C65.7608 98.214 66.3628 97.738 67.2868 97.738H69.1068V97.906C69.1068 99.208 68.3648 100.034 67.0768 100.034ZM72.1079 103.856H73.4659V100.006C73.8719 100.678 74.7119 101.112 75.6499 101.112C77.7919 101.112 79.0659 99.572 79.0659 97.472C79.0659 95.372 77.8479 93.832 75.7199 93.832C74.7399 93.832 73.8859 94.294 73.4659 94.994V93.944H72.1079V103.856ZM75.5239 99.922C74.2079 99.922 73.3539 98.942 73.3539 97.472C73.3539 96.002 74.2079 95.022 75.5239 95.022C76.8259 95.022 77.6939 96.002 77.6939 97.472C77.6939 98.942 76.8259 99.922 75.5239 99.922ZM80.4614 103.856H81.8194V100.006C82.2254 100.678 83.0654 101.112 84.0034 101.112C86.1454 101.112 87.4194 99.572 87.4194 97.472C87.4194 95.372 86.2014 93.832 84.0734 93.832C83.0934 93.832 82.2394 94.294 81.8194 94.994V93.944H80.4614V103.856ZM83.8774 99.922C82.5614 99.922 81.7074 98.942 81.7074 97.472C81.7074 96.002 82.5614 95.022 83.8774 95.022C85.1794 95.022 86.0474 96.002 86.0474 97.472C86.0474 98.942 85.1794 99.922 83.8774 99.922ZM30.1932 110.99V112.698H31.7052V110.99H30.1932ZM30.2772 121H31.6352V113.944H30.2772V121ZM35.8314 121.112C37.4274 121.112 38.4774 120.286 38.4774 118.998C38.4774 115.778 34.4454 117.57 34.4454 115.82C34.4454 115.274 34.9354 114.91 35.6634 114.91C36.2654 114.91 37.0494 115.232 37.1474 116.044H38.4214C38.3514 114.714 37.2594 113.832 35.6634 113.832C34.1934 113.832 33.1574 114.644 33.1574 115.862C33.1574 118.872 37.1614 117.15 37.1614 119.026C37.1614 119.544 36.6434 119.978 35.8314 119.978C34.9214 119.978 34.3334 119.516 34.2494 118.704H32.9754C33.0734 120.188 34.1794 121.112 35.8314 121.112ZM46.3491 121.112C48.4631 121.112 49.9751 119.586 49.9751 117.472C49.9751 115.358 48.4631 113.832 46.3491 113.832C44.2351 113.832 42.7091 115.358 42.7091 117.472C42.7091 119.586 44.2351 121.112 46.3491 121.112ZM46.3491 119.922C45.0051 119.922 44.0951 118.914 44.0951 117.472C44.0951 116.03 45.0051 115.022 46.3491 115.022C47.6791 115.022 48.5891 116.03 48.5891 117.472C48.5891 118.914 47.6791 119.922 46.3491 119.922ZM51.3745 123.856H52.7325V120.006C53.1385 120.678 53.9785 121.112 54.9165 121.112C57.0585 121.112 58.3325 119.572 58.3325 117.472C58.3325 115.372 57.1145 113.832 54.9865 113.832C54.0065 113.832 53.1525 114.294 52.7325 114.994V113.944H51.3745V123.856ZM54.7905 119.922C53.4745 119.922 52.6205 118.942 52.6205 117.472C52.6205 116.002 53.4745 115.022 54.7905 115.022C56.0925 115.022 56.9605 116.002 56.9605 117.472C56.9605 118.942 56.0925 119.922 54.7905 119.922ZM64.698 118.704C64.502 119.502 63.83 119.95 62.794 119.95C61.562 119.95 60.694 119.04 60.582 117.71H65.972C65.986 117.584 66 117.36 66 117.178C66 115.386 64.838 113.832 62.654 113.832C60.484 113.832 59.252 115.456 59.252 117.43C59.252 119.39 60.61 121.112 62.794 121.112C64.53 121.112 65.804 120.16 66.056 118.704H64.698ZM62.654 114.924C63.816 114.924 64.544 115.638 64.628 116.716H60.624C60.834 115.54 61.548 114.924 62.654 114.924ZM67.3826 121H68.7406V117.178C68.7406 115.946 69.5246 115.05 70.6306 115.05C71.6246 115.05 72.2826 115.806 72.2826 116.926V121H73.6406V116.66C73.6406 114.98 72.6046 113.832 71.0086 113.832C69.9586 113.832 69.1186 114.308 68.7406 115.19V113.944H67.3826V121ZM80.4207 118.704C80.2247 119.502 79.5527 119.95 78.5167 119.95C77.2847 119.95 76.4167 119.04 76.3047 117.71H81.6947C81.7087 117.584 81.7227 117.36 81.7227 117.178C81.7227 115.386 80.5607 113.832 78.3767 113.832C76.2067 113.832 74.9747 115.456 74.9747 117.43C74.9747 119.39 76.3327 121.112 78.5167 121.112C80.2527 121.112 81.5267 120.16 81.7787 118.704H80.4207ZM78.3767 114.924C79.5387 114.924 80.2667 115.638 80.3507 116.716H76.3467C76.5567 115.54 77.2707 114.924 78.3767 114.924ZM86.0873 121.112C87.0253 121.112 87.8933 120.65 88.3133 119.95V121H89.6713V110.99H88.3133V114.98C87.8933 114.294 87.0393 113.832 86.0733 113.832C83.9173 113.832 82.6993 115.372 82.6993 117.472C82.6993 119.572 83.9173 121.112 86.0873 121.112ZM86.2413 119.922C84.9393 119.922 84.0853 118.942 84.0853 117.472C84.0853 116.002 84.9393 115.022 86.2413 115.022C87.5573 115.022 88.4113 116.002 88.4113 117.472C88.4113 118.942 87.5573 119.922 86.2413 119.922ZM48.2455 133.832C46.5795 133.832 45.3195 134.868 45.2075 136.254H46.4675C46.5095 135.54 47.2235 134.924 48.2035 134.924C49.2955 134.924 49.9115 135.512 49.9115 136.366C49.9115 136.618 49.7575 136.786 49.4355 136.786H47.9655C46.2995 136.786 45.2215 137.626 45.2215 138.984C45.2215 140.244 46.1735 141.112 47.6155 141.112C48.6795 141.112 49.5755 140.608 49.9115 139.852V141H51.2695V136.45C51.2695 134.882 50.0655 133.832 48.2455 133.832ZM47.8815 140.034C47.0975 140.034 46.5655 139.6 46.5655 138.956C46.5655 138.214 47.1675 137.738 48.0915 137.738H49.9115V137.906C49.9115 139.208 49.1695 140.034 47.8815 140.034ZM53.4222 141H54.7802V135.12H56.9082V133.944H54.7802V133.3C54.7802 132.6 55.2002 132.166 55.8442 132.166H56.9082V130.99H55.7462C54.3322 130.99 53.4222 131.872 53.4222 133.258V133.944H51.9802V135.12H53.4222V141ZM58.8909 131.732V133.944H57.4489V135.12H58.8909V138.69C58.8909 140.132 59.8009 141 61.2289 141H62.3349V139.824H61.3409C60.6549 139.824 60.2489 139.404 60.2489 138.648V135.12H62.3349V133.944H60.2489V131.732H58.8909ZM68.3689 138.704C68.1729 139.502 67.5009 139.95 66.4649 139.95C65.2329 139.95 64.3649 139.04 64.2529 137.71H69.6429C69.6569 137.584 69.6709 137.36 69.6709 137.178C69.6709 135.386 68.5089 133.832 66.3249 133.832C64.1549 133.832 62.9229 135.456 62.9229 137.43C62.9229 139.39 64.2809 141.112 66.4649 141.112C68.2009 141.112 69.4749 140.16 69.7269 138.704H68.3689ZM66.3249 134.924C67.4869 134.924 68.2149 135.638 68.2989 136.716H64.2949C64.5049 135.54 65.2189 134.924 66.3249 134.924ZM75.1415 135.12V133.944H74.2875C73.2935 133.944 72.7335 134.364 72.4115 135.302V133.944H71.0535V141H72.4115V137.808C72.4115 136.268 72.8315 135.12 74.1195 135.12H75.1415ZM32.0736 151.732V153.944H30.6316V155.12H32.0736V158.69C32.0736 160.132 32.9836 161 34.4116 161H35.5176V159.824H34.5236C33.8376 159.824 33.4316 159.404 33.4316 158.648V155.12H35.5176V153.944H33.4316V151.732H32.0736ZM36.9234 161H38.2814V157.178C38.2814 155.946 39.0654 155.05 40.1714 155.05C41.1654 155.05 41.8234 155.806 41.8234 156.926V161H43.1814V156.66C43.1814 154.98 42.1454 153.832 40.5494 153.832C39.4994 153.832 38.6594 154.308 38.2814 155.19V150.99H36.9234V161ZM49.9598 158.704C49.7638 159.502 49.0918 159.95 48.0558 159.95C46.8238 159.95 45.9558 159.04 45.8438 157.71H51.2338C51.2478 157.584 51.2618 157.36 51.2618 157.178C51.2618 155.386 50.0998 153.832 47.9158 153.832C45.7458 153.832 44.5138 155.456 44.5138 157.43C44.5138 159.39 45.8718 161.112 48.0558 161.112C49.7918 161.112 51.0658 160.16 51.3178 158.704H49.9598ZM47.9158 154.924C49.0778 154.924 49.8058 155.638 49.8898 156.716H45.8858C46.0958 155.54 46.8098 154.924 47.9158 154.924ZM58.9649 161.112C60.7569 161.112 62.0169 160.104 62.2409 158.62H60.8969C60.6729 159.418 59.9589 159.922 58.9929 159.922C57.5929 159.922 56.8789 158.83 56.8789 157.472C56.8789 156.114 57.5789 155.022 58.9929 155.022C59.9449 155.022 60.7569 155.61 60.8829 156.408H62.2409C62.0449 154.812 60.6169 153.832 58.9649 153.832C56.7389 153.832 55.4649 155.526 55.4649 157.472C55.4649 159.418 56.7389 161.112 58.9649 161.112ZM67.6152 155.12V153.944H66.7612C65.7672 153.944 65.2072 154.364 64.8852 155.302V153.944H63.5272V161H64.8852V157.808C64.8852 156.268 65.3052 155.12 66.5932 155.12H67.6152ZM71.2757 153.832C69.6097 153.832 68.3497 154.868 68.2377 156.254H69.4977C69.5397 155.54 70.2537 154.924 71.2337 154.924C72.3257 154.924 72.9417 155.512 72.9417 156.366C72.9417 156.618 72.7877 156.786 72.4657 156.786H70.9957C69.3297 156.786 68.2517 157.626 68.2517 158.984C68.2517 160.244 69.2037 161.112 70.6457 161.112C71.7097 161.112 72.6057 160.608 72.9417 159.852V161H74.2997V156.45C74.2997 154.882 73.0957 153.832 71.2757 153.832ZM70.9117 160.034C70.1277 160.034 69.5957 159.6 69.5957 158.956C69.5957 158.214 70.1977 157.738 71.1217 157.738H72.9417V157.906C72.9417 159.208 72.1997 160.034 70.9117 160.034ZM78.3509 161.112C79.9469 161.112 80.9969 160.286 80.9969 158.998C80.9969 155.778 76.9649 157.57 76.9649 155.82C76.9649 155.274 77.4549 154.91 78.1829 154.91C78.7849 154.91 79.5689 155.232 79.6669 156.044H80.9409C80.8709 154.714 79.7789 153.832 78.1829 153.832C76.7129 153.832 75.6769 154.644 75.6769 155.862C75.6769 158.872 79.6809 157.15 79.6809 159.026C79.6809 159.544 79.1629 159.978 78.3509 159.978C77.4409 159.978 76.8529 159.516 76.7689 158.704H75.4949C75.5929 160.188 76.6989 161.112 78.3509 161.112ZM82.478 161H83.836V157.178C83.836 155.946 84.62 155.05 85.726 155.05C86.72 155.05 87.378 155.806 87.378 156.926V161H88.736V156.66C88.736 154.98 87.7 153.832 86.104 153.832C85.054 153.832 84.214 154.308 83.836 155.19V150.99H82.478V161Z" fill="#8E8E93"/>
<defs>
<clipPath id="clip0_325_313">
<rect width="18" height="21.2727" fill="white" transform="translate(488 14)"/>
</clipPath>
<clipPath id="clip1_325_313">
<rect width="18" height="21.2727" fill="white" transform="translate(288 174)"/>
</clipPath>
</defs>
</svg>
