<svg width="520" height="770" viewBox="0 0 520 770" fill="none" xmlns="http://www.w3.org/2000/svg">
<path d="M246.85 651.112C249.118 651.112 250.868 649.768 251.078 647.85H249.608C249.454 648.998 248.292 649.824 246.836 649.824C244.932 649.824 243.56 648.522 243.56 646.1C243.56 643.678 244.932 642.376 246.836 642.376C248.264 642.376 249.412 643.202 249.58 644.35H251.106C250.84 642.432 249.076 641.088 246.85 641.088C244.358 641.088 242.062 642.74 242.062 646.1C242.062 649.46 244.33 651.112 246.85 651.112ZM256.493 645.12V643.944H255.639C254.645 643.944 254.085 644.364 253.763 645.302V643.944H252.405V651H253.763V647.808C253.763 646.268 254.183 645.12 255.471 645.12H256.493ZM260.154 643.832C258.488 643.832 257.228 644.868 257.116 646.254H258.376C258.418 645.54 259.132 644.924 260.112 644.924C261.204 644.924 261.82 645.512 261.82 646.366C261.82 646.618 261.666 646.786 261.344 646.786H259.874C258.208 646.786 257.13 647.626 257.13 648.984C257.13 650.244 258.082 651.112 259.524 651.112C260.588 651.112 261.484 650.608 261.82 649.852V651H263.178V646.45C263.178 644.882 261.974 643.832 260.154 643.832ZM259.79 650.034C259.006 650.034 258.474 649.6 258.474 648.956C258.474 648.214 259.076 647.738 260 647.738H261.82V647.906C261.82 649.208 261.078 650.034 259.79 650.034ZM267.229 651.112C268.825 651.112 269.875 650.286 269.875 648.998C269.875 645.778 265.843 647.57 265.843 645.82C265.843 645.274 266.333 644.91 267.061 644.91C267.663 644.91 268.447 645.232 268.545 646.044H269.819C269.749 644.714 268.657 643.832 267.061 643.832C265.591 643.832 264.555 644.644 264.555 645.862C264.555 648.872 268.559 647.15 268.559 649.026C268.559 649.544 268.041 649.978 267.229 649.978C266.319 649.978 265.731 649.516 265.647 648.704H264.373C264.471 650.188 265.577 651.112 267.229 651.112ZM271.356 651H272.714V647.178C272.714 645.946 273.498 645.05 274.604 645.05C275.598 645.05 276.256 645.806 276.256 646.926V651H277.614V646.66C277.614 644.98 276.578 643.832 274.982 643.832C273.932 643.832 273.092 644.308 272.714 645.19V640.99H271.356V651Z" fill="#8E8E93"/>
<rect x="201" y="521" width="118" height="248" rx="14" stroke="#48484A" stroke-width="2"/>
<g clip-path="url(#clip0_1794_4311)">
<path d="M289.994 553.842H300.559C302.051 553.818 303.232 553.123 303.794 552.039C304.443 550.826 304.209 549.311 303.344 548.263C301.302 545.788 299.266 543.314 297.224 540.84C296.897 540.433 296.95 539.826 297.347 539.49L303.578 534.241L304.367 535.101L298.447 540.315L304.326 547.438C305.491 548.84 305.795 550.831 305.005 552.487C304.28 554.013 302.712 555.073 300.682 555.073L290 555.085C289.66 555.085 289.385 554.808 289.385 554.466V554.455C289.38 554.119 289.655 553.842 289.994 553.842Z" fill="#B89EFF"/>
<path d="M289.859 553.854L300.6 551.857C301.138 551.745 301.542 551.362 301.729 550.843C301.905 550.313 301.805 549.771 301.454 549.341C298.921 546.26 296.4 543.202 293.867 540.109C293.615 539.803 293.527 539.426 293.615 539.025C293.715 538.636 293.954 538.342 294.329 538.177L303.782 534.047L304.122 535.261L295.107 539.214C295.042 539.237 294.996 539.29 294.984 539.355C294.961 539.42 294.984 539.485 295.031 539.544C297.499 542.536 299.945 545.506 302.413 548.504C303.08 549.323 303.303 550.26 302.952 551.279C302.636 552.228 301.899 552.911 300.922 553.1L292.433 554.679L289.859 553.854Z" fill="#A17FFF"/>
<path d="M304.075 535.266L293.334 537.264C292.784 537.376 292.381 537.747 292.205 538.277C292.03 538.807 292.129 539.349 292.48 539.779C295.013 542.861 297.534 545.918 300.068 549.005C300.319 549.323 300.407 549.7 300.319 550.101C300.22 550.49 299.968 550.785 299.605 550.949L290.152 555.079L289.812 553.866L298.827 549.913C298.88 549.889 298.927 549.836 298.95 549.771C298.962 549.706 298.95 549.642 298.909 549.583C293.556 543.096 296.253 546.36 291.527 540.622C290.86 539.803 290.637 538.866 290.988 537.847C291.304 536.898 292.03 536.215 293.018 536.026L303.659 534.029L304.075 535.266Z" fill="#794FEC"/>
<path d="M303.934 535.278H293.369C291.877 535.302 290.702 535.997 290.134 537.069C289.497 538.295 289.731 539.809 290.596 540.857C292.638 543.332 294.674 545.806 296.715 548.281C297.043 548.687 296.99 549.294 296.587 549.63L290.368 554.879L289.578 554.019L295.493 548.805L289.619 541.67C288.455 540.268 288.151 538.277 288.941 536.622C289.66 535.102 291.234 534.041 293.252 534.041L303.934 534.029C304.274 534.029 304.56 534.306 304.56 534.648V534.66C304.56 535.001 304.274 535.278 303.934 535.278Z" fill="#562EC2"/>
<path d="M296.037 550.089L290.362 554.873L289.573 554.007L294.762 549.436L296.037 550.089Z" fill="#562EC2"/>
<path d="M297.845 551.721L290.158 555.079L289.818 553.866L297.178 550.637L297.845 551.721Z" fill="#794FEC"/>
<path d="M289.859 553.854L298.459 552.251L298.786 553.477L292.428 554.673L289.859 553.854Z" fill="#A17FFF"/>
<path d="M289.994 553.842H298.892C298.991 554.237 299.044 554.661 299.044 555.079L289.994 555.091C289.655 555.091 289.38 554.814 289.38 554.473V554.461C289.38 554.119 289.655 553.842 289.994 553.842Z" fill="#B89EFF"/>
</g>
<path d="M243.978 121H245.49L241.64 111.2H240.296L236.446 121H237.944L238.882 118.508H243.04L243.978 121ZM239.372 117.234L240.968 113.02L242.564 117.234H239.372ZM249.429 121.112C251.221 121.112 252.481 120.104 252.705 118.62H251.361C251.137 119.418 250.423 119.922 249.457 119.922C248.057 119.922 247.343 118.83 247.343 117.472C247.343 116.114 248.043 115.022 249.457 115.022C250.409 115.022 251.221 115.61 251.347 116.408H252.705C252.509 114.812 251.081 113.832 249.429 113.832C247.203 113.832 245.929 115.526 245.929 117.472C245.929 119.418 247.203 121.112 249.429 121.112ZM254.707 111.732V113.944H253.265V115.12H254.707V118.69C254.707 120.132 255.617 121 257.045 121H258.151V119.824H257.157C256.471 119.824 256.065 119.404 256.065 118.648V115.12H258.151V113.944H256.065V111.732H254.707ZM259.225 110.99V112.698H260.737V110.99H259.225ZM259.309 121H260.667V113.944H259.309V121ZM264.261 121H265.605L268.181 113.944H266.781L264.919 119.292L263.071 113.944H261.671L264.261 121ZM269.124 110.99V112.698H270.636V110.99H269.124ZM269.208 121H270.566V113.944H269.208V121ZM273.096 111.732V113.944H271.654V115.12H273.096V118.69C273.096 120.132 274.006 121 275.434 121H276.54V119.824H275.546C274.86 119.824 274.454 119.404 274.454 118.648V115.12H276.54V113.944H274.454V111.732H273.096ZM283.494 113.944H282.094L280.232 119.236L278.384 113.944H276.984L279.602 121.07L278.65 123.856H279.952L281.016 120.748L283.494 113.944ZM239.412 141H240.77V137.178C240.77 135.946 241.554 135.05 242.66 135.05C243.654 135.05 244.312 135.806 244.312 136.926V141H245.67V136.66C245.67 134.98 244.634 133.832 243.038 133.832C241.988 133.832 241.148 134.308 240.77 135.19V130.99H239.412V141ZM247.324 130.99V132.698H248.836V130.99H247.324ZM247.408 141H248.766V133.944H247.408V141ZM252.962 141.112C254.558 141.112 255.608 140.286 255.608 138.998C255.608 135.778 251.576 137.57 251.576 135.82C251.576 135.274 252.066 134.91 252.794 134.91C253.396 134.91 254.18 135.232 254.278 136.044H255.552C255.482 134.714 254.39 133.832 252.794 133.832C251.324 133.832 250.288 134.644 250.288 135.862C250.288 138.872 254.292 137.15 254.292 139.026C254.292 139.544 253.774 139.978 252.962 139.978C252.052 139.978 251.464 139.516 251.38 138.704H250.106C250.204 140.188 251.31 141.112 252.962 141.112ZM257.736 131.732V133.944H256.294V135.12H257.736V138.69C257.736 140.132 258.646 141 260.074 141H261.18V139.824H260.186C259.5 139.824 259.094 139.404 259.094 138.648V135.12H261.18V133.944H259.094V131.732H257.736ZM265.408 141.112C267.522 141.112 269.034 139.586 269.034 137.472C269.034 135.358 267.522 133.832 265.408 133.832C263.294 133.832 261.768 135.358 261.768 137.472C261.768 139.586 263.294 141.112 265.408 141.112ZM265.408 139.922C264.064 139.922 263.154 138.914 263.154 137.472C263.154 136.03 264.064 135.022 265.408 135.022C266.738 135.022 267.648 136.03 267.648 137.472C267.648 138.914 266.738 139.922 265.408 139.922ZM274.451 135.12V133.944H273.597C272.603 133.944 272.043 134.364 271.721 135.302V133.944H270.363V141H271.721V137.808C271.721 136.268 272.141 135.12 273.429 135.12H274.451ZM281.368 133.944H279.968L278.106 139.236L276.258 133.944H274.858L277.476 141.07L276.524 143.856H277.826L278.89 140.748L281.368 133.944Z" fill="#8E8E93"/>
<rect x="201" y="1" width="118" height="248" rx="14" stroke="#48484A" stroke-width="2"/>
<g clip-path="url(#clip1_1794_4311)">
<path d="M289.994 33.842H300.559C302.051 33.8184 303.232 33.1232 303.794 32.0392C304.443 30.8256 304.209 29.3115 303.344 28.2628C301.302 25.7884 299.266 23.314 297.224 20.8396C296.897 20.4331 296.95 19.8263 297.347 19.4905L303.578 14.2412L304.367 15.1014L298.447 20.3153L304.326 27.438C305.491 28.8402 305.795 30.8315 305.005 32.487C304.28 34.0128 302.712 35.0733 300.682 35.0733L290 35.0851C289.66 35.0851 289.385 34.8082 289.385 34.4665V34.4547C289.38 34.1189 289.655 33.842 289.994 33.842Z" fill="#B89EFF"/>
<path d="M289.859 33.8539L300.6 31.8567C301.138 31.7447 301.542 31.3618 301.729 30.8433C301.905 30.3131 301.805 29.7711 301.454 29.341C298.921 26.2598 296.4 23.2022 293.867 20.1092C293.615 19.8028 293.527 19.4257 293.615 19.0251C293.715 18.6363 293.954 18.3417 294.329 18.1768L303.782 14.0469L304.122 15.2605L295.107 19.2137C295.042 19.2372 294.996 19.2902 294.984 19.3551C294.961 19.4199 294.984 19.4847 295.031 19.5436C297.499 22.5364 299.945 25.5057 302.413 28.5044C303.08 29.3233 303.303 30.2601 302.952 31.2793C302.636 32.2278 301.899 32.9112 300.922 33.0998L292.433 34.6787L289.859 33.8539Z" fill="#A17FFF"/>
<path d="M304.075 15.2665L293.334 17.2637C292.784 17.3756 292.381 17.7468 292.205 18.277C292.03 18.8072 292.129 19.3493 292.48 19.7793C295.013 22.8605 297.534 25.9182 300.068 29.0053C300.319 29.3234 300.407 29.7005 300.319 30.1011C300.22 30.4899 299.968 30.7845 299.605 30.9495L290.152 35.0794L289.812 33.8657L298.827 29.9126C298.88 29.889 298.927 29.836 298.95 29.7712C298.962 29.7064 298.95 29.6416 298.909 29.5827C293.556 23.0962 296.253 26.3601 291.527 20.6218C290.86 19.8029 290.637 18.8662 290.988 17.8469C291.304 16.8984 292.03 16.215 293.018 16.0265L303.659 14.0293L304.075 15.2665Z" fill="#794FEC"/>
<path d="M303.934 15.2783H293.369C291.877 15.3018 290.702 15.997 290.134 17.0693C289.497 18.2947 289.731 19.8088 290.596 20.8575C292.638 23.3319 294.674 25.8063 296.715 28.2807C297.043 28.6872 296.99 29.294 296.587 29.6298L290.368 34.8791L289.578 34.0189L295.493 28.805L289.619 21.6705C288.455 20.2683 288.151 18.277 288.941 16.6215C289.66 15.1015 291.234 14.0411 293.252 14.0411L303.934 14.0293C304.274 14.0293 304.56 14.3062 304.56 14.6479V14.6597C304.56 15.0014 304.274 15.2783 303.934 15.2783Z" fill="#562EC2"/>
<path d="M296.037 30.0895L290.362 34.8733L289.573 34.0073L294.762 29.4355L296.037 30.0895Z" fill="#562EC2"/>
<path d="M297.845 31.7212L290.158 35.0793L289.818 33.8657L297.178 30.6372L297.845 31.7212Z" fill="#794FEC"/>
<path d="M289.859 33.8539L298.459 32.2515L298.786 33.4769L292.428 34.6728L289.859 33.8539Z" fill="#A17FFF"/>
<path d="M289.994 33.8423H298.892C298.991 34.237 299.044 34.6612 299.044 35.0795L289.994 35.0913C289.655 35.0913 289.38 34.8144 289.38 34.4727V34.4609C289.38 34.1192 289.655 33.8423 289.994 33.8423Z" fill="#B89EFF"/>
</g>
<path d="M37.4783 391H38.9343V381.2H37.4783V391ZM40.7976 391H42.1556V387.178C42.1556 385.946 42.9396 385.05 44.0456 385.05C45.0396 385.05 45.6976 385.806 45.6976 386.926V391H47.0556V386.66C47.0556 384.98 46.0196 383.832 44.4236 383.832C43.3736 383.832 42.5336 384.308 42.1556 385.19V383.944H40.7976V391ZM51.2736 391.112C52.8696 391.112 53.9196 390.286 53.9196 388.998C53.9196 385.778 49.8876 387.57 49.8876 385.82C49.8876 385.274 50.3776 384.91 51.1056 384.91C51.7076 384.91 52.4916 385.232 52.5896 386.044H53.8636C53.7936 384.714 52.7016 383.832 51.1056 383.832C49.6356 383.832 48.5996 384.644 48.5996 385.862C48.5996 388.872 52.6036 387.15 52.6036 389.026C52.6036 389.544 52.0856 389.978 51.2736 389.978C50.3636 389.978 49.7756 389.516 49.6916 388.704H48.4176C48.5156 390.188 49.6216 391.112 51.2736 391.112ZM55.4008 393.856H56.7588V390.006C57.1648 390.678 58.0048 391.112 58.9428 391.112C61.0848 391.112 62.3588 389.572 62.3588 387.472C62.3588 385.372 61.1408 383.832 59.0128 383.832C58.0328 383.832 57.1788 384.294 56.7588 384.994V383.944H55.4008V393.856ZM58.8168 389.922C57.5008 389.922 56.6468 388.942 56.6468 387.472C56.6468 386.002 57.5008 385.022 58.8168 385.022C60.1188 385.022 60.9868 386.002 60.9868 387.472C60.9868 388.942 60.1188 389.922 58.8168 389.922ZM68.7243 388.704C68.5283 389.502 67.8563 389.95 66.8203 389.95C65.5883 389.95 64.7203 389.04 64.6083 387.71H69.9983C70.0123 387.584 70.0263 387.36 70.0263 387.178C70.0263 385.386 68.8643 383.832 66.6803 383.832C64.5103 383.832 63.2783 385.456 63.2783 387.43C63.2783 389.39 64.6363 391.112 66.8203 391.112C68.5563 391.112 69.8303 390.16 70.0823 388.704H68.7243ZM66.6803 384.924C67.8423 384.924 68.5703 385.638 68.6543 386.716H64.6503C64.8603 385.54 65.5743 384.924 66.6803 384.924ZM74.5029 391.112C76.2949 391.112 77.5549 390.104 77.7789 388.62H76.4349C76.2109 389.418 75.4969 389.922 74.5309 389.922C73.1309 389.922 72.4169 388.83 72.4169 387.472C72.4169 386.114 73.1169 385.022 74.5309 385.022C75.4829 385.022 76.2949 385.61 76.4209 386.408H77.7789C77.5829 384.812 76.1549 383.832 74.5029 383.832C72.2769 383.832 71.0029 385.526 71.0029 387.472C71.0029 389.418 72.2769 391.112 74.5029 391.112ZM79.7814 381.732V383.944H78.3394V385.12H79.7814V388.69C79.7814 390.132 80.6914 391 82.1194 391H83.2254V389.824H82.2314C81.5454 389.824 81.1394 389.404 81.1394 388.648V385.12H83.2254V383.944H81.1394V381.732H79.7814Z" fill="#8E8E93"/>
<rect x="0.999878" y="261" width="118" height="248" rx="14" stroke="#48484A" stroke-width="2"/>
<path d="M119 384C118.448 384 118 384.448 118 385C118 385.552 118.448 386 119 386V384ZM185.707 385.707C186.098 385.317 186.098 384.683 185.707 384.293L179.343 377.929C178.953 377.538 178.319 377.538 177.929 377.929C177.538 378.319 177.538 378.953 177.929 379.343L183.586 385L177.929 390.657C177.538 391.047 177.538 391.681 177.929 392.071C178.319 392.462 178.953 392.462 179.343 392.071L185.707 385.707ZM119 386H185V384H119V386Z" fill="#48484A"/>
<g clip-path="url(#clip2_1794_4311)">
<path d="M89.9939 293.842H100.559C102.051 293.818 103.232 293.123 103.794 292.039C104.443 290.826 104.209 289.311 103.344 288.263C101.302 285.788 99.2661 283.314 97.2245 280.84C96.8969 280.433 96.9495 279.826 97.3473 279.49L103.578 274.241L104.367 275.101L98.4471 280.315L104.326 287.438C105.491 288.84 105.795 290.831 105.005 292.487C104.28 294.013 102.712 295.073 100.682 295.073L89.9997 295.085C89.6604 295.085 89.3855 294.808 89.3855 294.466V294.455C89.3796 294.119 89.6546 293.842 89.9939 293.842Z" fill="#B89EFF"/>
<path d="M89.8594 293.854L100.6 291.857C101.138 291.745 101.542 291.362 101.729 290.843C101.905 290.313 101.805 289.771 101.454 289.341C98.921 286.26 96.3997 283.202 93.8666 280.109C93.6151 279.803 93.5273 279.426 93.6151 279.025C93.7145 278.636 93.9544 278.342 94.3288 278.177L103.782 274.047L104.122 275.261L95.1068 279.214C95.0425 279.237 94.9957 279.29 94.984 279.355C94.9606 279.42 94.984 279.485 95.0308 279.544C97.4995 282.536 99.9448 285.506 102.413 288.504C103.08 289.323 103.303 290.26 102.952 291.279C102.636 292.228 101.899 292.911 100.922 293.1L92.4334 294.679L89.8594 293.854Z" fill="#A17FFF"/>
<path d="M104.075 275.266L93.3342 277.264C92.7843 277.376 92.3806 277.747 92.2051 278.277C92.0296 278.807 92.1291 279.349 92.4801 279.779C95.0131 282.861 97.5345 285.918 100.068 289.005C100.319 289.323 100.407 289.7 100.319 290.101C100.22 290.49 99.9681 290.785 99.6054 290.949L90.1518 295.079L89.8125 293.866L98.8273 289.913C98.88 289.889 98.9268 289.836 98.9502 289.771C98.9619 289.706 98.9502 289.642 98.9092 289.583C93.5565 283.096 96.2533 286.36 91.5265 280.622C90.8596 279.803 90.6373 278.866 90.9883 277.847C91.3042 276.898 92.0296 276.215 93.0183 276.026L103.659 274.029L104.075 275.266Z" fill="#794FEC"/>
<path d="M103.934 275.278H93.3692C91.8775 275.302 90.7016 275.997 90.1342 277.069C89.4965 278.295 89.7305 279.809 90.5963 280.857C92.638 283.332 94.6738 285.806 96.7154 288.281C97.043 288.687 96.9904 289.294 96.5867 289.63L90.3682 294.879L89.5784 294.019L95.4928 288.805L89.6194 281.67C88.4552 280.268 88.151 278.277 88.9408 276.622C89.6603 275.102 91.234 274.041 93.2522 274.041L103.934 274.029C104.274 274.029 104.56 274.306 104.56 274.648V274.66C104.56 275.001 104.274 275.278 103.934 275.278Z" fill="#562EC2"/>
<path d="M96.0369 290.089L90.3624 294.873L89.5726 294.007L94.7616 289.436L96.0369 290.089Z" fill="#562EC2"/>
<path d="M97.8446 291.721L90.1577 295.079L89.8184 293.866L97.1777 290.637L97.8446 291.721Z" fill="#794FEC"/>
<path d="M89.8594 293.854L98.4589 292.251L98.7865 293.477L92.4275 294.673L89.8594 293.854Z" fill="#A17FFF"/>
<path d="M89.9939 293.842H98.8917C98.9912 294.237 99.0438 294.661 99.0438 295.079L89.9939 295.091C89.6546 295.091 89.3796 294.814 89.3796 294.473V294.461C89.3796 294.119 89.6546 293.842 89.9939 293.842Z" fill="#B89EFF"/>
</g>
<path d="M230.868 381H232.254V373.706L235.194 381H236.37L239.296 373.706V381H240.696V371.2H238.904L235.782 379.012L232.66 371.2H230.868V381ZM247.594 378.704C247.398 379.502 246.726 379.95 245.69 379.95C244.458 379.95 243.59 379.04 243.478 377.71H248.868C248.882 377.584 248.896 377.36 248.896 377.178C248.896 375.386 247.734 373.832 245.55 373.832C243.38 373.832 242.148 375.456 242.148 377.43C242.148 379.39 243.506 381.112 245.69 381.112C247.426 381.112 248.7 380.16 248.952 378.704H247.594ZM245.55 374.924C246.712 374.924 247.44 375.638 247.524 376.716H243.52C243.73 375.54 244.444 374.924 245.55 374.924ZM250.995 371.732V373.944H249.553V375.12H250.995V378.69C250.995 380.132 251.905 381 253.333 381H254.439V379.824H253.445C252.759 379.824 252.353 379.404 252.353 378.648V375.12H254.439V373.944H252.353V371.732H250.995ZM258.164 373.832C256.498 373.832 255.238 374.868 255.126 376.254H256.386C256.428 375.54 257.142 374.924 258.122 374.924C259.214 374.924 259.83 375.512 259.83 376.366C259.83 376.618 259.676 376.786 259.354 376.786H257.884C256.218 376.786 255.14 377.626 255.14 378.984C255.14 380.244 256.092 381.112 257.534 381.112C258.598 381.112 259.494 380.608 259.83 379.852V381H261.188V376.45C261.188 374.882 259.984 373.832 258.164 373.832ZM257.8 380.034C257.016 380.034 256.484 379.6 256.484 378.956C256.484 378.214 257.086 377.738 258.01 377.738H259.83V377.906C259.83 379.208 259.088 380.034 257.8 380.034ZM265.743 381.112C266.681 381.112 267.549 380.65 267.969 379.95V381H269.327V370.99H267.969V374.98C267.549 374.294 266.695 373.832 265.729 373.832C263.573 373.832 262.355 375.372 262.355 377.472C262.355 379.572 263.573 381.112 265.743 381.112ZM265.897 379.922C264.595 379.922 263.741 378.942 263.741 377.472C263.741 376.002 264.595 375.022 265.897 375.022C267.213 375.022 268.067 376.002 268.067 377.472C268.067 378.942 267.213 379.922 265.897 379.922ZM273.887 373.832C272.221 373.832 270.961 374.868 270.849 376.254H272.109C272.151 375.54 272.865 374.924 273.845 374.924C274.937 374.924 275.553 375.512 275.553 376.366C275.553 376.618 275.399 376.786 275.077 376.786H273.607C271.941 376.786 270.863 377.626 270.863 378.984C270.863 380.244 271.815 381.112 273.257 381.112C274.321 381.112 275.217 380.608 275.553 379.852V381H276.911V376.45C276.911 374.882 275.707 373.832 273.887 373.832ZM273.523 380.034C272.739 380.034 272.207 379.6 272.207 378.956C272.207 378.214 272.809 377.738 273.733 377.738H275.553V377.906C275.553 379.208 274.811 380.034 273.523 380.034ZM279.228 371.732V373.944H277.786V375.12H279.228V378.69C279.228 380.132 280.138 381 281.566 381H282.672V379.824H281.678C280.992 379.824 280.586 379.404 280.586 378.648V375.12H282.672V373.944H280.586V371.732H279.228ZM286.397 373.832C284.731 373.832 283.471 374.868 283.359 376.254H284.619C284.661 375.54 285.375 374.924 286.355 374.924C287.447 374.924 288.063 375.512 288.063 376.366C288.063 376.618 287.909 376.786 287.587 376.786H286.117C284.451 376.786 283.373 377.626 283.373 378.984C283.373 380.244 284.325 381.112 285.767 381.112C286.831 381.112 287.727 380.608 288.063 379.852V381H289.421V376.45C289.421 374.882 288.217 373.832 286.397 373.832ZM286.033 380.034C285.249 380.034 284.717 379.6 284.717 378.956C284.717 378.214 285.319 377.738 286.243 377.738H288.063V377.906C288.063 379.208 287.321 380.034 286.033 380.034ZM238.128 393.832C236.462 393.832 235.202 394.868 235.09 396.254H236.35C236.392 395.54 237.106 394.924 238.086 394.924C239.178 394.924 239.794 395.512 239.794 396.366C239.794 396.618 239.64 396.786 239.318 396.786H237.848C236.182 396.786 235.104 397.626 235.104 398.984C235.104 400.244 236.056 401.112 237.498 401.112C238.562 401.112 239.458 400.608 239.794 399.852V401H241.152V396.45C241.152 394.882 239.948 393.832 238.128 393.832ZM237.764 400.034C236.98 400.034 236.448 399.6 236.448 398.956C236.448 398.214 237.05 397.738 237.974 397.738H239.794V397.906C239.794 399.208 239.052 400.034 237.764 400.034ZM242.725 401H244.083V397.178C244.083 395.946 244.867 395.05 245.973 395.05C246.967 395.05 247.625 395.806 247.625 396.926V401H248.983V396.66C248.983 394.98 247.947 393.832 246.351 393.832C245.301 393.832 244.461 394.308 244.083 395.19V393.944H242.725V401ZM253.705 401.112C254.643 401.112 255.511 400.65 255.931 399.95V401H257.289V390.99H255.931V394.98C255.511 394.294 254.657 393.832 253.691 393.832C251.535 393.832 250.317 395.372 250.317 397.472C250.317 399.572 251.535 401.112 253.705 401.112ZM253.859 399.922C252.557 399.922 251.703 398.942 251.703 397.472C251.703 396.002 252.557 395.022 253.859 395.022C255.175 395.022 256.029 396.002 256.029 397.472C256.029 398.942 255.175 399.922 253.859 399.922ZM262.219 390.99V392.698H263.731V390.99H262.219ZM262.303 401H263.661V393.944H262.303V401ZM265.38 401H266.738V397.178C266.738 395.946 267.522 395.05 268.628 395.05C269.622 395.05 270.28 395.806 270.28 396.926V401H271.638V396.66C271.638 394.98 270.602 393.832 269.006 393.832C267.956 393.832 267.116 394.308 266.738 395.19V393.944H265.38V401ZM273.985 401H275.343V395.12H277.471V393.944H275.343V393.3C275.343 392.6 275.763 392.166 276.407 392.166H277.471V390.99H276.309C274.895 390.99 273.985 391.872 273.985 393.258V393.944H272.543V395.12H273.985V401ZM281.424 401.112C283.538 401.112 285.05 399.586 285.05 397.472C285.05 395.358 283.538 393.832 281.424 393.832C279.31 393.832 277.784 395.358 277.784 397.472C277.784 399.586 279.31 401.112 281.424 401.112ZM281.424 399.922C280.08 399.922 279.17 398.914 279.17 397.472C279.17 396.03 280.08 395.022 281.424 395.022C282.754 395.022 283.664 396.03 283.664 397.472C283.664 398.914 282.754 399.922 281.424 399.922Z" fill="#8E8E93"/>
<rect x="201" y="261" width="118" height="248" rx="14" stroke="#48484A" stroke-width="2"/>
<g clip-path="url(#clip3_1794_4311)">
<path d="M289.994 293.842H300.559C302.051 293.818 303.232 293.123 303.794 292.039C304.443 290.826 304.209 289.311 303.344 288.263C301.302 285.788 299.266 283.314 297.224 280.84C296.897 280.433 296.95 279.826 297.347 279.49L303.578 274.241L304.367 275.101L298.447 280.315L304.326 287.438C305.491 288.84 305.795 290.831 305.005 292.487C304.28 294.013 302.712 295.073 300.682 295.073L290 295.085C289.66 295.085 289.385 294.808 289.385 294.466V294.455C289.38 294.119 289.655 293.842 289.994 293.842Z" fill="#B89EFF"/>
<path d="M289.859 293.854L300.6 291.857C301.138 291.745 301.542 291.362 301.729 290.843C301.905 290.313 301.805 289.771 301.454 289.341C298.921 286.26 296.4 283.202 293.867 280.109C293.615 279.803 293.527 279.426 293.615 279.025C293.715 278.636 293.954 278.342 294.329 278.177L303.782 274.047L304.122 275.261L295.107 279.214C295.042 279.237 294.996 279.29 294.984 279.355C294.961 279.42 294.984 279.485 295.031 279.544C297.499 282.536 299.945 285.506 302.413 288.504C303.08 289.323 303.303 290.26 302.952 291.279C302.636 292.228 301.899 292.911 300.922 293.1L292.433 294.679L289.859 293.854Z" fill="#A17FFF"/>
<path d="M304.075 275.266L293.334 277.264C292.784 277.376 292.381 277.747 292.205 278.277C292.03 278.807 292.129 279.349 292.48 279.779C295.013 282.861 297.534 285.918 300.068 289.005C300.319 289.323 300.407 289.7 300.319 290.101C300.22 290.49 299.968 290.785 299.605 290.949L290.152 295.079L289.812 293.866L298.827 289.913C298.88 289.889 298.927 289.836 298.95 289.771C298.962 289.706 298.95 289.642 298.909 289.583C293.556 283.096 296.253 286.36 291.527 280.622C290.86 279.803 290.637 278.866 290.988 277.847C291.304 276.898 292.03 276.215 293.018 276.026L303.659 274.029L304.075 275.266Z" fill="#794FEC"/>
<path d="M303.934 275.278H293.369C291.877 275.302 290.702 275.997 290.134 277.069C289.497 278.295 289.731 279.809 290.596 280.857C292.638 283.332 294.674 285.806 296.715 288.281C297.043 288.687 296.99 289.294 296.587 289.63L290.368 294.879L289.578 294.019L295.493 288.805L289.619 281.67C288.455 280.268 288.151 278.277 288.941 276.622C289.66 275.102 291.234 274.041 293.252 274.041L303.934 274.029C304.274 274.029 304.56 274.306 304.56 274.648V274.66C304.56 275.001 304.274 275.278 303.934 275.278Z" fill="#562EC2"/>
<path d="M296.037 290.089L290.362 294.873L289.573 294.007L294.762 289.436L296.037 290.089Z" fill="#562EC2"/>
<path d="M297.845 291.721L290.158 295.079L289.818 293.866L297.178 290.637L297.845 291.721Z" fill="#794FEC"/>
<path d="M289.859 293.854L298.459 292.251L298.786 293.477L292.428 294.673L289.859 293.854Z" fill="#A17FFF"/>
<path d="M289.994 293.842H298.892C298.991 294.237 299.044 294.661 299.044 295.079L289.994 295.091C289.655 295.091 289.38 294.814 289.38 294.473V294.461C289.38 294.119 289.655 293.842 289.994 293.842Z" fill="#B89EFF"/>
</g>
<path d="M119.898 472.412C119.557 471.978 118.929 471.902 118.494 472.242C118.059 472.583 117.983 473.211 118.324 473.646L119.898 472.412ZM184.769 557.963C185.317 558.03 185.815 557.639 185.882 557.091L186.966 548.157C187.032 547.608 186.642 547.11 186.094 547.043C185.545 546.977 185.047 547.368 184.98 547.916L184.017 555.858L176.075 554.894C175.527 554.828 175.029 555.218 174.962 555.766C174.895 556.315 175.286 556.813 175.834 556.88L184.769 557.963ZM118.324 473.646L184.102 557.588L185.676 556.354L119.898 472.412L118.324 473.646Z" fill="#48484A"/>
<path d="M118.324 296.354C117.983 296.789 118.059 297.417 118.494 297.758C118.929 298.098 119.557 298.022 119.898 297.587L118.324 296.354ZM185.882 212.909C185.815 212.36 185.317 211.97 184.769 212.036L175.834 213.12C175.286 213.187 174.896 213.685 174.962 214.233C175.029 214.782 175.527 215.172 176.075 215.106L184.017 214.142L184.98 222.084C185.047 222.632 185.545 223.023 186.094 222.956C186.642 222.89 187.032 222.392 186.966 221.843L185.882 212.909ZM119.898 297.587L185.676 213.646L184.102 212.412L118.324 296.354L119.898 297.587Z" fill="#48484A"/>
<rect x="401" y="1" width="118" height="248" rx="14" stroke="#48484A" stroke-width="2"/>
<g clip-path="url(#clip4_1794_4311)">
<path d="M489.994 33.842H500.559C502.051 33.8184 503.233 33.1232 503.794 32.0392C504.443 30.8256 504.209 29.3115 503.344 28.2628C501.302 25.7884 499.266 23.314 497.225 20.8396C496.897 20.4331 496.95 19.8263 497.347 19.4905L503.578 14.2412L504.367 15.1014L498.447 20.3153L504.326 27.438C505.491 28.8402 505.795 30.8315 505.005 32.487C504.28 34.0128 502.712 35.0733 500.682 35.0733L490 35.0851C489.661 35.0851 489.386 34.8082 489.386 34.4665V34.4547C489.38 34.1189 489.655 33.842 489.994 33.842Z" fill="#B89EFF"/>
<path d="M489.859 33.8539L500.6 31.8567C501.138 31.7447 501.542 31.3618 501.729 30.8433C501.905 30.3131 501.805 29.7711 501.454 29.341C498.921 26.2598 496.4 23.2022 493.867 20.1092C493.615 19.8028 493.527 19.4257 493.615 19.0251C493.715 18.6363 493.954 18.3417 494.329 18.1768L503.782 14.0469L504.122 15.2605L495.107 19.2137C495.042 19.2372 494.996 19.2902 494.984 19.3551C494.961 19.4199 494.984 19.4847 495.031 19.5436C497.499 22.5364 499.945 25.5057 502.413 28.5044C503.08 29.3233 503.303 30.2601 502.952 31.2793C502.636 32.2278 501.899 32.9112 500.922 33.0998L492.433 34.6787L489.859 33.8539Z" fill="#A17FFF"/>
<path d="M504.075 15.2665L493.334 17.2637C492.784 17.3756 492.381 17.7468 492.205 18.277C492.03 18.8072 492.129 19.3493 492.48 19.7793C495.013 22.8605 497.534 25.9182 500.068 29.0053C500.319 29.3234 500.407 29.7005 500.319 30.1011C500.22 30.4899 499.968 30.7845 499.605 30.9495L490.152 35.0794L489.812 33.8657L498.827 29.9126C498.88 29.889 498.927 29.836 498.95 29.7712C498.962 29.7064 498.95 29.6416 498.909 29.5827C493.556 23.0962 496.253 26.3601 491.527 20.6218C490.86 19.8029 490.637 18.8662 490.988 17.8469C491.304 16.8984 492.03 16.215 493.018 16.0265L503.659 14.0293L504.075 15.2665Z" fill="#794FEC"/>
<path d="M503.934 15.2783H493.369C491.877 15.3018 490.702 15.997 490.134 17.0693C489.497 18.2947 489.731 19.8088 490.596 20.8575C492.638 23.3319 494.674 25.8063 496.715 28.2807C497.043 28.6872 496.99 29.294 496.587 29.6298L490.368 34.8791L489.578 34.0189L495.493 28.805L489.619 21.6705C488.455 20.2683 488.151 18.277 488.941 16.6215C489.66 15.1015 491.234 14.0411 493.252 14.0411L503.934 14.0293C504.274 14.0293 504.56 14.3062 504.56 14.6479V14.6597C504.56 15.0014 504.274 15.2783 503.934 15.2783Z" fill="#562EC2"/>
<path d="M496.037 30.0895L490.363 34.8733L489.573 34.0073L494.762 29.4355L496.037 30.0895Z" fill="#562EC2"/>
<path d="M497.845 31.7212L490.158 35.0793L489.818 33.8657L497.178 30.6372L497.845 31.7212Z" fill="#794FEC"/>
<path d="M489.859 33.8539L498.459 32.2515L498.786 33.4769L492.428 34.6728L489.859 33.8539Z" fill="#A17FFF"/>
<path d="M489.994 33.8423H498.892C498.991 34.237 499.044 34.6612 499.044 35.0795L489.994 35.0913C489.655 35.0913 489.38 34.8144 489.38 34.4727V34.4609C489.38 34.1192 489.655 33.8423 489.994 33.8423Z" fill="#B89EFF"/>
</g>
<path d="M426.671 131H432.901V129.712H428.127V121.2H426.671V131ZM437.189 131.112C439.303 131.112 440.815 129.586 440.815 127.472C440.815 125.358 439.303 123.832 437.189 123.832C435.075 123.832 433.549 125.358 433.549 127.472C433.549 129.586 435.075 131.112 437.189 131.112ZM437.189 129.922C435.845 129.922 434.935 128.914 434.935 127.472C434.935 126.03 435.845 125.022 437.189 125.022C438.519 125.022 439.429 126.03 439.429 127.472C439.429 128.914 438.519 129.922 437.189 129.922ZM447.422 123.944V124.882C446.988 124.266 446.12 123.832 445.182 123.832C443.026 123.832 441.808 125.372 441.808 127.472C441.808 129.572 443.026 131.112 445.196 131.112C446.19 131.112 447.086 130.706 447.422 130.104V131.252C447.422 132.106 446.834 132.722 446.022 132.722H442.76V133.856H446.162C447.702 133.856 448.78 132.82 448.78 131.336V123.944H447.422ZM445.35 129.922C444.048 129.922 443.194 128.956 443.194 127.472C443.194 125.988 444.048 125.022 445.35 125.022C446.666 125.022 447.52 125.988 447.52 127.472C447.52 128.956 446.666 129.922 445.35 129.922ZM456.775 131.112C457.713 131.112 458.581 130.65 459.001 129.95V131H460.359V120.99H459.001V124.98C458.581 124.294 457.727 123.832 456.761 123.832C454.605 123.832 453.387 125.372 453.387 127.472C453.387 129.572 454.605 131.112 456.775 131.112ZM456.929 129.922C455.627 129.922 454.773 128.942 454.773 127.472C454.773 126.002 455.627 125.022 456.929 125.022C458.245 125.022 459.099 126.002 459.099 127.472C459.099 128.942 458.245 129.922 456.929 129.922ZM467.186 128.704C466.99 129.502 466.318 129.95 465.282 129.95C464.05 129.95 463.182 129.04 463.07 127.71H468.46C468.474 127.584 468.488 127.36 468.488 127.178C468.488 125.386 467.326 123.832 465.142 123.832C462.972 123.832 461.74 125.456 461.74 127.43C461.74 129.39 463.098 131.112 465.282 131.112C467.018 131.112 468.292 130.16 468.544 128.704H467.186ZM465.142 124.924C466.304 124.924 467.032 125.638 467.116 126.716H463.112C463.322 125.54 464.036 124.924 465.142 124.924ZM470.587 121.732V123.944H469.145V125.12H470.587V128.69C470.587 130.132 471.497 131 472.925 131H474.031V129.824H473.037C472.351 129.824 471.945 129.404 471.945 128.648V125.12H474.031V123.944H471.945V121.732H470.587ZM477.756 123.832C476.09 123.832 474.83 124.868 474.718 126.254H475.978C476.02 125.54 476.734 124.924 477.714 124.924C478.806 124.924 479.422 125.512 479.422 126.366C479.422 126.618 479.268 126.786 478.946 126.786H477.476C475.81 126.786 474.732 127.626 474.732 128.984C474.732 130.244 475.684 131.112 477.126 131.112C478.19 131.112 479.086 130.608 479.422 129.852V131H480.78V126.45C480.78 124.882 479.576 123.832 477.756 123.832ZM477.392 130.034C476.608 130.034 476.076 129.6 476.076 128.956C476.076 128.214 476.678 127.738 477.602 127.738H479.422V127.906C479.422 129.208 478.68 130.034 477.392 130.034ZM482.269 120.99V122.698H483.781V120.99H482.269ZM482.353 131H483.711V123.944H482.353V131ZM485.5 131H486.858V120.99H485.5V131ZM491.134 131.112C492.73 131.112 493.78 130.286 493.78 128.998C493.78 125.778 489.748 127.57 489.748 125.82C489.748 125.274 490.238 124.91 490.966 124.91C491.568 124.91 492.352 125.232 492.45 126.044H493.724C493.654 124.714 492.562 123.832 490.966 123.832C489.496 123.832 488.46 124.644 488.46 125.862C488.46 128.872 492.464 127.15 492.464 129.026C492.464 129.544 491.946 129.978 491.134 129.978C490.224 129.978 489.636 129.516 489.552 128.704H488.278C488.376 130.188 489.482 131.112 491.134 131.112Z" fill="#8E8E93"/>
<path d="M319 124C318.448 124 318 124.448 318 125C318 125.552 318.448 126 319 126V124ZM385.707 125.707C386.098 125.317 386.098 124.683 385.707 124.293L379.343 117.929C378.953 117.538 378.319 117.538 377.929 117.929C377.538 118.319 377.538 118.953 377.929 119.343L383.586 125L377.929 130.657C377.538 131.047 377.538 131.681 377.929 132.071C378.319 132.462 378.953 132.462 379.343 132.071L385.707 125.707ZM319 126H385V124H319V126Z" fill="#48484A"/>
<defs>
<clipPath id="clip0_1794_4311">
<rect width="18" height="21.2727" fill="white" transform="translate(288 534)"/>
</clipPath>
<clipPath id="clip1_1794_4311">
<rect width="18" height="21.2727" fill="white" transform="translate(288 14)"/>
</clipPath>
<clipPath id="clip2_1794_4311">
<rect width="18" height="21.2727" fill="white" transform="translate(88 274)"/>
</clipPath>
<clipPath id="clip3_1794_4311">
<rect width="18" height="21.2727" fill="white" transform="translate(288 274)"/>
</clipPath>
<clipPath id="clip4_1794_4311">
<rect width="18" height="21.2727" fill="white" transform="translate(488 14)"/>
</clipPath>
</defs>
</svg>
