<svg width="520" height="250" viewBox="0 0 520 250" fill="none" xmlns="http://www.w3.org/2000/svg">
<rect x="401" y="1" width="118" height="248" rx="14" stroke="#48484A" stroke-width="2"/>
<g clip-path="url(#clip0_233_420)">
<path d="M489.994 33.842H500.559C502.051 33.8184 503.233 33.1232 503.794 32.0392C504.443 30.8256 504.209 29.3115 503.344 28.2628C501.302 25.7884 499.266 23.314 497.225 20.8396C496.897 20.4331 496.95 19.8263 497.347 19.4905L503.578 14.2412L504.367 15.1014L498.447 20.3153L504.326 27.438C505.491 28.8402 505.795 30.8315 505.005 32.487C504.28 34.0128 502.712 35.0733 500.682 35.0733L490 35.0851C489.661 35.0851 489.386 34.8082 489.386 34.4665V34.4547C489.38 34.1189 489.655 33.842 489.994 33.842Z" fill="#B89EFF"/>
<path d="M489.859 33.8539L500.6 31.8567C501.138 31.7447 501.542 31.3618 501.729 30.8433C501.905 30.3131 501.805 29.7711 501.454 29.341C498.921 26.2598 496.4 23.2022 493.867 20.1092C493.615 19.8028 493.527 19.4257 493.615 19.0251C493.715 18.6363 493.954 18.3417 494.329 18.1768L503.782 14.0469L504.122 15.2605L495.107 19.2137C495.042 19.2372 494.996 19.2902 494.984 19.3551C494.961 19.4199 494.984 19.4847 495.031 19.5436C497.499 22.5364 499.945 25.5057 502.413 28.5044C503.08 29.3233 503.303 30.2601 502.952 31.2793C502.636 32.2278 501.899 32.9112 500.922 33.0998L492.433 34.6787L489.859 33.8539Z" fill="#A17FFF"/>
<path d="M504.075 15.2665L493.334 17.2637C492.784 17.3756 492.381 17.7468 492.205 18.277C492.03 18.8072 492.129 19.3493 492.48 19.7793C495.013 22.8605 497.534 25.9182 500.068 29.0053C500.319 29.3234 500.407 29.7005 500.319 30.1011C500.22 30.4899 499.968 30.7845 499.605 30.9495L490.152 35.0794L489.812 33.8657L498.827 29.9126C498.88 29.889 498.927 29.836 498.95 29.7712C498.962 29.7064 498.95 29.6416 498.909 29.5827C493.556 23.0962 496.253 26.3601 491.527 20.6218C490.86 19.8029 490.637 18.8662 490.988 17.8469C491.304 16.8984 492.03 16.215 493.018 16.0265L503.659 14.0293L504.075 15.2665Z" fill="#794FEC"/>
<path d="M503.934 15.2783H493.369C491.877 15.3018 490.702 15.997 490.134 17.0693C489.497 18.2947 489.731 19.8088 490.596 20.8575C492.638 23.3319 494.674 25.8063 496.715 28.2807C497.043 28.6872 496.99 29.294 496.587 29.6298L490.368 34.8791L489.578 34.0189L495.493 28.805L489.619 21.6705C488.455 20.2683 488.151 18.277 488.941 16.6215C489.66 15.1015 491.234 14.0411 493.252 14.0411L503.934 14.0293C504.274 14.0293 504.56 14.3062 504.56 14.6479V14.6597C504.56 15.0014 504.274 15.2783 503.934 15.2783Z" fill="#562EC2"/>
<path d="M496.037 30.0893L490.363 34.8731L489.573 34.0071L494.762 29.4353L496.037 30.0893Z" fill="#562EC2"/>
<path d="M497.845 31.7212L490.158 35.0793L489.818 33.8657L497.178 30.6372L497.845 31.7212Z" fill="#794FEC"/>
<path d="M489.859 33.8539L498.459 32.2515L498.786 33.4769L492.428 34.6728L489.859 33.8539Z" fill="#A17FFF"/>
<path d="M489.994 33.842H498.892C498.991 34.2368 499.044 34.6609 499.044 35.0792L489.994 35.091C489.655 35.091 489.38 34.8141 489.38 34.4724V34.4606C489.38 34.1189 489.655 33.842 489.994 33.842Z" fill="#B89EFF"/>
</g>
<path d="M448.352 111.2V115.316H443.494V111.2H442.038V121H443.494V116.604H448.352V121H449.808V111.2H448.352ZM454.908 121.112C457.022 121.112 458.534 119.586 458.534 117.472C458.534 115.358 457.022 113.832 454.908 113.832C452.794 113.832 451.268 115.358 451.268 117.472C451.268 119.586 452.794 121.112 454.908 121.112ZM454.908 119.922C453.564 119.922 452.654 118.914 452.654 117.472C452.654 116.03 453.564 115.022 454.908 115.022C456.238 115.022 457.148 116.03 457.148 117.472C457.148 118.914 456.238 119.922 454.908 119.922ZM459.863 121H461.221V116.898C461.221 115.778 461.865 115.022 462.943 115.022C463.867 115.022 464.427 115.778 464.427 116.898V121H465.785V116.898C465.785 115.778 466.429 115.022 467.507 115.022C468.445 115.022 469.005 115.778 469.005 116.898V121H470.363V116.52C470.363 114.882 469.411 113.832 467.885 113.832C466.793 113.832 465.869 114.476 465.589 115.274C465.309 114.35 464.455 113.832 463.307 113.832C462.271 113.832 461.515 114.406 461.221 115.204V113.944H459.863V121ZM477.139 118.704C476.943 119.502 476.271 119.95 475.235 119.95C474.003 119.95 473.135 119.04 473.023 117.71H478.413C478.427 117.584 478.441 117.36 478.441 117.178C478.441 115.386 477.279 113.832 475.095 113.832C472.925 113.832 471.693 115.456 471.693 117.43C471.693 119.39 473.051 121.112 475.235 121.112C476.971 121.112 478.245 120.16 478.497 118.704H477.139ZM475.095 114.924C476.257 114.924 476.985 115.638 477.069 116.716H473.065C473.275 115.54 473.989 114.924 475.095 114.924ZM442.093 141.112C443.689 141.112 444.739 140.286 444.739 138.998C444.739 135.778 440.707 137.57 440.707 135.82C440.707 135.274 441.197 134.91 441.925 134.91C442.527 134.91 443.311 135.232 443.409 136.044H444.683C444.613 134.714 443.521 133.832 441.925 133.832C440.455 133.832 439.419 134.644 439.419 135.862C439.419 138.872 443.423 137.15 443.423 139.026C443.423 139.544 442.905 139.978 442.093 139.978C441.183 139.978 440.595 139.516 440.511 138.704H439.237C439.335 140.188 440.441 141.112 442.093 141.112ZM449.203 141.112C450.995 141.112 452.255 140.104 452.479 138.62H451.135C450.911 139.418 450.197 139.922 449.231 139.922C447.831 139.922 447.117 138.83 447.117 137.472C447.117 136.114 447.817 135.022 449.231 135.022C450.183 135.022 450.995 135.61 451.121 136.408H452.479C452.283 134.812 450.855 133.832 449.203 133.832C446.977 133.832 445.703 135.526 445.703 137.472C445.703 139.418 446.977 141.112 449.203 141.112ZM457.853 135.12V133.944H456.999C456.005 133.944 455.445 134.364 455.123 135.302V133.944H453.765V141H455.123V137.808C455.123 136.268 455.543 135.12 456.831 135.12H457.853ZM463.714 138.704C463.518 139.502 462.846 139.95 461.81 139.95C460.578 139.95 459.71 139.04 459.598 137.71H464.988C465.002 137.584 465.016 137.36 465.016 137.178C465.016 135.386 463.854 133.832 461.67 133.832C459.5 133.832 458.268 135.456 458.268 137.43C458.268 139.39 459.626 141.112 461.81 141.112C463.546 141.112 464.82 140.16 465.072 138.704H463.714ZM461.67 134.924C462.832 134.924 463.56 135.638 463.644 136.716H459.64C459.85 135.54 460.564 134.924 461.67 134.924ZM471.438 138.704C471.242 139.502 470.57 139.95 469.534 139.95C468.302 139.95 467.434 139.04 467.322 137.71H472.712C472.726 137.584 472.74 137.36 472.74 137.178C472.74 135.386 471.578 133.832 469.394 133.832C467.224 133.832 465.992 135.456 465.992 137.43C465.992 139.39 467.35 141.112 469.534 141.112C471.27 141.112 472.544 140.16 472.796 138.704H471.438ZM469.394 134.924C470.556 134.924 471.284 135.638 471.368 136.716H467.364C467.574 135.54 468.288 134.924 469.394 134.924ZM474.123 141H475.481V137.178C475.481 135.946 476.265 135.05 477.371 135.05C478.365 135.05 479.023 135.806 479.023 136.926V141H480.381V136.66C480.381 134.98 479.345 133.832 477.749 133.832C476.699 133.832 475.859 134.308 475.481 135.19V133.944H474.123V141Z" fill="#8E8E93"/>
<path d="M252.775 139.2V143.316H247.917V139.2H246.461V149H247.917V144.604H252.775V149H254.231V139.2H252.775ZM261.137 146.704C260.941 147.502 260.269 147.95 259.233 147.95C258.001 147.95 257.133 147.04 257.021 145.71H262.411C262.425 145.584 262.439 145.36 262.439 145.178C262.439 143.386 261.277 141.832 259.093 141.832C256.923 141.832 255.691 143.456 255.691 145.43C255.691 147.39 257.049 149.112 259.233 149.112C260.969 149.112 262.243 148.16 262.495 146.704H261.137ZM259.093 142.924C260.255 142.924 260.983 143.638 261.067 144.716H257.063C257.273 143.54 257.987 142.924 259.093 142.924ZM263.891 149H265.249V138.99H263.891V149ZM267.118 151.856H268.476V148.006C268.882 148.678 269.722 149.112 270.66 149.112C272.802 149.112 274.076 147.572 274.076 145.472C274.076 143.372 272.858 141.832 270.73 141.832C269.75 141.832 268.896 142.294 268.476 142.994V141.944H267.118V151.856ZM270.534 147.922C269.218 147.922 268.364 146.942 268.364 145.472C268.364 144.002 269.218 143.022 270.534 143.022C271.836 143.022 272.704 144.002 272.704 145.472C272.704 146.942 271.836 147.922 270.534 147.922Z" fill="#8E8E93"/>
<path d="M270.08 106.492C272.64 110.452 272.639 115.551 270.081 119.509" stroke="#48484A" stroke-width="1.5" stroke-linecap="round" stroke-linejoin="round"/>
<path d="M264.73 108.27C267.342 110.882 267.342 115.118 264.73 117.73C262.118 120.342 257.882 120.342 255.27 117.73C252.658 115.118 252.658 110.882 255.27 108.27C257.882 105.657 262.118 105.657 264.73 108.27Z" stroke="#48484A" stroke-width="1.5" stroke-linecap="round" stroke-linejoin="round"/>
<path d="M263.095 107.068L266.54 102.883C267.041 102.273 267.959 102.229 268.517 102.787L270.215 104.484C270.773 105.043 270.728 105.96 270.119 106.461L265.933 109.907" stroke="#48484A" stroke-width="1.5" stroke-linecap="round" stroke-linejoin="round"/>
<path d="M256.905 118.932L253.46 123.117C252.959 123.727 252.041 123.771 251.483 123.213L249.785 121.516C249.227 120.957 249.272 120.04 249.881 119.539L254.067 116.093" stroke="#48484A" stroke-width="1.5" stroke-linecap="round" stroke-linejoin="round"/>
<path d="M254.068 109.905L249.881 106.46C249.272 105.959 249.228 105.041 249.785 104.483L251.483 102.785C252.041 102.227 252.959 102.272 253.46 102.881L256.905 107.067" stroke="#48484A" stroke-width="1.5" stroke-linecap="round" stroke-linejoin="round"/>
<path d="M265.932 116.095L270.117 119.54C270.727 120.041 270.771 120.959 270.213 121.517L268.516 123.215C267.957 123.773 267.04 123.728 266.539 123.119L263.093 118.933" stroke="#48484A" stroke-width="1.5" stroke-linecap="round" stroke-linejoin="round"/>
<path d="M266.509 123.081C262.551 125.639 257.451 125.64 253.492 123.08" stroke="#48484A" stroke-width="1.5" stroke-linecap="round" stroke-linejoin="round"/>
<path d="M249.919 106.491C247.361 110.449 247.36 115.548 249.92 119.508" stroke="#48484A" stroke-width="1.5" stroke-linecap="round" stroke-linejoin="round"/>
<path d="M266.508 102.92C262.548 100.36 257.449 100.361 253.491 102.919" stroke="#48484A" stroke-width="1.5" stroke-linecap="round" stroke-linejoin="round"/>
<path d="M24.0458 149H25.4318V141.706L28.3718 149H29.5478L32.4738 141.706V149H33.8738V139.2H32.0818L28.9598 147.012L25.8378 139.2H24.0458V149ZM41.5283 141.944H40.1283L38.2663 147.236L36.4183 141.944H35.0183L37.6363 149.07L36.6843 151.856H37.9863L39.0503 148.748L41.5283 141.944ZM48.5531 141.832C46.8871 141.832 45.6271 142.868 45.5151 144.254H46.7751C46.8171 143.54 47.5311 142.924 48.5111 142.924C49.6031 142.924 50.2191 143.512 50.2191 144.366C50.2191 144.618 50.0651 144.786 49.7431 144.786H48.2731C46.6071 144.786 45.5291 145.626 45.5291 146.984C45.5291 148.244 46.4811 149.112 47.9231 149.112C48.9871 149.112 49.8831 148.608 50.2191 147.852V149H51.5771V144.45C51.5771 142.882 50.3731 141.832 48.5531 141.832ZM48.1891 148.034C47.4051 148.034 46.8731 147.6 46.8731 146.956C46.8731 146.214 47.4751 145.738 48.3991 145.738H50.2191V145.906C50.2191 147.208 49.4771 148.034 48.1891 148.034ZM56.2442 149.112C58.0362 149.112 59.2962 148.104 59.5202 146.62H58.1762C57.9522 147.418 57.2382 147.922 56.2722 147.922C54.8722 147.922 54.1582 146.83 54.1582 145.472C54.1582 144.114 54.8582 143.022 56.2722 143.022C57.2242 143.022 58.0362 143.61 58.1622 144.408H59.5202C59.3242 142.812 57.8962 141.832 56.2442 141.832C54.0182 141.832 52.7442 143.526 52.7442 145.472C52.7442 147.418 54.0182 149.112 56.2442 149.112ZM63.9005 149.112C65.6925 149.112 66.9525 148.104 67.1765 146.62H65.8325C65.6085 147.418 64.8945 147.922 63.9285 147.922C62.5285 147.922 61.8145 146.83 61.8145 145.472C61.8145 144.114 62.5145 143.022 63.9285 143.022C64.8805 143.022 65.6925 143.61 65.8185 144.408H67.1765C66.9805 142.812 65.5525 141.832 63.9005 141.832C61.6745 141.832 60.4005 143.526 60.4005 145.472C60.4005 147.418 61.6745 149.112 63.9005 149.112ZM71.6967 149.112C73.8107 149.112 75.3227 147.586 75.3227 145.472C75.3227 143.358 73.8107 141.832 71.6967 141.832C69.5827 141.832 68.0567 143.358 68.0567 145.472C68.0567 147.586 69.5827 149.112 71.6967 149.112ZM71.6967 147.922C70.3527 147.922 69.4427 146.914 69.4427 145.472C69.4427 144.03 70.3527 143.022 71.6967 143.022C73.0267 143.022 73.9367 144.03 73.9367 145.472C73.9367 146.914 73.0267 147.922 71.6967 147.922ZM82.9102 141.944H81.5522V145.766C81.5522 146.998 80.7682 147.894 79.6622 147.894C78.6682 147.894 78.0102 147.138 78.0102 146.018V141.944H76.6522V146.284C76.6522 147.964 77.6882 149.112 79.2842 149.112C80.3342 149.112 81.1742 148.636 81.5522 147.754V149H82.9102V141.944ZM84.6502 149H86.0082V145.178C86.0082 143.946 86.7922 143.05 87.8982 143.05C88.8922 143.05 89.5502 143.806 89.5502 144.926V149H90.9082V144.66C90.9082 142.98 89.8722 141.832 88.2762 141.832C87.2262 141.832 86.3862 142.308 86.0082 143.19V141.944H84.6502V149ZM93.2142 139.732V141.944H91.7722V143.12H93.2142V146.69C93.2142 148.132 94.1242 149 95.5522 149H96.6582V147.824H95.6642C94.9782 147.824 94.5722 147.404 94.5722 146.648V143.12H96.6582V141.944H94.5722V139.732H93.2142Z" fill="#8E8E93"/>
<path d="M60 125C66.6274 125 72 119.627 72 113C72 106.373 66.6274 101 60 101C53.3726 101 48 106.373 48 113C48 119.627 53.3726 125 60 125Z" stroke="#48484A" stroke-width="1.5" stroke-linecap="round" stroke-linejoin="round"/>
<path d="M65.3334 118.333V118.333C65.1784 117.943 64.9378 117.593 64.6294 117.308V117.308C64.1098 116.825 63.4268 116.557 62.7174 116.556H57.2841V116.556C56.5743 116.557 55.8909 116.825 55.3707 117.308V117.308C55.0631 117.594 54.8226 117.944 54.6667 118.333" stroke="#48484A" stroke-width="1.5" stroke-linecap="round" stroke-linejoin="round"/>
<path d="M60 113.666C61.6569 113.666 63 112.323 63 110.667C63 109.01 61.6569 107.667 60 107.667C58.3431 107.667 57 109.01 57 110.667C57 112.323 58.3431 113.666 60 113.666Z" stroke="#48484A" stroke-width="1.5" stroke-linecap="round" stroke-linejoin="round"/>
<path fill-rule="evenodd" clip-rule="evenodd" d="M410 52L386 64L390.144 52L386 40L410 52Z" fill="#6552FF" stroke="white" stroke-width="2"/>
<rect x="201" y="1" width="118" height="248" rx="14" stroke="#48484A" stroke-width="2" stroke-dasharray="4 4"/>
<rect x="1" y="1" width="118" height="248" rx="14" stroke="#48484A" stroke-width="2" stroke-dasharray="4 4"/>
<path d="M119 124C118.448 124 118 124.448 118 125C118 125.552 118.448 126 119 126V124ZM185.707 125.707C186.098 125.317 186.098 124.683 185.707 124.293L179.343 117.929C178.953 117.538 178.319 117.538 177.929 117.929C177.538 118.319 177.538 118.953 177.929 119.343L183.586 125L177.929 130.657C177.538 131.047 177.538 131.681 177.929 132.071C178.319 132.462 178.953 132.462 179.343 132.071L185.707 125.707ZM119 126H185V124H119V126Z" fill="#48484A"/>
<path d="M319 124C318.448 124 318 124.448 318 125C318 125.552 318.448 126 319 126V124ZM385.707 125.707C386.098 125.317 386.098 124.683 385.707 124.293L379.343 117.929C378.953 117.538 378.319 117.538 377.929 117.929C377.538 118.319 377.538 118.953 377.929 119.343L383.586 125L377.929 130.657C377.538 131.047 377.538 131.681 377.929 132.071C378.319 132.462 378.953 132.462 379.343 132.071L385.707 125.707ZM319 126H385V124H319V126Z" fill="#48484A"/>
<defs>
<clipPath id="clip0_233_420">
<rect width="18" height="21.2727" fill="white" transform="translate(488 14)"/>
</clipPath>
</defs>
</svg>
