<svg width="520" height="250" viewBox="0 0 520 250" fill="none" xmlns="http://www.w3.org/2000/svg">
<rect x="401" y="1" width="118" height="248" rx="14" stroke="#48484A" stroke-width="2"/>
<g clip-path="url(#clip0_233_445)">
<path d="M489.994 33.842H500.559C502.051 33.8184 503.233 33.1232 503.794 32.0392C504.443 30.8256 504.209 29.3115 503.344 28.2628C501.302 25.7884 499.266 23.314 497.225 20.8396C496.897 20.4331 496.95 19.8263 497.347 19.4905L503.578 14.2412L504.367 15.1014L498.447 20.3153L504.326 27.438C505.491 28.8402 505.795 30.8315 505.005 32.487C504.28 34.0128 502.712 35.0733 500.682 35.0733L490 35.0851C489.661 35.0851 489.386 34.8082 489.386 34.4665V34.4547C489.38 34.1189 489.655 33.842 489.994 33.842Z" fill="#B89EFF"/>
<path d="M489.859 33.8539L500.6 31.8567C501.138 31.7447 501.542 31.3618 501.729 30.8433C501.905 30.3131 501.805 29.7711 501.454 29.341C498.921 26.2598 496.4 23.2022 493.867 20.1092C493.615 19.8028 493.527 19.4257 493.615 19.0251C493.715 18.6363 493.954 18.3417 494.329 18.1768L503.782 14.0469L504.122 15.2605L495.107 19.2137C495.042 19.2372 494.996 19.2902 494.984 19.3551C494.961 19.4199 494.984 19.4847 495.031 19.5436C497.499 22.5364 499.945 25.5057 502.413 28.5044C503.08 29.3233 503.303 30.2601 502.952 31.2793C502.636 32.2278 501.899 32.9112 500.922 33.0998L492.433 34.6787L489.859 33.8539Z" fill="#A17FFF"/>
<path d="M504.075 15.2665L493.334 17.2637C492.784 17.3756 492.381 17.7468 492.205 18.277C492.03 18.8072 492.129 19.3493 492.48 19.7793C495.013 22.8605 497.534 25.9182 500.068 29.0053C500.319 29.3234 500.407 29.7005 500.319 30.1011C500.22 30.4899 499.968 30.7845 499.605 30.9495L490.152 35.0794L489.812 33.8657L498.827 29.9126C498.88 29.889 498.927 29.836 498.95 29.7712C498.962 29.7064 498.95 29.6416 498.909 29.5827C493.556 23.0962 496.253 26.3601 491.527 20.6218C490.86 19.8029 490.637 18.8662 490.988 17.8469C491.304 16.8984 492.03 16.215 493.018 16.0265L503.659 14.0293L504.075 15.2665Z" fill="#794FEC"/>
<path d="M503.934 15.2783H493.369C491.877 15.3018 490.702 15.997 490.134 17.0693C489.497 18.2947 489.731 19.8088 490.596 20.8575C492.638 23.3319 494.674 25.8063 496.715 28.2807C497.043 28.6872 496.99 29.294 496.587 29.6298L490.368 34.8791L489.578 34.0189L495.493 28.805L489.619 21.6705C488.455 20.2683 488.151 18.277 488.941 16.6215C489.66 15.1015 491.234 14.0411 493.252 14.0411L503.934 14.0293C504.274 14.0293 504.56 14.3062 504.56 14.6479V14.6597C504.56 15.0014 504.274 15.2783 503.934 15.2783Z" fill="#562EC2"/>
<path d="M496.037 30.0893L490.363 34.8731L489.573 34.0071L494.762 29.4353L496.037 30.0893Z" fill="#562EC2"/>
<path d="M497.845 31.7212L490.158 35.0793L489.818 33.8657L497.178 30.6372L497.845 31.7212Z" fill="#794FEC"/>
<path d="M489.859 33.8539L498.459 32.2515L498.786 33.4769L492.428 34.6728L489.859 33.8539Z" fill="#A17FFF"/>
<path d="M489.994 33.842H498.892C498.991 34.2368 499.044 34.6609 499.044 35.0792L489.994 35.091C489.655 35.091 489.38 34.8141 489.38 34.4724V34.4606C489.38 34.1189 489.655 33.842 489.994 33.842Z" fill="#B89EFF"/>
</g>
<path d="M427.272 121H428.728V113.468L433.46 121H435.07V111.2H433.614V118.746L428.896 111.2H427.272V121ZM441.975 118.704C441.779 119.502 441.107 119.95 440.071 119.95C438.839 119.95 437.971 119.04 437.859 117.71H443.249C443.263 117.584 443.277 117.36 443.277 117.178C443.277 115.386 442.115 113.832 439.931 113.832C437.761 113.832 436.529 115.456 436.529 117.43C436.529 119.39 437.887 121.112 440.071 121.112C441.807 121.112 443.081 120.16 443.333 118.704H441.975ZM439.931 114.924C441.093 114.924 441.821 115.638 441.905 116.716H437.901C438.111 115.54 438.825 114.924 439.931 114.924ZM445.995 121H447.255L448.851 115.736L450.461 121H451.721L453.905 113.944H452.533L451.091 119.194L449.509 113.944H448.221L446.625 119.194L445.169 113.944H443.811L445.995 121ZM459.034 111.732V113.944H457.592V115.12H459.034V118.69C459.034 120.132 459.944 121 461.372 121H462.478V119.824H461.484C460.798 119.824 460.392 119.404 460.392 118.648V115.12H462.478V113.944H460.392V111.732H459.034ZM463.553 110.99V112.698H465.065V110.99H463.553ZM463.637 121H464.995V113.944H463.637V121ZM469.807 121.112C471.599 121.112 472.859 120.104 473.083 118.62H471.739C471.515 119.418 470.801 119.922 469.835 119.922C468.435 119.922 467.721 118.83 467.721 117.472C467.721 116.114 468.421 115.022 469.835 115.022C470.787 115.022 471.599 115.61 471.725 116.408H473.083C472.887 114.812 471.459 113.832 469.807 113.832C467.581 113.832 466.307 115.526 466.307 117.472C466.307 119.418 467.581 121.112 469.807 121.112ZM479.227 121H480.907L477.673 116.702L480.641 113.944H478.877L475.811 116.758V110.99H474.439V121H475.811V118.438L476.693 117.626L479.227 121ZM486.587 118.704C486.391 119.502 485.719 119.95 484.683 119.95C483.451 119.95 482.583 119.04 482.471 117.71H487.861C487.875 117.584 487.889 117.36 487.889 117.178C487.889 115.386 486.727 113.832 484.543 113.832C482.373 113.832 481.141 115.456 481.141 117.43C481.141 119.39 482.499 121.112 484.683 121.112C486.419 121.112 487.693 120.16 487.945 118.704H486.587ZM484.543 114.924C485.705 114.924 486.433 115.638 486.517 116.716H482.513C482.723 115.54 483.437 114.924 484.543 114.924ZM489.988 111.732V113.944H488.546V115.12H489.988V118.69C489.988 120.132 490.898 121 492.326 121H493.432V119.824H492.438C491.752 119.824 491.346 119.404 491.346 118.648V115.12H493.432V113.944H491.346V111.732H489.988ZM442.093 141.112C443.689 141.112 444.739 140.286 444.739 138.998C444.739 135.778 440.707 137.57 440.707 135.82C440.707 135.274 441.197 134.91 441.925 134.91C442.527 134.91 443.311 135.232 443.409 136.044H444.683C444.613 134.714 443.521 133.832 441.925 133.832C440.455 133.832 439.419 134.644 439.419 135.862C439.419 138.872 443.423 137.15 443.423 139.026C443.423 139.544 442.905 139.978 442.093 139.978C441.183 139.978 440.595 139.516 440.511 138.704H439.237C439.335 140.188 440.441 141.112 442.093 141.112ZM449.203 141.112C450.995 141.112 452.255 140.104 452.479 138.62H451.135C450.911 139.418 450.197 139.922 449.231 139.922C447.831 139.922 447.117 138.83 447.117 137.472C447.117 136.114 447.817 135.022 449.231 135.022C450.183 135.022 450.995 135.61 451.121 136.408H452.479C452.283 134.812 450.855 133.832 449.203 133.832C446.977 133.832 445.703 135.526 445.703 137.472C445.703 139.418 446.977 141.112 449.203 141.112ZM457.853 135.12V133.944H456.999C456.005 133.944 455.445 134.364 455.123 135.302V133.944H453.765V141H455.123V137.808C455.123 136.268 455.543 135.12 456.831 135.12H457.853ZM463.714 138.704C463.518 139.502 462.846 139.95 461.81 139.95C460.578 139.95 459.71 139.04 459.598 137.71H464.988C465.002 137.584 465.016 137.36 465.016 137.178C465.016 135.386 463.854 133.832 461.67 133.832C459.5 133.832 458.268 135.456 458.268 137.43C458.268 139.39 459.626 141.112 461.81 141.112C463.546 141.112 464.82 140.16 465.072 138.704H463.714ZM461.67 134.924C462.832 134.924 463.56 135.638 463.644 136.716H459.64C459.85 135.54 460.564 134.924 461.67 134.924ZM471.438 138.704C471.242 139.502 470.57 139.95 469.534 139.95C468.302 139.95 467.434 139.04 467.322 137.71H472.712C472.726 137.584 472.74 137.36 472.74 137.178C472.74 135.386 471.578 133.832 469.394 133.832C467.224 133.832 465.992 135.456 465.992 137.43C465.992 139.39 467.35 141.112 469.534 141.112C471.27 141.112 472.544 140.16 472.796 138.704H471.438ZM469.394 134.924C470.556 134.924 471.284 135.638 471.368 136.716H467.364C467.574 135.54 468.288 134.924 469.394 134.924ZM474.123 141H475.481V137.178C475.481 135.946 476.265 135.05 477.371 135.05C478.365 135.05 479.023 135.806 479.023 136.926V141H480.381V136.66C480.381 134.98 479.345 133.832 477.749 133.832C476.699 133.832 475.859 134.308 475.481 135.19V133.944H474.123V141Z" fill="#8E8E93"/>
<path d="M238.866 121.112C240.966 121.112 242.478 120.062 242.478 118.27C242.478 114.532 236.892 116.114 236.892 113.734C236.892 112.908 237.606 112.376 238.782 112.376C239.986 112.376 240.77 113.034 240.868 114.042H242.282C242.156 112.25 240.784 111.088 238.782 111.088C236.808 111.088 235.436 112.166 235.436 113.734C235.436 117.346 240.994 115.932 240.994 118.284C240.994 119.348 240.098 119.824 238.866 119.824C237.48 119.824 236.654 119.012 236.542 117.752H235.128C235.24 119.782 236.654 121.112 238.866 121.112ZM243.889 121H245.247V117.178C245.247 115.946 246.031 115.05 247.137 115.05C248.131 115.05 248.789 115.806 248.789 116.926V121H250.147V116.66C250.147 114.98 249.111 113.832 247.515 113.832C246.465 113.832 245.625 114.308 245.247 115.19V110.99H243.889V121ZM254.562 113.832C252.896 113.832 251.636 114.868 251.524 116.254H252.784C252.826 115.54 253.54 114.924 254.52 114.924C255.612 114.924 256.228 115.512 256.228 116.366C256.228 116.618 256.074 116.786 255.752 116.786H254.282C252.616 116.786 251.538 117.626 251.538 118.984C251.538 120.244 252.49 121.112 253.932 121.112C254.996 121.112 255.892 120.608 256.228 119.852V121H257.586V116.45C257.586 114.882 256.382 113.832 254.562 113.832ZM254.198 120.034C253.414 120.034 252.882 119.6 252.882 118.956C252.882 118.214 253.484 117.738 254.408 117.738H256.228V117.906C256.228 119.208 255.486 120.034 254.198 120.034ZM264.017 121H265.697L262.463 116.702L265.431 113.944H263.667L260.601 116.758V110.99H259.229V121H260.601V118.438L261.483 117.626L264.017 121ZM266.608 110.99V112.698H268.12V110.99H266.608ZM266.692 121H268.05V113.944H266.692V121ZM269.768 121H271.126V117.178C271.126 115.946 271.91 115.05 273.016 115.05C274.01 115.05 274.668 115.806 274.668 116.926V121H276.026V116.66C276.026 114.98 274.99 113.832 273.394 113.832C272.344 113.832 271.504 114.308 271.126 115.19V113.944H269.768V121ZM283.044 113.944V114.882C282.61 114.266 281.742 113.832 280.804 113.832C278.648 113.832 277.43 115.372 277.43 117.472C277.43 119.572 278.648 121.112 280.818 121.112C281.812 121.112 282.708 120.706 283.044 120.104V121.252C283.044 122.106 282.456 122.722 281.644 122.722H278.382V123.856H281.784C283.324 123.856 284.402 122.82 284.402 121.336V113.944H283.044ZM280.972 119.922C279.67 119.922 278.816 118.956 278.816 117.472C278.816 115.988 279.67 115.022 280.972 115.022C282.288 115.022 283.142 115.988 283.142 117.472C283.142 118.956 282.288 119.922 280.972 119.922ZM241.899 133.944V134.882C241.465 134.266 240.597 133.832 239.659 133.832C237.503 133.832 236.285 135.372 236.285 137.472C236.285 139.572 237.503 141.112 239.673 141.112C240.667 141.112 241.563 140.706 241.899 140.104V141.252C241.899 142.106 241.311 142.722 240.499 142.722H237.237V143.856H240.639C242.179 143.856 243.257 142.82 243.257 141.336V133.944H241.899ZM239.827 139.922C238.525 139.922 237.671 138.956 237.671 137.472C237.671 135.988 238.525 135.022 239.827 135.022C241.143 135.022 241.997 135.988 241.997 137.472C241.997 138.956 241.143 139.922 239.827 139.922ZM250.083 138.704C249.887 139.502 249.215 139.95 248.179 139.95C246.947 139.95 246.079 139.04 245.967 137.71H251.357C251.371 137.584 251.385 137.36 251.385 137.178C251.385 135.386 250.223 133.832 248.039 133.832C245.869 133.832 244.637 135.456 244.637 137.43C244.637 139.39 245.995 141.112 248.179 141.112C249.915 141.112 251.189 140.16 251.441 138.704H250.083ZM248.039 134.924C249.201 134.924 249.929 135.638 250.013 136.716H246.009C246.219 135.54 246.933 134.924 248.039 134.924ZM255.177 141.112C256.773 141.112 257.823 140.286 257.823 138.998C257.823 135.778 253.791 137.57 253.791 135.82C253.791 135.274 254.281 134.91 255.009 134.91C255.611 134.91 256.395 135.232 256.493 136.044H257.767C257.697 134.714 256.605 133.832 255.009 133.832C253.539 133.832 252.503 134.644 252.503 135.862C252.503 138.872 256.507 137.15 256.507 139.026C256.507 139.544 255.989 139.978 255.177 139.978C254.267 139.978 253.679 139.516 253.595 138.704H252.321C252.419 140.188 253.525 141.112 255.177 141.112ZM259.951 131.732V133.944H258.509V135.12H259.951V138.69C259.951 140.132 260.861 141 262.289 141H263.395V139.824H262.401C261.715 139.824 261.309 139.404 261.309 138.648V135.12H263.395V133.944H261.309V131.732H259.951ZM270.742 133.944H269.384V137.766C269.384 138.998 268.6 139.894 267.494 139.894C266.5 139.894 265.842 139.138 265.842 138.018V133.944H264.484V138.284C264.484 139.964 265.52 141.112 267.116 141.112C268.166 141.112 269.006 140.636 269.384 139.754V141H270.742V133.944ZM276.57 135.12V133.944H275.716C274.722 133.944 274.162 134.364 273.84 135.302V133.944H272.482V141H273.84V137.808C273.84 136.268 274.26 135.12 275.548 135.12H276.57ZM282.43 138.704C282.234 139.502 281.562 139.95 280.526 139.95C279.294 139.95 278.426 139.04 278.314 137.71H283.704C283.718 137.584 283.732 137.36 283.732 137.178C283.732 135.386 282.57 133.832 280.386 133.832C278.216 133.832 276.984 135.456 276.984 137.43C276.984 139.39 278.342 141.112 280.526 141.112C282.262 141.112 283.536 140.16 283.788 138.704H282.43ZM280.386 134.924C281.548 134.924 282.276 135.638 282.36 136.716H278.356C278.566 135.54 279.28 134.924 280.386 134.924Z" fill="#8E8E93"/>
<path d="M32.8624 131H34.3744L30.5244 121.2H29.1804L25.3304 131H26.8284L27.7664 128.508H31.9244L32.8624 131ZM28.2564 127.234L29.8524 123.02L31.4484 127.234H28.2564ZM35.3289 131H36.6869V127.178C36.6869 125.946 37.4709 125.05 38.5769 125.05C39.5709 125.05 40.2289 125.806 40.2289 126.926V131H41.5869V126.66C41.5869 124.98 40.5509 123.832 38.9549 123.832C37.9049 123.832 37.0649 124.308 36.6869 125.19V123.944H35.3289V131ZM48.8769 123.944H47.4769L45.6149 129.236L43.7669 123.944H42.3669L44.9849 131.07L44.0329 133.856H45.3349L46.3989 130.748L48.8769 123.944ZM55.6077 131.112C57.2037 131.112 58.2537 130.286 58.2537 128.998C58.2537 125.778 54.2217 127.57 54.2217 125.82C54.2217 125.274 54.7117 124.91 55.4397 124.91C56.0417 124.91 56.8257 125.232 56.9237 126.044H58.1977C58.1277 124.714 57.0357 123.832 55.4397 123.832C53.9697 123.832 52.9337 124.644 52.9337 125.862C52.9337 128.872 56.9377 127.15 56.9377 129.026C56.9377 129.544 56.4197 129.978 55.6077 129.978C54.6977 129.978 54.1097 129.516 54.0257 128.704H52.7517C52.8497 130.188 53.9557 131.112 55.6077 131.112ZM62.7179 131.112C64.5099 131.112 65.7699 130.104 65.9939 128.62H64.6499C64.4259 129.418 63.7119 129.922 62.7459 129.922C61.3459 129.922 60.6319 128.83 60.6319 127.472C60.6319 126.114 61.3319 125.022 62.7459 125.022C63.6979 125.022 64.5099 125.61 64.6359 126.408H65.9939C65.7979 124.812 64.3699 123.832 62.7179 123.832C60.4919 123.832 59.2179 125.526 59.2179 127.472C59.2179 129.418 60.4919 131.112 62.7179 131.112ZM71.3681 125.12V123.944H70.5141C69.5201 123.944 68.9601 124.364 68.6381 125.302V123.944H67.2801V131H68.6381V127.808C68.6381 126.268 69.0581 125.12 70.3461 125.12H71.3681ZM77.2283 128.704C77.0323 129.502 76.3603 129.95 75.3243 129.95C74.0923 129.95 73.2243 129.04 73.1123 127.71H78.5023C78.5163 127.584 78.5303 127.36 78.5303 127.178C78.5303 125.386 77.3683 123.832 75.1843 123.832C73.0143 123.832 71.7823 125.456 71.7823 127.43C71.7823 129.39 73.1403 131.112 75.3243 131.112C77.0603 131.112 78.3343 130.16 78.5863 128.704H77.2283ZM75.1843 124.924C76.3463 124.924 77.0743 125.638 77.1583 126.716H73.1543C73.3643 125.54 74.0783 124.924 75.1843 124.924ZM84.9529 128.704C84.7569 129.502 84.0849 129.95 83.0489 129.95C81.8169 129.95 80.9489 129.04 80.8369 127.71H86.2269C86.2409 127.584 86.2549 127.36 86.2549 127.178C86.2549 125.386 85.0929 123.832 82.9089 123.832C80.7389 123.832 79.5069 125.456 79.5069 127.43C79.5069 129.39 80.8649 131.112 83.0489 131.112C84.7849 131.112 86.0589 130.16 86.3109 128.704H84.9529ZM82.9089 124.924C84.0709 124.924 84.7989 125.638 84.8829 126.716H80.8789C81.0889 125.54 81.8029 124.924 82.9089 124.924ZM87.6375 131H88.9955V127.178C88.9955 125.946 89.7795 125.05 90.8855 125.05C91.8795 125.05 92.5375 125.806 92.5375 126.926V131H93.8955V126.66C93.8955 124.98 92.8595 123.832 91.2635 123.832C90.2135 123.832 89.3735 124.308 88.9955 125.19V123.944H87.6375V131Z" fill="#8E8E93"/>
<path fill-rule="evenodd" clip-rule="evenodd" d="M410 52L386 64L390.144 52L386 40L410 52Z" fill="#46D39A" stroke="white" stroke-width="2"/>
<rect x="1" y="1" width="118" height="248" rx="14" stroke="#48484A" stroke-width="2" stroke-dasharray="4 4"/>
<path d="M134 124C133.448 124 133 124.448 133 125C133 125.552 133.448 126 134 126V124ZM185.707 125.707C186.098 125.317 186.098 124.683 185.707 124.293L179.343 117.929C178.953 117.538 178.319 117.538 177.929 117.929C177.538 118.319 177.538 118.953 177.929 119.343L183.586 125L177.929 130.657C177.538 131.047 177.538 131.681 177.929 132.071C178.319 132.462 178.953 132.462 179.343 132.071L185.707 125.707ZM134 126H185V124H134V126Z" fill="#48484A"/>
<path d="M334 124C333.448 124 333 124.448 333 125C333 125.552 333.448 126 334 126V124ZM385.707 125.707C386.098 125.317 386.098 124.683 385.707 124.293L379.343 117.929C378.953 117.538 378.319 117.538 377.929 117.929C377.538 118.319 377.538 118.953 377.929 119.343L383.586 125L377.929 130.657C377.538 131.047 377.538 131.681 377.929 132.071C378.319 132.462 378.953 132.462 379.343 132.071L385.707 125.707ZM334 126H385V124H334V126Z" fill="#48484A"/>
<defs>
<clipPath id="clip0_233_445">
<rect width="18" height="21.2727" fill="white" transform="translate(488 14)"/>
</clipPath>
</defs>
</svg>
