<svg width="520" height="250" viewBox="0 0 520 250" fill="none" xmlns="http://www.w3.org/2000/svg">
<path d="M416.644 142.488V144H418.142V142.488H416.644ZM424.159 138.12V136.944H423.305C422.311 136.944 421.751 137.364 421.429 138.302V136.944H420.071V144H421.429V140.808C421.429 139.268 421.849 138.12 423.137 138.12H424.159ZM430.019 141.704C429.823 142.502 429.151 142.95 428.115 142.95C426.883 142.95 426.015 142.04 425.903 140.71H431.293C431.307 140.584 431.321 140.36 431.321 140.178C431.321 138.386 430.159 136.832 427.975 136.832C425.805 136.832 424.573 138.456 424.573 140.43C424.573 142.39 425.931 144.112 428.115 144.112C429.851 144.112 431.125 143.16 431.377 141.704H430.019ZM427.975 137.924C429.137 137.924 429.865 138.638 429.949 139.716H425.945C426.155 138.54 426.869 137.924 427.975 137.924ZM437.982 136.944V137.882C437.548 137.266 436.68 136.832 435.742 136.832C433.586 136.832 432.368 138.372 432.368 140.472C432.368 142.572 433.586 144.112 435.756 144.112C436.75 144.112 437.646 143.706 437.982 143.104V144.252C437.982 145.106 437.394 145.722 436.582 145.722H433.32V146.856H436.722C438.262 146.856 439.34 145.82 439.34 144.336V136.944H437.982ZM435.91 142.922C434.608 142.922 433.754 141.956 433.754 140.472C433.754 138.988 434.608 138.022 435.91 138.022C437.226 138.022 438.08 138.988 438.08 140.472C438.08 141.956 437.226 142.922 435.91 142.922ZM441.042 133.99V135.698H442.554V133.99H441.042ZM441.126 144H442.484V136.944H441.126V144ZM446.68 144.112C448.276 144.112 449.326 143.286 449.326 141.998C449.326 138.778 445.294 140.57 445.294 138.82C445.294 138.274 445.784 137.91 446.512 137.91C447.114 137.91 447.898 138.232 447.996 139.044H449.27C449.2 137.714 448.108 136.832 446.512 136.832C445.042 136.832 444.006 137.644 444.006 138.862C444.006 141.872 448.01 140.15 448.01 142.026C448.01 142.544 447.492 142.978 446.68 142.978C445.77 142.978 445.182 142.516 445.098 141.704H443.824C443.922 143.188 445.028 144.112 446.68 144.112ZM451.453 134.732V136.944H450.011V138.12H451.453V141.69C451.453 143.132 452.363 144 453.791 144H454.897V142.824H453.903C453.217 142.824 452.811 142.404 452.811 141.648V138.12H454.897V136.944H452.811V134.732H451.453ZM460.931 141.704C460.735 142.502 460.063 142.95 459.027 142.95C457.795 142.95 456.927 142.04 456.815 140.71H462.205C462.219 140.584 462.233 140.36 462.233 140.178C462.233 138.386 461.071 136.832 458.887 136.832C456.717 136.832 455.485 138.456 455.485 140.43C455.485 142.39 456.843 144.112 459.027 144.112C460.763 144.112 462.037 143.16 462.289 141.704H460.931ZM458.887 137.924C460.049 137.924 460.777 138.638 460.861 139.716H456.857C457.067 138.54 457.781 137.924 458.887 137.924ZM467.704 138.12V136.944H466.85C465.856 136.944 465.296 137.364 464.974 138.302V136.944H463.616V144H464.974V140.808C464.974 139.268 465.394 138.12 466.682 138.12H467.704ZM472.535 144.112C474.789 144.112 476.301 142.81 476.301 140.57V134.2H474.901V140.612C474.901 142.012 473.949 142.81 472.535 142.81C471.135 142.81 470.183 142.012 470.183 140.612V134.2H468.783V140.57C468.783 142.81 470.295 144.112 472.535 144.112ZM480.463 144.112C482.059 144.112 483.109 143.286 483.109 141.998C483.109 138.778 479.077 140.57 479.077 138.82C479.077 138.274 479.567 137.91 480.295 137.91C480.897 137.91 481.681 138.232 481.779 139.044H483.053C482.983 137.714 481.891 136.832 480.295 136.832C478.825 136.832 477.789 137.644 477.789 138.862C477.789 141.872 481.793 140.15 481.793 142.026C481.793 142.544 481.275 142.978 480.463 142.978C479.553 142.978 478.965 142.516 478.881 141.704H477.607C477.705 143.188 478.811 144.112 480.463 144.112ZM489.519 141.704C489.323 142.502 488.651 142.95 487.615 142.95C486.383 142.95 485.515 142.04 485.403 140.71H490.793C490.807 140.584 490.821 140.36 490.821 140.178C490.821 138.386 489.659 136.832 487.475 136.832C485.305 136.832 484.073 138.456 484.073 140.43C484.073 142.39 485.431 144.112 487.615 144.112C489.351 144.112 490.625 143.16 490.877 141.704H489.519ZM487.475 137.924C488.637 137.924 489.365 138.638 489.449 139.716H485.445C485.655 138.54 486.369 137.924 487.475 137.924ZM496.292 138.12V136.944H495.438C494.444 136.944 493.884 137.364 493.562 138.302V136.944H492.204V144H493.562V140.808C493.562 139.268 493.982 138.12 495.27 138.12H496.292ZM499.303 145.456L500.227 144.756C499.023 143.048 498.421 141.242 498.421 139.31C498.421 137.378 499.023 135.572 500.227 133.864L499.303 133.164C497.903 134.872 497.133 137.042 497.133 139.31C497.133 141.578 497.903 143.748 499.303 145.456ZM501.658 145.456C503.058 143.748 503.828 141.578 503.828 139.31C503.828 137.042 503.058 134.872 501.658 133.164L500.734 133.864C501.938 135.572 502.54 137.378 502.54 139.31C502.54 141.242 501.938 143.048 500.734 144.756L501.658 145.456Z" fill="#8E8E93"/>
<g clip-path="url(#clip0_333_415)">
<path d="M452.994 121.842H463.559C465.051 121.818 466.233 121.123 466.794 120.039C467.443 118.826 467.209 117.311 466.344 116.263C464.302 113.788 462.266 111.314 460.225 108.84C459.897 108.433 459.95 107.826 460.347 107.49L466.578 102.241L467.367 103.101L461.447 108.315L467.326 115.438C468.491 116.84 468.795 118.831 468.005 120.487C467.28 122.013 465.712 123.073 463.682 123.073L453 123.085C452.661 123.085 452.386 122.808 452.386 122.466V122.455C452.38 122.119 452.655 121.842 452.994 121.842Z" fill="#B89EFF"/>
<path d="M452.859 121.854L463.6 119.857C464.138 119.745 464.542 119.362 464.729 118.843C464.905 118.313 464.805 117.771 464.454 117.341C461.921 114.26 459.4 111.202 456.867 108.109C456.615 107.803 456.527 107.426 456.615 107.025C456.715 106.636 456.954 106.342 457.329 106.177L466.782 102.047L467.122 103.261L458.107 107.214C458.042 107.237 457.996 107.29 457.984 107.355C457.961 107.42 457.984 107.485 458.031 107.544C460.499 110.536 462.945 113.506 465.413 116.504C466.08 117.323 466.303 118.26 465.952 119.279C465.636 120.228 464.899 120.911 463.922 121.1L455.433 122.679L452.859 121.854Z" fill="#A17FFF"/>
<path d="M467.075 103.266L456.334 105.264C455.784 105.376 455.381 105.747 455.205 106.277C455.03 106.807 455.129 107.349 455.48 107.779C458.013 110.861 460.534 113.918 463.068 117.005C463.319 117.323 463.407 117.7 463.319 118.101C463.22 118.49 462.968 118.785 462.605 118.949L453.152 123.079L452.812 121.866L461.827 117.913C461.88 117.889 461.927 117.836 461.95 117.771C461.962 117.706 461.95 117.642 461.909 117.583C456.556 111.096 459.253 114.36 454.527 108.622C453.86 107.803 453.637 106.866 453.988 105.847C454.304 104.898 455.03 104.215 456.018 104.026L466.659 102.029L467.075 103.266Z" fill="#794FEC"/>
<path d="M466.934 103.278H456.369C454.877 103.302 453.702 103.997 453.134 105.069C452.497 106.295 452.731 107.809 453.596 108.857C455.638 111.332 457.674 113.806 459.715 116.281C460.043 116.687 459.99 117.294 459.587 117.63L453.368 122.879L452.578 122.019L458.493 116.805L452.619 109.67C451.455 108.268 451.151 106.277 451.941 104.622C452.66 103.102 454.234 102.041 456.252 102.041L466.934 102.029C467.274 102.029 467.56 102.306 467.56 102.648V102.66C467.56 103.001 467.274 103.278 466.934 103.278Z" fill="#562EC2"/>
<path d="M459.037 118.089L453.363 122.873L452.573 122.007L457.762 117.436L459.037 118.089Z" fill="#562EC2"/>
<path d="M460.845 119.721L453.158 123.079L452.818 121.866L460.178 118.637L460.845 119.721Z" fill="#794FEC"/>
<path d="M452.859 121.854L461.459 120.251L461.786 121.477L455.428 122.673L452.859 121.854Z" fill="#A17FFF"/>
<path d="M452.994 121.842H461.892C461.991 122.237 462.044 122.661 462.044 123.079L452.994 123.091C452.655 123.091 452.38 122.814 452.38 122.473V122.461C452.38 122.119 452.655 121.842 452.994 121.842Z" fill="#B89EFF"/>
</g>
<path d="M243.446 139H249.676V137.712H244.902V129.2H243.446V139ZM253.964 139.112C256.078 139.112 257.59 137.586 257.59 135.472C257.59 133.358 256.078 131.832 253.964 131.832C251.85 131.832 250.324 133.358 250.324 135.472C250.324 137.586 251.85 139.112 253.964 139.112ZM253.964 137.922C252.62 137.922 251.71 136.914 251.71 135.472C251.71 134.03 252.62 133.022 253.964 133.022C255.294 133.022 256.204 134.03 256.204 135.472C256.204 136.914 255.294 137.922 253.964 137.922ZM264.198 131.944V132.882C263.764 132.266 262.896 131.832 261.958 131.832C259.802 131.832 258.584 133.372 258.584 135.472C258.584 137.572 259.802 139.112 261.972 139.112C262.966 139.112 263.862 138.706 264.198 138.104V139.252C264.198 140.106 263.61 140.722 262.798 140.722H259.536V141.856H262.938C264.478 141.856 265.556 140.82 265.556 139.336V131.944H264.198ZM262.126 137.922C260.824 137.922 259.97 136.956 259.97 135.472C259.97 133.988 260.824 133.022 262.126 133.022C263.442 133.022 264.296 133.988 264.296 135.472C264.296 136.956 263.442 137.922 262.126 137.922ZM267.258 128.99V130.698H268.77V128.99H267.258ZM267.342 139H268.7V131.944H267.342V139ZM270.418 139H271.776V135.178C271.776 133.946 272.56 133.05 273.666 133.05C274.66 133.05 275.318 133.806 275.318 134.926V139H276.676V134.66C276.676 132.98 275.64 131.832 274.044 131.832C272.994 131.832 272.154 132.308 271.776 133.19V131.944H270.418V139ZM242.093 159.112C243.689 159.112 244.739 158.286 244.739 156.998C244.739 153.778 240.707 155.57 240.707 153.82C240.707 153.274 241.197 152.91 241.925 152.91C242.527 152.91 243.311 153.232 243.409 154.044H244.683C244.613 152.714 243.521 151.832 241.925 151.832C240.455 151.832 239.419 152.644 239.419 153.862C239.419 156.872 243.423 155.15 243.423 157.026C243.423 157.544 242.905 157.978 242.093 157.978C241.183 157.978 240.595 157.516 240.511 156.704H239.237C239.335 158.188 240.441 159.112 242.093 159.112ZM249.203 159.112C250.995 159.112 252.255 158.104 252.479 156.62H251.135C250.911 157.418 250.197 157.922 249.231 157.922C247.831 157.922 247.117 156.83 247.117 155.472C247.117 154.114 247.817 153.022 249.231 153.022C250.183 153.022 250.995 153.61 251.121 154.408H252.479C252.283 152.812 250.855 151.832 249.203 151.832C246.977 151.832 245.703 153.526 245.703 155.472C245.703 157.418 246.977 159.112 249.203 159.112ZM257.853 153.12V151.944H256.999C256.005 151.944 255.445 152.364 255.123 153.302V151.944H253.765V159H255.123V155.808C255.123 154.268 255.543 153.12 256.831 153.12H257.853ZM263.714 156.704C263.518 157.502 262.846 157.95 261.81 157.95C260.578 157.95 259.71 157.04 259.598 155.71H264.988C265.002 155.584 265.016 155.36 265.016 155.178C265.016 153.386 263.854 151.832 261.67 151.832C259.5 151.832 258.268 153.456 258.268 155.43C258.268 157.39 259.626 159.112 261.81 159.112C263.546 159.112 264.82 158.16 265.072 156.704H263.714ZM261.67 152.924C262.832 152.924 263.56 153.638 263.644 154.716H259.64C259.85 153.54 260.564 152.924 261.67 152.924ZM271.438 156.704C271.242 157.502 270.57 157.95 269.534 157.95C268.302 157.95 267.434 157.04 267.322 155.71H272.712C272.726 155.584 272.74 155.36 272.74 155.178C272.74 153.386 271.578 151.832 269.394 151.832C267.224 151.832 265.992 153.456 265.992 155.43C265.992 157.39 267.35 159.112 269.534 159.112C271.27 159.112 272.544 158.16 272.796 156.704H271.438ZM269.394 152.924C270.556 152.924 271.284 153.638 271.368 154.716H267.364C267.574 153.54 268.288 152.924 269.394 152.924ZM274.123 159H275.481V155.178C275.481 153.946 276.265 153.05 277.371 153.05C278.365 153.05 279.023 153.806 279.023 154.926V159H280.381V154.66C280.381 152.98 279.345 151.832 277.749 151.832C276.699 151.832 275.859 152.308 275.481 153.19V151.944H274.123V159Z" fill="#8E8E93"/>
<path d="M254.465 102.647C254.66 102.841 254.66 103.159 254.465 103.353C254.271 103.548 253.953 103.548 253.759 103.353C253.564 103.159 253.564 102.841 253.759 102.647C253.953 102.451 254.269 102.451 254.465 102.647Z" stroke="#48484A" stroke-width="1.5" stroke-linecap="round" stroke-linejoin="round"/>
<path d="M260.353 102.647C260.548 102.841 260.548 103.159 260.353 103.353C260.159 103.548 259.841 103.548 259.647 103.353C259.452 103.159 259.452 102.841 259.647 102.647C259.841 102.451 260.159 102.451 260.353 102.647Z" stroke="#48484A" stroke-width="1.5" stroke-linecap="round" stroke-linejoin="round"/>
<path d="M261.333 91H262.667C264.14 91 265.333 92.1933 265.333 93.6667C265.333 92.1933 266.527 91 268 91H269.333" stroke="#48484A" stroke-width="1.5" stroke-linecap="round" stroke-linejoin="round"/>
<path d="M265.333 112.333V93.6665" stroke="#48484A" stroke-width="1.5" stroke-linecap="round" stroke-linejoin="round"/>
<path d="M269.333 115H268C266.527 115 265.333 113.807 265.333 112.333C265.333 113.807 264.14 115 262.667 115H261.333" stroke="#48484A" stroke-width="1.5" stroke-linecap="round" stroke-linejoin="round"/>
<path d="M261.333 109.667H250.667C249.193 109.667 248 108.473 248 107V99.0002C248 97.5268 249.193 96.3335 250.667 96.3335H261.333" stroke="#48484A" stroke-width="1.5" stroke-linecap="round" stroke-linejoin="round"/>
<path d="M265.333 109.667H269.333C270.807 109.667 272 108.473 272 107V99.0002C272 97.5268 270.807 96.3335 269.333 96.3335H265.333" stroke="#48484A" stroke-width="1.5" stroke-linecap="round" stroke-linejoin="round"/>
<path d="M39.2762 131H40.7322V127.108H43.0702C45.0442 127.108 46.2342 125.89 46.2342 124.154C46.2342 122.418 45.0442 121.2 43.0702 121.2H39.2762V131ZM40.7322 125.848V122.46H43.0282C44.2882 122.46 44.7782 123.258 44.7782 124.154C44.7782 125.05 44.2882 125.848 43.0282 125.848H40.7322ZM52.2019 128.704C52.0059 129.502 51.3339 129.95 50.2979 129.95C49.0659 129.95 48.1979 129.04 48.0859 127.71H53.4759C53.4899 127.584 53.5039 127.36 53.5039 127.178C53.5039 125.386 52.3419 123.832 50.1579 123.832C47.9879 123.832 46.7559 125.456 46.7559 127.43C46.7559 129.39 48.1139 131.112 50.2979 131.112C52.0339 131.112 53.3079 130.16 53.5599 128.704H52.2019ZM50.1579 124.924C51.3199 124.924 52.0479 125.638 52.1319 126.716H48.1279C48.3379 125.54 49.0519 124.924 50.1579 124.924ZM58.9746 125.12V123.944H58.1206C57.1266 123.944 56.5666 124.364 56.2446 125.302V123.944H54.8866V131H56.2446V127.808C56.2446 126.268 56.6646 125.12 57.9526 125.12H58.9746ZM62.3821 131.112C63.9781 131.112 65.0281 130.286 65.0281 128.998C65.0281 125.778 60.9961 127.57 60.9961 125.82C60.9961 125.274 61.4861 124.91 62.2141 124.91C62.8161 124.91 63.6001 125.232 63.6981 126.044H64.9721C64.9021 124.714 63.8101 123.832 62.2141 123.832C60.7441 123.832 59.7081 124.644 59.7081 125.862C59.7081 128.872 63.7121 127.15 63.7121 129.026C63.7121 129.544 63.1941 129.978 62.3821 129.978C61.4721 129.978 60.8841 129.516 60.8001 128.704H59.5261C59.6241 130.188 60.7301 131.112 62.3821 131.112ZM69.6323 131.112C71.7463 131.112 73.2583 129.586 73.2583 127.472C73.2583 125.358 71.7463 123.832 69.6323 123.832C67.5183 123.832 65.9923 125.358 65.9923 127.472C65.9923 129.586 67.5183 131.112 69.6323 131.112ZM69.6323 129.922C68.2883 129.922 67.3783 128.914 67.3783 127.472C67.3783 126.03 68.2883 125.022 69.6323 125.022C70.9623 125.022 71.8723 126.03 71.8723 127.472C71.8723 128.914 70.9623 129.922 69.6323 129.922ZM74.5877 131H75.9457V127.178C75.9457 125.946 76.7297 125.05 77.8357 125.05C78.8297 125.05 79.4877 125.806 79.4877 126.926V131H80.8457V126.66C80.8457 124.98 79.8097 123.832 78.2137 123.832C77.1637 123.832 76.3237 124.308 75.9457 125.19V123.944H74.5877V131Z" fill="#8E8E93"/>
<rect x="201" y="1" width="118" height="248" rx="14" stroke="#48484A" stroke-width="2" stroke-dasharray="4 4"/>
<path d="M134 124C133.448 124 133 124.448 133 125C133 125.552 133.448 126 134 126V124ZM185.707 125.707C186.098 125.317 186.098 124.683 185.707 124.293L179.343 117.929C178.953 117.538 178.319 117.538 177.929 117.929C177.538 118.319 177.538 118.953 177.929 119.343L183.586 125L177.929 130.657C177.538 131.047 177.538 131.681 177.929 132.071C178.319 132.462 178.953 132.462 179.343 132.071L185.707 125.707ZM134 126H185V124H134V126Z" fill="#48484A"/>
<path d="M334 124C333.448 124 333 124.448 333 125C333 125.552 333.448 126 334 126V124ZM385.707 125.707C386.098 125.317 386.098 124.683 385.707 124.293L379.343 117.929C378.953 117.538 378.319 117.538 377.929 117.929C377.538 118.319 377.538 118.953 377.929 119.343L383.586 125L377.929 130.657C377.538 131.047 377.538 131.681 377.929 132.071C378.319 132.462 378.953 132.462 379.343 132.071L385.707 125.707ZM334 126H385V124H334V126Z" fill="#48484A"/>
<defs>
<clipPath id="clip0_333_415">
<rect width="18" height="21.2727" fill="white" transform="translate(451 102)"/>
</clipPath>
</defs>
</svg>
