<svg width="536" height="680" viewBox="0 0 536 680" fill="none" xmlns="http://www.w3.org/2000/svg">
<path d="M451.223 381H454.233C456.963 381 459.175 379.292 459.175 376.1C459.175 372.908 456.963 371.2 454.233 371.2H451.223V381ZM452.679 379.712V372.488H454.149C455.969 372.488 457.677 373.51 457.677 376.1C457.677 378.69 455.969 379.712 454.149 379.712H452.679ZM464.673 375.12V373.944H463.819C462.825 373.944 462.265 374.364 461.943 375.302V373.944H460.585V381H461.943V377.808C461.943 376.268 462.363 375.12 463.651 375.12H464.673ZM468.333 373.832C466.667 373.832 465.407 374.868 465.295 376.254H466.555C466.597 375.54 467.311 374.924 468.291 374.924C469.383 374.924 469.999 375.512 469.999 376.366C469.999 376.618 469.845 376.786 469.523 376.786H468.053C466.387 376.786 465.309 377.626 465.309 378.984C465.309 380.244 466.261 381.112 467.703 381.112C468.767 381.112 469.663 380.608 469.999 379.852V381H471.357V376.45C471.357 374.882 470.153 373.832 468.333 373.832ZM467.969 380.034C467.185 380.034 466.653 379.6 466.653 378.956C466.653 378.214 467.255 377.738 468.179 377.738H469.999V377.906C469.999 379.208 469.257 380.034 467.969 380.034ZM474.142 381H475.402L476.998 375.736L478.608 381H479.868L482.052 373.944H480.68L479.238 379.194L477.656 373.944H476.368L474.772 379.194L473.316 373.944H471.958L474.142 381ZM483.059 370.99V372.698H484.571V370.99H483.059ZM483.143 381H484.501V373.944H483.143V381ZM486.22 381H487.578V377.178C487.578 375.946 488.362 375.05 489.468 375.05C490.462 375.05 491.12 375.806 491.12 376.926V381H492.478V376.66C492.478 374.98 491.442 373.832 489.846 373.832C488.796 373.832 487.956 374.308 487.578 375.19V373.944H486.22V381ZM499.496 373.944V374.882C499.062 374.266 498.194 373.832 497.256 373.832C495.1 373.832 493.882 375.372 493.882 377.472C493.882 379.572 495.1 381.112 497.27 381.112C498.264 381.112 499.16 380.706 499.496 380.104V381.252C499.496 382.106 498.908 382.722 498.096 382.722H494.834V383.856H498.236C499.776 383.856 500.854 382.82 500.854 381.336V373.944H499.496ZM497.424 379.922C496.122 379.922 495.268 378.956 495.268 377.472C495.268 375.988 496.122 375.022 497.424 375.022C498.74 375.022 499.594 375.988 499.594 377.472C499.594 378.956 498.74 379.922 497.424 379.922ZM458.093 401.112C459.689 401.112 460.739 400.286 460.739 398.998C460.739 395.778 456.707 397.57 456.707 395.82C456.707 395.274 457.197 394.91 457.925 394.91C458.527 394.91 459.311 395.232 459.409 396.044H460.683C460.613 394.714 459.521 393.832 457.925 393.832C456.455 393.832 455.419 394.644 455.419 395.862C455.419 398.872 459.423 397.15 459.423 399.026C459.423 399.544 458.905 399.978 458.093 399.978C457.183 399.978 456.595 399.516 456.511 398.704H455.237C455.335 400.188 456.441 401.112 458.093 401.112ZM465.203 401.112C466.995 401.112 468.255 400.104 468.479 398.62H467.135C466.911 399.418 466.197 399.922 465.231 399.922C463.831 399.922 463.117 398.83 463.117 397.472C463.117 396.114 463.817 395.022 465.231 395.022C466.183 395.022 466.995 395.61 467.121 396.408H468.479C468.283 394.812 466.855 393.832 465.203 393.832C462.977 393.832 461.703 395.526 461.703 397.472C461.703 399.418 462.977 401.112 465.203 401.112ZM473.853 395.12V393.944H472.999C472.005 393.944 471.445 394.364 471.123 395.302V393.944H469.765V401H471.123V397.808C471.123 396.268 471.543 395.12 472.831 395.12H473.853ZM479.714 398.704C479.518 399.502 478.846 399.95 477.81 399.95C476.578 399.95 475.71 399.04 475.598 397.71H480.988C481.002 397.584 481.016 397.36 481.016 397.178C481.016 395.386 479.854 393.832 477.67 393.832C475.5 393.832 474.268 395.456 474.268 397.43C474.268 399.39 475.626 401.112 477.81 401.112C479.546 401.112 480.82 400.16 481.072 398.704H479.714ZM477.67 394.924C478.832 394.924 479.56 395.638 479.644 396.716H475.64C475.85 395.54 476.564 394.924 477.67 394.924ZM487.438 398.704C487.242 399.502 486.57 399.95 485.534 399.95C484.302 399.95 483.434 399.04 483.322 397.71H488.712C488.726 397.584 488.74 397.36 488.74 397.178C488.74 395.386 487.578 393.832 485.394 393.832C483.224 393.832 481.992 395.456 481.992 397.43C481.992 399.39 483.35 401.112 485.534 401.112C487.27 401.112 488.544 400.16 488.796 398.704H487.438ZM485.394 394.924C486.556 394.924 487.284 395.638 487.368 396.716H483.364C483.574 395.54 484.288 394.924 485.394 394.924ZM490.123 401H491.481V397.178C491.481 395.946 492.265 395.05 493.371 395.05C494.365 395.05 495.023 395.806 495.023 396.926V401H496.381V396.66C496.381 394.98 495.345 393.832 493.749 393.832C492.699 393.832 491.859 394.308 491.481 395.19V393.944H490.123V401Z" fill="#8E8E93"/>
<path d="M453.478 121H454.934V111.2H453.478V121ZM456.798 121H458.156V117.178C458.156 115.946 458.94 115.05 460.046 115.05C461.04 115.05 461.698 115.806 461.698 116.926V121H463.056V116.66C463.056 114.98 462.02 113.832 460.424 113.832C459.374 113.832 458.534 114.308 458.156 115.19V113.944H456.798V121ZM467.274 121.112C468.87 121.112 469.92 120.286 469.92 118.998C469.92 115.778 465.888 117.57 465.888 115.82C465.888 115.274 466.378 114.91 467.106 114.91C467.708 114.91 468.492 115.232 468.59 116.044H469.864C469.794 114.714 468.702 113.832 467.106 113.832C465.636 113.832 464.6 114.644 464.6 115.862C464.6 118.872 468.604 117.15 468.604 119.026C468.604 119.544 468.086 119.978 467.274 119.978C466.364 119.978 465.776 119.516 465.692 118.704H464.418C464.516 120.188 465.622 121.112 467.274 121.112ZM471.401 123.856H472.759V120.006C473.165 120.678 474.005 121.112 474.943 121.112C477.085 121.112 478.359 119.572 478.359 117.472C478.359 115.372 477.141 113.832 475.013 113.832C474.033 113.832 473.179 114.294 472.759 114.994V113.944H471.401V123.856ZM474.817 119.922C473.501 119.922 472.647 118.942 472.647 117.472C472.647 116.002 473.501 115.022 474.817 115.022C476.119 115.022 476.987 116.002 476.987 117.472C476.987 118.942 476.119 119.922 474.817 119.922ZM484.724 118.704C484.528 119.502 483.856 119.95 482.82 119.95C481.588 119.95 480.72 119.04 480.608 117.71H485.998C486.012 117.584 486.026 117.36 486.026 117.178C486.026 115.386 484.864 113.832 482.68 113.832C480.51 113.832 479.278 115.456 479.278 117.43C479.278 119.39 480.636 121.112 482.82 121.112C484.556 121.112 485.83 120.16 486.082 118.704H484.724ZM482.68 114.924C483.842 114.924 484.57 115.638 484.654 116.716H480.65C480.86 115.54 481.574 114.924 482.68 114.924ZM490.503 121.112C492.295 121.112 493.555 120.104 493.779 118.62H492.435C492.211 119.418 491.497 119.922 490.531 119.922C489.131 119.922 488.417 118.83 488.417 117.472C488.417 116.114 489.117 115.022 490.531 115.022C491.483 115.022 492.295 115.61 492.421 116.408H493.779C493.583 114.812 492.155 113.832 490.503 113.832C488.277 113.832 487.003 115.526 487.003 117.472C487.003 119.418 488.277 121.112 490.503 121.112ZM495.782 111.732V113.944H494.34V115.12H495.782V118.69C495.782 120.132 496.692 121 498.12 121H499.226V119.824H498.232C497.546 119.824 497.14 119.404 497.14 118.648V115.12H499.226V113.944H497.14V111.732H495.782ZM458.093 141.112C459.689 141.112 460.739 140.286 460.739 138.998C460.739 135.778 456.707 137.57 456.707 135.82C456.707 135.274 457.197 134.91 457.925 134.91C458.527 134.91 459.311 135.232 459.409 136.044H460.683C460.613 134.714 459.521 133.832 457.925 133.832C456.455 133.832 455.419 134.644 455.419 135.862C455.419 138.872 459.423 137.15 459.423 139.026C459.423 139.544 458.905 139.978 458.093 139.978C457.183 139.978 456.595 139.516 456.511 138.704H455.237C455.335 140.188 456.441 141.112 458.093 141.112ZM465.203 141.112C466.995 141.112 468.255 140.104 468.479 138.62H467.135C466.911 139.418 466.197 139.922 465.231 139.922C463.831 139.922 463.117 138.83 463.117 137.472C463.117 136.114 463.817 135.022 465.231 135.022C466.183 135.022 466.995 135.61 467.121 136.408H468.479C468.283 134.812 466.855 133.832 465.203 133.832C462.977 133.832 461.703 135.526 461.703 137.472C461.703 139.418 462.977 141.112 465.203 141.112ZM473.853 135.12V133.944H472.999C472.005 133.944 471.445 134.364 471.123 135.302V133.944H469.765V141H471.123V137.808C471.123 136.268 471.543 135.12 472.831 135.12H473.853ZM479.714 138.704C479.518 139.502 478.846 139.95 477.81 139.95C476.578 139.95 475.71 139.04 475.598 137.71H480.988C481.002 137.584 481.016 137.36 481.016 137.178C481.016 135.386 479.854 133.832 477.67 133.832C475.5 133.832 474.268 135.456 474.268 137.43C474.268 139.39 475.626 141.112 477.81 141.112C479.546 141.112 480.82 140.16 481.072 138.704H479.714ZM477.67 134.924C478.832 134.924 479.56 135.638 479.644 136.716H475.64C475.85 135.54 476.564 134.924 477.67 134.924ZM487.438 138.704C487.242 139.502 486.57 139.95 485.534 139.95C484.302 139.95 483.434 139.04 483.322 137.71H488.712C488.726 137.584 488.74 137.36 488.74 137.178C488.74 135.386 487.578 133.832 485.394 133.832C483.224 133.832 481.992 135.456 481.992 137.43C481.992 139.39 483.35 141.112 485.534 141.112C487.27 141.112 488.544 140.16 488.796 138.704H487.438ZM485.394 134.924C486.556 134.924 487.284 135.638 487.368 136.716H483.364C483.574 135.54 484.288 134.924 485.394 134.924ZM490.123 141H491.481V137.178C491.481 135.946 492.265 135.05 493.371 135.05C494.365 135.05 495.023 135.806 495.023 136.926V141H496.381V136.66C496.381 134.98 495.345 133.832 493.749 133.832C492.699 133.832 491.859 134.308 491.481 135.19V133.944H490.123V141Z" fill="#8E8E93"/>
<rect x="417" y="261" width="118" height="248" rx="14" stroke="#48484A" stroke-width="2"/>
<rect x="417" y="1" width="118" height="248" rx="14" stroke="#48484A" stroke-width="2"/>
<path d="M265.98 551.112C268.248 551.112 269.998 549.768 270.208 547.85H268.738C268.584 548.998 267.422 549.824 265.966 549.824C264.062 549.824 262.69 548.522 262.69 546.1C262.69 543.678 264.062 542.376 265.966 542.376C267.394 542.376 268.542 543.202 268.71 544.35H270.236C269.97 542.432 268.206 541.088 265.98 541.088C263.488 541.088 261.192 542.74 261.192 546.1C261.192 549.46 263.46 551.112 265.98 551.112ZM271.606 551H272.964V547.178C272.964 545.946 273.748 545.05 274.854 545.05C275.848 545.05 276.506 545.806 276.506 546.926V551H277.864V546.66C277.864 544.98 276.828 543.832 275.232 543.832C274.182 543.832 273.342 544.308 272.964 545.19V540.99H271.606V551ZM282.279 543.832C280.613 543.832 279.353 544.868 279.241 546.254H280.501C280.543 545.54 281.257 544.924 282.237 544.924C283.329 544.924 283.945 545.512 283.945 546.366C283.945 546.618 283.791 546.786 283.469 546.786H281.999C280.333 546.786 279.255 547.626 279.255 548.984C279.255 550.244 280.207 551.112 281.649 551.112C282.713 551.112 283.609 550.608 283.945 549.852V551H285.303V546.45C285.303 544.882 284.099 543.832 282.279 543.832ZM281.915 550.034C281.131 550.034 280.599 549.6 280.599 548.956C280.599 548.214 281.201 547.738 282.125 547.738H283.945V547.906C283.945 549.208 283.203 550.034 281.915 550.034ZM287.619 541.732V543.944H286.177V545.12H287.619V548.69C287.619 550.132 288.529 551 289.957 551H291.063V549.824H290.069C289.383 549.824 288.977 549.404 288.977 548.648V545.12H291.063V543.944H288.977V541.732H287.619ZM258.093 571.112C259.689 571.112 260.739 570.286 260.739 568.998C260.739 565.778 256.707 567.57 256.707 565.82C256.707 565.274 257.197 564.91 257.925 564.91C258.527 564.91 259.311 565.232 259.409 566.044H260.683C260.613 564.714 259.521 563.832 257.925 563.832C256.455 563.832 255.419 564.644 255.419 565.862C255.419 568.872 259.423 567.15 259.423 569.026C259.423 569.544 258.905 569.978 258.093 569.978C257.183 569.978 256.595 569.516 256.511 568.704H255.237C255.335 570.188 256.441 571.112 258.093 571.112ZM265.203 571.112C266.995 571.112 268.255 570.104 268.479 568.62H267.135C266.911 569.418 266.197 569.922 265.231 569.922C263.831 569.922 263.117 568.83 263.117 567.472C263.117 566.114 263.817 565.022 265.231 565.022C266.183 565.022 266.995 565.61 267.121 566.408H268.479C268.283 564.812 266.855 563.832 265.203 563.832C262.977 563.832 261.703 565.526 261.703 567.472C261.703 569.418 262.977 571.112 265.203 571.112ZM273.853 565.12V563.944H272.999C272.005 563.944 271.445 564.364 271.123 565.302V563.944H269.765V571H271.123V567.808C271.123 566.268 271.543 565.12 272.831 565.12H273.853ZM279.714 568.704C279.518 569.502 278.846 569.95 277.81 569.95C276.578 569.95 275.71 569.04 275.598 567.71H280.988C281.002 567.584 281.016 567.36 281.016 567.178C281.016 565.386 279.854 563.832 277.67 563.832C275.5 563.832 274.268 565.456 274.268 567.43C274.268 569.39 275.626 571.112 277.81 571.112C279.546 571.112 280.82 570.16 281.072 568.704H279.714ZM277.67 564.924C278.832 564.924 279.56 565.638 279.644 566.716H275.64C275.85 565.54 276.564 564.924 277.67 564.924ZM287.438 568.704C287.242 569.502 286.57 569.95 285.534 569.95C284.302 569.95 283.434 569.04 283.322 567.71H288.712C288.726 567.584 288.74 567.36 288.74 567.178C288.74 565.386 287.578 563.832 285.394 563.832C283.224 563.832 281.992 565.456 281.992 567.43C281.992 569.39 283.35 571.112 285.534 571.112C287.27 571.112 288.544 570.16 288.796 568.704H287.438ZM285.394 564.924C286.556 564.924 287.284 565.638 287.368 566.716H283.364C283.574 565.54 284.288 564.924 285.394 564.924ZM290.123 571H291.481V567.178C291.481 565.946 292.265 565.05 293.371 565.05C294.365 565.05 295.023 565.806 295.023 566.926V571H296.381V566.66C296.381 564.98 295.345 563.832 293.749 563.832C292.699 563.832 291.859 564.308 291.481 565.19V563.944H290.123V571Z" fill="#8E8E93"/>
<rect x="217" y="431" width="118" height="248" rx="14" stroke="#48484A" stroke-width="2"/>
<path d="M243.272 251H244.728V243.468L249.46 251H251.07V241.2H249.614V248.746L244.896 241.2H243.272V251ZM257.975 248.704C257.779 249.502 257.107 249.95 256.071 249.95C254.839 249.95 253.971 249.04 253.859 247.71H259.249C259.263 247.584 259.277 247.36 259.277 247.178C259.277 245.386 258.115 243.832 255.931 243.832C253.761 243.832 252.529 245.456 252.529 247.43C252.529 249.39 253.887 251.112 256.071 251.112C257.807 251.112 259.081 250.16 259.333 248.704H257.975ZM255.931 244.924C257.093 244.924 257.821 245.638 257.905 246.716H253.901C254.111 245.54 254.825 244.924 255.931 244.924ZM261.995 251H263.255L264.851 245.736L266.461 251H267.721L269.905 243.944H268.533L267.091 249.194L265.509 243.944H264.221L262.625 249.194L261.169 243.944H259.811L261.995 251ZM275.034 241.732V243.944H273.592V245.12H275.034V248.69C275.034 250.132 275.944 251 277.372 251H278.478V249.824H277.484C276.798 249.824 276.392 249.404 276.392 248.648V245.12H278.478V243.944H276.392V241.732H275.034ZM279.552 240.99V242.698H281.064V240.99H279.552ZM279.636 251H280.994V243.944H279.636V251ZM285.807 251.112C287.599 251.112 288.859 250.104 289.083 248.62H287.739C287.515 249.418 286.801 249.922 285.835 249.922C284.435 249.922 283.721 248.83 283.721 247.472C283.721 246.114 284.421 245.022 285.835 245.022C286.787 245.022 287.599 245.61 287.725 246.408H289.083C288.887 244.812 287.459 243.832 285.807 243.832C283.581 243.832 282.307 245.526 282.307 247.472C282.307 249.418 283.581 251.112 285.807 251.112ZM295.227 251H296.907L293.673 246.702L296.641 243.944H294.877L291.811 246.758V240.99H290.439V251H291.811V248.438L292.693 247.626L295.227 251ZM302.587 248.704C302.391 249.502 301.719 249.95 300.683 249.95C299.451 249.95 298.583 249.04 298.471 247.71H303.861C303.875 247.584 303.889 247.36 303.889 247.178C303.889 245.386 302.727 243.832 300.543 243.832C298.373 243.832 297.141 245.456 297.141 247.43C297.141 249.39 298.499 251.112 300.683 251.112C302.419 251.112 303.693 250.16 303.945 248.704H302.587ZM300.543 244.924C301.705 244.924 302.433 245.638 302.517 246.716H298.513C298.723 245.54 299.437 244.924 300.543 244.924ZM305.987 241.732V243.944H304.545V245.12H305.987V248.69C305.987 250.132 306.897 251 308.325 251H309.431V249.824H308.437C307.751 249.824 307.345 249.404 307.345 248.648V245.12H309.431V243.944H307.345V241.732H305.987ZM258.093 271.112C259.689 271.112 260.739 270.286 260.739 268.998C260.739 265.778 256.707 267.57 256.707 265.82C256.707 265.274 257.197 264.91 257.925 264.91C258.527 264.91 259.311 265.232 259.409 266.044H260.683C260.613 264.714 259.521 263.832 257.925 263.832C256.455 263.832 255.419 264.644 255.419 265.862C255.419 268.872 259.423 267.15 259.423 269.026C259.423 269.544 258.905 269.978 258.093 269.978C257.183 269.978 256.595 269.516 256.511 268.704H255.237C255.335 270.188 256.441 271.112 258.093 271.112ZM265.203 271.112C266.995 271.112 268.255 270.104 268.479 268.62H267.135C266.911 269.418 266.197 269.922 265.231 269.922C263.831 269.922 263.117 268.83 263.117 267.472C263.117 266.114 263.817 265.022 265.231 265.022C266.183 265.022 266.995 265.61 267.121 266.408H268.479C268.283 264.812 266.855 263.832 265.203 263.832C262.977 263.832 261.703 265.526 261.703 267.472C261.703 269.418 262.977 271.112 265.203 271.112ZM273.853 265.12V263.944H272.999C272.005 263.944 271.445 264.364 271.123 265.302V263.944H269.765V271H271.123V267.808C271.123 266.268 271.543 265.12 272.831 265.12H273.853ZM279.714 268.704C279.518 269.502 278.846 269.95 277.81 269.95C276.578 269.95 275.71 269.04 275.598 267.71H280.988C281.002 267.584 281.016 267.36 281.016 267.178C281.016 265.386 279.854 263.832 277.67 263.832C275.5 263.832 274.268 265.456 274.268 267.43C274.268 269.39 275.626 271.112 277.81 271.112C279.546 271.112 280.82 270.16 281.072 268.704H279.714ZM277.67 264.924C278.832 264.924 279.56 265.638 279.644 266.716H275.64C275.85 265.54 276.564 264.924 277.67 264.924ZM287.438 268.704C287.242 269.502 286.57 269.95 285.534 269.95C284.302 269.95 283.434 269.04 283.322 267.71H288.712C288.726 267.584 288.74 267.36 288.74 267.178C288.74 265.386 287.578 263.832 285.394 263.832C283.224 263.832 281.992 265.456 281.992 267.43C281.992 269.39 283.35 271.112 285.534 271.112C287.27 271.112 288.544 270.16 288.796 268.704H287.438ZM285.394 264.924C286.556 264.924 287.284 265.638 287.368 266.716H283.364C283.574 265.54 284.288 264.924 285.394 264.924ZM290.123 271H291.481V267.178C291.481 265.946 292.265 265.05 293.371 265.05C294.365 265.05 295.023 265.806 295.023 266.926V271H296.381V266.66C296.381 264.98 295.345 263.832 293.749 263.832C292.699 263.832 291.859 264.308 291.481 265.19V263.944H290.123V271Z" fill="#8E8E93"/>
<rect x="217" y="131" width="118" height="248" rx="14" stroke="#48484A" stroke-width="2"/>
<path d="M64.3518 391.2V395.316H59.4938V391.2H58.0378V401H59.4938V396.604H64.3518V401H65.8078V391.2H64.3518ZM70.9075 401.112C73.0215 401.112 74.5335 399.586 74.5335 397.472C74.5335 395.358 73.0215 393.832 70.9075 393.832C68.7935 393.832 67.2675 395.358 67.2675 397.472C67.2675 399.586 68.7935 401.112 70.9075 401.112ZM70.9075 399.922C69.5635 399.922 68.6535 398.914 68.6535 397.472C68.6535 396.03 69.5635 395.022 70.9075 395.022C72.2375 395.022 73.1475 396.03 73.1475 397.472C73.1475 398.914 72.2375 399.922 70.9075 399.922ZM75.863 401H77.221V396.898C77.221 395.778 77.865 395.022 78.943 395.022C79.867 395.022 80.427 395.778 80.427 396.898V401H81.785V396.898C81.785 395.778 82.429 395.022 83.507 395.022C84.445 395.022 85.005 395.778 85.005 396.898V401H86.363V396.52C86.363 394.882 85.411 393.832 83.885 393.832C82.793 393.832 81.869 394.476 81.589 395.274C81.309 394.35 80.455 393.832 79.307 393.832C78.271 393.832 77.515 394.406 77.221 395.204V393.944H75.863V401ZM93.1393 398.704C92.9433 399.502 92.2713 399.95 91.2353 399.95C90.0033 399.95 89.1353 399.04 89.0233 397.71H94.4133C94.4273 397.584 94.4413 397.36 94.4413 397.178C94.4413 395.386 93.2793 393.832 91.0953 393.832C88.9253 393.832 87.6933 395.456 87.6933 397.43C87.6933 399.39 89.0513 401.112 91.2353 401.112C92.9713 401.112 94.2453 400.16 94.4973 398.704H93.1393ZM91.0953 394.924C92.2573 394.924 92.9853 395.638 93.0693 396.716H89.0653C89.2753 395.54 89.9893 394.924 91.0953 394.924ZM58.0929 421.112C59.6889 421.112 60.7389 420.286 60.7389 418.998C60.7389 415.778 56.7069 417.57 56.7069 415.82C56.7069 415.274 57.1969 414.91 57.9249 414.91C58.5269 414.91 59.3109 415.232 59.4089 416.044H60.6829C60.6129 414.714 59.5209 413.832 57.9249 413.832C56.4549 413.832 55.4189 414.644 55.4189 415.862C55.4189 418.872 59.4229 417.15 59.4229 419.026C59.4229 419.544 58.9049 419.978 58.0929 419.978C57.1829 419.978 56.5949 419.516 56.5109 418.704H55.2369C55.3349 420.188 56.4409 421.112 58.0929 421.112ZM65.2031 421.112C66.9951 421.112 68.2551 420.104 68.4791 418.62H67.1351C66.9111 419.418 66.1971 419.922 65.2311 419.922C63.8311 419.922 63.1171 418.83 63.1171 417.472C63.1171 416.114 63.8171 415.022 65.2311 415.022C66.1831 415.022 66.9951 415.61 67.1211 416.408H68.4791C68.2831 414.812 66.8551 413.832 65.2031 413.832C62.9771 413.832 61.7031 415.526 61.7031 417.472C61.7031 419.418 62.9771 421.112 65.2031 421.112ZM73.8533 415.12V413.944H72.9993C72.0053 413.944 71.4453 414.364 71.1233 415.302V413.944H69.7653V421H71.1233V417.808C71.1233 416.268 71.5433 415.12 72.8313 415.12H73.8533ZM79.7135 418.704C79.5175 419.502 78.8455 419.95 77.8095 419.95C76.5775 419.95 75.7095 419.04 75.5975 417.71H80.9875C81.0015 417.584 81.0155 417.36 81.0155 417.178C81.0155 415.386 79.8535 413.832 77.6695 413.832C75.4995 413.832 74.2675 415.456 74.2675 417.43C74.2675 419.39 75.6255 421.112 77.8095 421.112C79.5455 421.112 80.8195 420.16 81.0715 418.704H79.7135ZM77.6695 414.924C78.8315 414.924 79.5595 415.638 79.6435 416.716H75.6395C75.8495 415.54 76.5635 414.924 77.6695 414.924ZM87.4382 418.704C87.2422 419.502 86.5702 419.95 85.5342 419.95C84.3022 419.95 83.4342 419.04 83.3222 417.71H88.7122C88.7262 417.584 88.7402 417.36 88.7402 417.178C88.7402 415.386 87.5782 413.832 85.3942 413.832C83.2242 413.832 81.9922 415.456 81.9922 417.43C81.9922 419.39 83.3502 421.112 85.5342 421.112C87.2702 421.112 88.5442 420.16 88.7962 418.704H87.4382ZM85.3942 414.924C86.5562 414.924 87.2842 415.638 87.3682 416.716H83.3642C83.5742 415.54 84.2882 414.924 85.3942 414.924ZM90.1228 421H91.4808V417.178C91.4808 415.946 92.2648 415.05 93.3708 415.05C94.3648 415.05 95.0228 415.806 95.0228 416.926V421H96.3808V416.66C96.3808 414.98 95.3448 413.832 93.7488 413.832C92.6988 413.832 91.8588 414.308 91.4808 415.19V413.944H90.1228V421Z" fill="#8E8E93"/>
<rect x="16.9999" y="281" width="118" height="248" rx="14" stroke="#48484A" stroke-width="2"/>
<path d="M135.453 492.09C134.934 491.901 134.36 492.168 134.171 492.687C133.982 493.206 134.25 493.78 134.769 493.969L135.453 492.09ZM201.312 517.877C201.812 517.644 202.029 517.049 201.796 516.548L197.992 508.391C197.759 507.891 197.164 507.674 196.663 507.908C196.162 508.141 195.946 508.736 196.179 509.237L199.56 516.487L192.31 519.868C191.809 520.101 191.593 520.696 191.826 521.197C192.06 521.697 192.655 521.914 193.155 521.681L201.312 517.877ZM134.769 493.969L200.547 517.91L201.231 516.031L135.453 492.09L134.769 493.969Z" fill="#48484A"/>
<path d="M134.769 316.031C134.25 316.22 133.982 316.794 134.171 317.313C134.36 317.832 134.934 318.099 135.453 317.91L134.769 316.031ZM201.796 293.452C202.029 292.951 201.812 292.356 201.312 292.123L193.155 288.319C192.655 288.086 192.06 288.303 191.826 288.803C191.593 289.304 191.809 289.899 192.31 290.132L199.56 293.513L196.179 300.763C195.946 301.264 196.162 301.859 196.663 302.092C197.164 302.326 197.759 302.109 197.992 301.609L201.796 293.452ZM135.453 317.91L201.231 293.969L200.547 292.09L134.769 316.031L135.453 317.91Z" fill="#48484A"/>
<path d="M335.453 322.09C334.934 321.901 334.36 322.168 334.171 322.687C333.982 323.206 334.25 323.78 334.769 323.969L335.453 322.09ZM401.312 347.877C401.812 347.644 402.029 347.049 401.796 346.548L397.992 338.391C397.759 337.891 397.164 337.674 396.663 337.908C396.162 338.141 395.946 338.736 396.179 339.237L399.56 346.487L392.31 349.868C391.809 350.101 391.593 350.696 391.826 351.197C392.06 351.697 392.655 351.914 393.155 351.681L401.312 347.877ZM334.769 323.969L400.547 347.91L401.231 346.031L335.453 322.09L334.769 323.969Z" fill="#48484A"/>
<path d="M334.769 186.031C334.25 186.22 333.982 186.794 334.171 187.313C334.36 187.832 334.934 188.099 335.453 187.91L334.769 186.031ZM401.796 163.452C402.029 162.951 401.812 162.356 401.312 162.123L393.155 158.319C392.655 158.086 392.06 158.303 391.826 158.803C391.593 159.304 391.809 159.899 392.31 160.132L399.56 163.513L396.179 170.763C395.946 171.264 396.162 171.859 396.663 172.092C397.164 172.326 397.759 172.109 397.992 171.609L401.796 163.452ZM335.453 187.91L401.231 163.969L400.547 162.09L334.769 186.031L335.453 187.91Z" fill="#48484A"/>
<path fill-rule="evenodd" clip-rule="evenodd" d="M26 332L2 344L6.14401 332L2 320L26 332Z" fill="#6552FF" stroke="white" stroke-width="2"/>
<path fill-rule="evenodd" clip-rule="evenodd" d="M226 182L202 194L206.144 182L202 170L226 182Z" fill="#46D39A" stroke="white" stroke-width="2"/>
</svg>
