<svg width="546" height="700" viewBox="0 0 546 700" fill="none" xmlns="http://www.w3.org/2000/svg">
<path d="M451.223 401H454.233C456.963 401 459.175 399.292 459.175 396.1C459.175 392.908 456.963 391.2 454.233 391.2H451.223V401ZM452.679 399.712V392.488H454.149C455.969 392.488 457.677 393.51 457.677 396.1C457.677 398.69 455.969 399.712 454.149 399.712H452.679ZM464.673 395.12V393.944H463.819C462.825 393.944 462.265 394.364 461.943 395.302V393.944H460.585V401H461.943V397.808C461.943 396.268 462.363 395.12 463.651 395.12H464.673ZM468.333 393.832C466.667 393.832 465.407 394.868 465.295 396.254H466.555C466.597 395.54 467.311 394.924 468.291 394.924C469.383 394.924 469.999 395.512 469.999 396.366C469.999 396.618 469.845 396.786 469.523 396.786H468.053C466.387 396.786 465.309 397.626 465.309 398.984C465.309 400.244 466.261 401.112 467.703 401.112C468.767 401.112 469.663 400.608 469.999 399.852V401H471.357V396.45C471.357 394.882 470.153 393.832 468.333 393.832ZM467.969 400.034C467.185 400.034 466.653 399.6 466.653 398.956C466.653 398.214 467.255 397.738 468.179 397.738H469.999V397.906C469.999 399.208 469.257 400.034 467.969 400.034ZM474.142 401H475.402L476.998 395.736L478.608 401H479.868L482.052 393.944H480.68L479.238 399.194L477.656 393.944H476.368L474.772 399.194L473.316 393.944H471.958L474.142 401ZM483.059 390.99V392.698H484.571V390.99H483.059ZM483.143 401H484.501V393.944H483.143V401ZM486.22 401H487.578V397.178C487.578 395.946 488.362 395.05 489.468 395.05C490.462 395.05 491.12 395.806 491.12 396.926V401H492.478V396.66C492.478 394.98 491.442 393.832 489.846 393.832C488.796 393.832 487.956 394.308 487.578 395.19V393.944H486.22V401ZM499.496 393.944V394.882C499.062 394.266 498.194 393.832 497.256 393.832C495.1 393.832 493.882 395.372 493.882 397.472C493.882 399.572 495.1 401.112 497.27 401.112C498.264 401.112 499.16 400.706 499.496 400.104V401.252C499.496 402.106 498.908 402.722 498.096 402.722H494.834V403.856H498.236C499.776 403.856 500.854 402.82 500.854 401.336V393.944H499.496ZM497.424 399.922C496.122 399.922 495.268 398.956 495.268 397.472C495.268 395.988 496.122 395.022 497.424 395.022C498.74 395.022 499.594 395.988 499.594 397.472C499.594 398.956 498.74 399.922 497.424 399.922ZM458.093 421.112C459.689 421.112 460.739 420.286 460.739 418.998C460.739 415.778 456.707 417.57 456.707 415.82C456.707 415.274 457.197 414.91 457.925 414.91C458.527 414.91 459.311 415.232 459.409 416.044H460.683C460.613 414.714 459.521 413.832 457.925 413.832C456.455 413.832 455.419 414.644 455.419 415.862C455.419 418.872 459.423 417.15 459.423 419.026C459.423 419.544 458.905 419.978 458.093 419.978C457.183 419.978 456.595 419.516 456.511 418.704H455.237C455.335 420.188 456.441 421.112 458.093 421.112ZM465.203 421.112C466.995 421.112 468.255 420.104 468.479 418.62H467.135C466.911 419.418 466.197 419.922 465.231 419.922C463.831 419.922 463.117 418.83 463.117 417.472C463.117 416.114 463.817 415.022 465.231 415.022C466.183 415.022 466.995 415.61 467.121 416.408H468.479C468.283 414.812 466.855 413.832 465.203 413.832C462.977 413.832 461.703 415.526 461.703 417.472C461.703 419.418 462.977 421.112 465.203 421.112ZM473.853 415.12V413.944H472.999C472.005 413.944 471.445 414.364 471.123 415.302V413.944H469.765V421H471.123V417.808C471.123 416.268 471.543 415.12 472.831 415.12H473.853ZM479.714 418.704C479.518 419.502 478.846 419.95 477.81 419.95C476.578 419.95 475.71 419.04 475.598 417.71H480.988C481.002 417.584 481.016 417.36 481.016 417.178C481.016 415.386 479.854 413.832 477.67 413.832C475.5 413.832 474.268 415.456 474.268 417.43C474.268 419.39 475.626 421.112 477.81 421.112C479.546 421.112 480.82 420.16 481.072 418.704H479.714ZM477.67 414.924C478.832 414.924 479.56 415.638 479.644 416.716H475.64C475.85 415.54 476.564 414.924 477.67 414.924ZM487.438 418.704C487.242 419.502 486.57 419.95 485.534 419.95C484.302 419.95 483.434 419.04 483.322 417.71H488.712C488.726 417.584 488.74 417.36 488.74 417.178C488.74 415.386 487.578 413.832 485.394 413.832C483.224 413.832 481.992 415.456 481.992 417.43C481.992 419.39 483.35 421.112 485.534 421.112C487.27 421.112 488.544 420.16 488.796 418.704H487.438ZM485.394 414.924C486.556 414.924 487.284 415.638 487.368 416.716H483.364C483.574 415.54 484.288 414.924 485.394 414.924ZM490.123 421H491.481V417.178C491.481 415.946 492.265 415.05 493.371 415.05C494.365 415.05 495.023 415.806 495.023 416.926V421H496.381V416.66C496.381 414.98 495.345 413.832 493.749 413.832C492.699 413.832 491.859 414.308 491.481 415.19V413.944H490.123V421Z" fill="#8E8E93"/>
<rect x="417" y="281" width="118" height="248" rx="14" stroke="#48484A" stroke-width="2"/>
<g clip-path="url(#clip0_1794_4167)">
<path d="M505.994 313.842H516.559C518.051 313.818 519.233 313.123 519.794 312.039C520.443 310.826 520.209 309.311 519.344 308.263C517.302 305.788 515.266 303.314 513.225 300.84C512.897 300.433 512.95 299.826 513.347 299.49L519.578 294.241L520.367 295.101L514.447 300.315L520.326 307.438C521.491 308.84 521.795 310.831 521.005 312.487C520.28 314.013 518.712 315.073 516.682 315.073L506 315.085C505.661 315.085 505.386 314.808 505.386 314.466V314.455C505.38 314.119 505.655 313.842 505.994 313.842Z" fill="#B89EFF"/>
<path d="M505.859 313.854L516.6 311.857C517.138 311.745 517.542 311.362 517.729 310.843C517.905 310.313 517.805 309.771 517.454 309.341C514.921 306.26 512.4 303.202 509.867 300.109C509.615 299.803 509.527 299.426 509.615 299.025C509.715 298.636 509.954 298.342 510.329 298.177L519.782 294.047L520.122 295.261L511.107 299.214C511.042 299.237 510.996 299.29 510.984 299.355C510.961 299.42 510.984 299.485 511.031 299.544C513.499 302.536 515.945 305.506 518.413 308.504C519.08 309.323 519.303 310.26 518.952 311.279C518.636 312.228 517.899 312.911 516.922 313.1L508.433 314.679L505.859 313.854Z" fill="#A17FFF"/>
<path d="M520.075 295.266L509.334 297.264C508.784 297.376 508.381 297.747 508.205 298.277C508.03 298.807 508.129 299.349 508.48 299.779C511.013 302.861 513.534 305.918 516.068 309.005C516.319 309.323 516.407 309.7 516.319 310.101C516.22 310.49 515.968 310.785 515.605 310.949L506.152 315.079L505.812 313.866L514.827 309.913C514.88 309.889 514.927 309.836 514.95 309.771C514.962 309.706 514.95 309.642 514.909 309.583C509.556 303.096 512.253 306.36 507.527 300.622C506.86 299.803 506.637 298.866 506.988 297.847C507.304 296.898 508.03 296.215 509.018 296.026L519.659 294.029L520.075 295.266Z" fill="#794FEC"/>
<path d="M519.934 295.278H509.369C507.877 295.302 506.702 295.997 506.134 297.069C505.497 298.295 505.731 299.809 506.596 300.857C508.638 303.332 510.674 305.806 512.715 308.281C513.043 308.687 512.99 309.294 512.587 309.63L506.368 314.879L505.578 314.019L511.493 308.805L505.619 301.67C504.455 300.268 504.151 298.277 504.941 296.622C505.66 295.102 507.234 294.041 509.252 294.041L519.934 294.029C520.274 294.029 520.56 294.306 520.56 294.648V294.66C520.56 295.001 520.274 295.278 519.934 295.278Z" fill="#562EC2"/>
<path d="M512.037 310.089L506.363 314.873L505.573 314.007L510.762 309.436L512.037 310.089Z" fill="#562EC2"/>
<path d="M513.845 311.721L506.158 315.079L505.818 313.866L513.178 310.637L513.845 311.721Z" fill="#794FEC"/>
<path d="M505.859 313.854L514.459 312.251L514.786 313.477L508.428 314.673L505.859 313.854Z" fill="#A17FFF"/>
<path d="M505.994 313.842H514.892C514.991 314.237 515.044 314.661 515.044 315.079L505.994 315.091C505.655 315.091 505.38 314.814 505.38 314.473V314.461C505.38 314.119 505.655 313.842 505.994 313.842Z" fill="#B89EFF"/>
</g>
<rect opacity="0.33" x="427" y="1" width="118" height="248" rx="14" fill="#1C1C1E" stroke="#48484A" stroke-width="2"/>
<rect opacity="0.66" x="422" y="11" width="118" height="248" rx="14" fill="#1C1C1E" stroke="#48484A" stroke-width="2"/>
<rect x="417" y="21" width="118" height="248" rx="14" fill="#1C1C1E" stroke="#48484A" stroke-width="2"/>
<path d="M453.478 141H454.934V131.2H453.478V141ZM456.798 141H458.156V137.178C458.156 135.946 458.94 135.05 460.046 135.05C461.04 135.05 461.698 135.806 461.698 136.926V141H463.056V136.66C463.056 134.98 462.02 133.832 460.424 133.832C459.374 133.832 458.534 134.308 458.156 135.19V133.944H456.798V141ZM467.274 141.112C468.87 141.112 469.92 140.286 469.92 138.998C469.92 135.778 465.888 137.57 465.888 135.82C465.888 135.274 466.378 134.91 467.106 134.91C467.708 134.91 468.492 135.232 468.59 136.044H469.864C469.794 134.714 468.702 133.832 467.106 133.832C465.636 133.832 464.6 134.644 464.6 135.862C464.6 138.872 468.604 137.15 468.604 139.026C468.604 139.544 468.086 139.978 467.274 139.978C466.364 139.978 465.776 139.516 465.692 138.704H464.418C464.516 140.188 465.622 141.112 467.274 141.112ZM471.401 143.856H472.759V140.006C473.165 140.678 474.005 141.112 474.943 141.112C477.085 141.112 478.359 139.572 478.359 137.472C478.359 135.372 477.141 133.832 475.013 133.832C474.033 133.832 473.179 134.294 472.759 134.994V133.944H471.401V143.856ZM474.817 139.922C473.501 139.922 472.647 138.942 472.647 137.472C472.647 136.002 473.501 135.022 474.817 135.022C476.119 135.022 476.987 136.002 476.987 137.472C476.987 138.942 476.119 139.922 474.817 139.922ZM484.724 138.704C484.528 139.502 483.856 139.95 482.82 139.95C481.588 139.95 480.72 139.04 480.608 137.71H485.998C486.012 137.584 486.026 137.36 486.026 137.178C486.026 135.386 484.864 133.832 482.68 133.832C480.51 133.832 479.278 135.456 479.278 137.43C479.278 139.39 480.636 141.112 482.82 141.112C484.556 141.112 485.83 140.16 486.082 138.704H484.724ZM482.68 134.924C483.842 134.924 484.57 135.638 484.654 136.716H480.65C480.86 135.54 481.574 134.924 482.68 134.924ZM490.503 141.112C492.295 141.112 493.555 140.104 493.779 138.62H492.435C492.211 139.418 491.497 139.922 490.531 139.922C489.131 139.922 488.417 138.83 488.417 137.472C488.417 136.114 489.117 135.022 490.531 135.022C491.483 135.022 492.295 135.61 492.421 136.408H493.779C493.583 134.812 492.155 133.832 490.503 133.832C488.277 133.832 487.003 135.526 487.003 137.472C487.003 139.418 488.277 141.112 490.503 141.112ZM495.782 131.732V133.944H494.34V135.12H495.782V138.69C495.782 140.132 496.692 141 498.12 141H499.226V139.824H498.232C497.546 139.824 497.14 139.404 497.14 138.648V135.12H499.226V133.944H497.14V131.732H495.782ZM456.117 161.112C457.713 161.112 458.763 160.286 458.763 158.998C458.763 155.778 454.731 157.57 454.731 155.82C454.731 155.274 455.221 154.91 455.949 154.91C456.551 154.91 457.335 155.232 457.433 156.044H458.707C458.637 154.714 457.545 153.832 455.949 153.832C454.479 153.832 453.443 154.644 453.443 155.862C453.443 158.872 457.447 157.15 457.447 159.026C457.447 159.544 456.929 159.978 456.117 159.978C455.207 159.978 454.619 159.516 454.535 158.704H453.261C453.359 160.188 454.465 161.112 456.117 161.112ZM465.174 158.704C464.978 159.502 464.306 159.95 463.27 159.95C462.038 159.95 461.17 159.04 461.058 157.71H466.448C466.462 157.584 466.476 157.36 466.476 157.178C466.476 155.386 465.314 153.832 463.13 153.832C460.96 153.832 459.728 155.456 459.728 157.43C459.728 159.39 461.086 161.112 463.27 161.112C465.006 161.112 466.28 160.16 466.532 158.704H465.174ZM463.13 154.924C464.292 154.924 465.02 155.638 465.104 156.716H461.1C461.31 155.54 462.024 154.924 463.13 154.924ZM470.952 161.112C472.744 161.112 474.004 160.104 474.228 158.62H472.884C472.66 159.418 471.946 159.922 470.98 159.922C469.58 159.922 468.866 158.83 468.866 157.472C468.866 156.114 469.566 155.022 470.98 155.022C471.932 155.022 472.744 155.61 472.87 156.408H474.228C474.032 154.812 472.604 153.832 470.952 153.832C468.726 153.832 467.452 155.526 467.452 157.472C467.452 159.418 468.726 161.112 470.952 161.112ZM476.231 151.732V153.944H474.789V155.12H476.231V158.69C476.231 160.132 477.141 161 478.569 161H479.675V159.824H478.681C477.995 159.824 477.589 159.404 477.589 158.648V155.12H479.675V153.944H477.589V151.732H476.231ZM480.749 150.99V152.698H482.261V150.99H480.749ZM480.833 161H482.191V153.944H480.833V161ZM487.143 161.112C489.257 161.112 490.769 159.586 490.769 157.472C490.769 155.358 489.257 153.832 487.143 153.832C485.029 153.832 483.503 155.358 483.503 157.472C483.503 159.586 485.029 161.112 487.143 161.112ZM487.143 159.922C485.799 159.922 484.889 158.914 484.889 157.472C484.889 156.03 485.799 155.022 487.143 155.022C488.473 155.022 489.383 156.03 489.383 157.472C489.383 158.914 488.473 159.922 487.143 159.922ZM492.098 161H493.456V157.178C493.456 155.946 494.24 155.05 495.346 155.05C496.34 155.05 496.998 155.806 496.998 156.926V161H498.356V156.66C498.356 154.98 497.32 153.832 495.724 153.832C494.674 153.832 493.834 154.308 493.456 155.19V153.944H492.098V161Z" fill="#8E8E93"/>
<g clip-path="url(#clip1_1794_4167)">
<path d="M505.994 53.842H516.559C518.051 53.8184 519.233 53.1232 519.794 52.0392C520.443 50.8256 520.209 49.3115 519.344 48.2628C517.302 45.7884 515.266 43.314 513.225 40.8396C512.897 40.4331 512.95 39.8263 513.347 39.4905L519.578 34.2412L520.367 35.1014L514.447 40.3153L520.326 47.438C521.491 48.8402 521.795 50.8315 521.005 52.487C520.28 54.0128 518.712 55.0733 516.682 55.0733L506 55.0851C505.661 55.0851 505.386 54.8082 505.386 54.4665V54.4547C505.38 54.1189 505.655 53.842 505.994 53.842Z" fill="#B89EFF"/>
<path d="M505.859 53.8539L516.6 51.8567C517.138 51.7447 517.542 51.3618 517.729 50.8433C517.905 50.3131 517.805 49.7711 517.454 49.341C514.921 46.2598 512.4 43.2022 509.867 40.1092C509.615 39.8028 509.527 39.4257 509.615 39.0251C509.715 38.6363 509.954 38.3417 510.329 38.1768L519.782 34.0469L520.122 35.2605L511.107 39.2137C511.042 39.2372 510.996 39.2902 510.984 39.3551C510.961 39.4199 510.984 39.4847 511.031 39.5436C513.499 42.5364 515.945 45.5057 518.413 48.5044C519.08 49.3233 519.303 50.2601 518.952 51.2793C518.636 52.2278 517.899 52.9112 516.922 53.0998L508.433 54.6787L505.859 53.8539Z" fill="#A17FFF"/>
<path d="M520.075 35.2665L509.334 37.2637C508.784 37.3756 508.381 37.7468 508.205 38.277C508.03 38.8072 508.129 39.3493 508.48 39.7793C511.013 42.8605 513.534 45.9182 516.068 49.0053C516.319 49.3234 516.407 49.7005 516.319 50.1011C516.22 50.4899 515.968 50.7845 515.605 50.9495L506.152 55.0794L505.812 53.8657L514.827 49.9126C514.88 49.889 514.927 49.836 514.95 49.7712C514.962 49.7064 514.95 49.6416 514.909 49.5827C509.556 43.0962 512.253 46.3601 507.527 40.6218C506.86 39.8029 506.637 38.8662 506.988 37.8469C507.304 36.8984 508.03 36.215 509.018 36.0265L519.659 34.0293L520.075 35.2665Z" fill="#794FEC"/>
<path d="M519.934 35.2783H509.369C507.877 35.3018 506.702 35.997 506.134 37.0693C505.497 38.2947 505.731 39.8088 506.596 40.8575C508.638 43.3319 510.674 45.8063 512.715 48.2807C513.043 48.6872 512.99 49.294 512.587 49.6298L506.368 54.8791L505.578 54.0189L511.493 48.805L505.619 41.6705C504.455 40.2683 504.151 38.277 504.941 36.6215C505.66 35.1015 507.234 34.0411 509.252 34.0411L519.934 34.0293C520.274 34.0293 520.56 34.3062 520.56 34.6479V34.6597C520.56 35.0014 520.274 35.2783 519.934 35.2783Z" fill="#562EC2"/>
<path d="M512.037 50.0895L506.363 54.8733L505.573 54.0073L510.762 49.4355L512.037 50.0895Z" fill="#562EC2"/>
<path d="M513.845 51.7212L506.158 55.0793L505.818 53.8657L513.178 50.6372L513.845 51.7212Z" fill="#794FEC"/>
<path d="M505.859 53.8539L514.459 52.2515L514.786 53.4769L508.428 54.6728L505.859 53.8539Z" fill="#A17FFF"/>
<path d="M505.994 53.8423H514.892C514.991 54.237 515.044 54.6612 515.044 55.0795L505.994 55.0913C505.655 55.0913 505.38 54.8144 505.38 54.4727V54.4609C505.38 54.1192 505.655 53.8423 505.994 53.8423Z" fill="#B89EFF"/>
</g>
<path d="M265.98 571.112C268.248 571.112 269.998 569.768 270.208 567.85H268.738C268.584 568.998 267.422 569.824 265.966 569.824C264.062 569.824 262.69 568.522 262.69 566.1C262.69 563.678 264.062 562.376 265.966 562.376C267.394 562.376 268.542 563.202 268.71 564.35H270.236C269.97 562.432 268.206 561.088 265.98 561.088C263.488 561.088 261.192 562.74 261.192 566.1C261.192 569.46 263.46 571.112 265.98 571.112ZM271.606 571H272.964V567.178C272.964 565.946 273.748 565.05 274.854 565.05C275.848 565.05 276.506 565.806 276.506 566.926V571H277.864V566.66C277.864 564.98 276.828 563.832 275.232 563.832C274.182 563.832 273.342 564.308 272.964 565.19V560.99H271.606V571ZM282.279 563.832C280.613 563.832 279.353 564.868 279.241 566.254H280.501C280.543 565.54 281.257 564.924 282.237 564.924C283.329 564.924 283.945 565.512 283.945 566.366C283.945 566.618 283.791 566.786 283.469 566.786H281.999C280.333 566.786 279.255 567.626 279.255 568.984C279.255 570.244 280.207 571.112 281.649 571.112C282.713 571.112 283.609 570.608 283.945 569.852V571H285.303V566.45C285.303 564.882 284.099 563.832 282.279 563.832ZM281.915 570.034C281.131 570.034 280.599 569.6 280.599 568.956C280.599 568.214 281.201 567.738 282.125 567.738H283.945V567.906C283.945 569.208 283.203 570.034 281.915 570.034ZM287.619 561.732V563.944H286.177V565.12H287.619V568.69C287.619 570.132 288.529 571 289.957 571H291.063V569.824H290.069C289.383 569.824 288.977 569.404 288.977 568.648V565.12H291.063V563.944H288.977V561.732H287.619ZM258.093 591.112C259.689 591.112 260.739 590.286 260.739 588.998C260.739 585.778 256.707 587.57 256.707 585.82C256.707 585.274 257.197 584.91 257.925 584.91C258.527 584.91 259.311 585.232 259.409 586.044H260.683C260.613 584.714 259.521 583.832 257.925 583.832C256.455 583.832 255.419 584.644 255.419 585.862C255.419 588.872 259.423 587.15 259.423 589.026C259.423 589.544 258.905 589.978 258.093 589.978C257.183 589.978 256.595 589.516 256.511 588.704H255.237C255.335 590.188 256.441 591.112 258.093 591.112ZM265.203 591.112C266.995 591.112 268.255 590.104 268.479 588.62H267.135C266.911 589.418 266.197 589.922 265.231 589.922C263.831 589.922 263.117 588.83 263.117 587.472C263.117 586.114 263.817 585.022 265.231 585.022C266.183 585.022 266.995 585.61 267.121 586.408H268.479C268.283 584.812 266.855 583.832 265.203 583.832C262.977 583.832 261.703 585.526 261.703 587.472C261.703 589.418 262.977 591.112 265.203 591.112ZM273.853 585.12V583.944H272.999C272.005 583.944 271.445 584.364 271.123 585.302V583.944H269.765V591H271.123V587.808C271.123 586.268 271.543 585.12 272.831 585.12H273.853ZM279.714 588.704C279.518 589.502 278.846 589.95 277.81 589.95C276.578 589.95 275.71 589.04 275.598 587.71H280.988C281.002 587.584 281.016 587.36 281.016 587.178C281.016 585.386 279.854 583.832 277.67 583.832C275.5 583.832 274.268 585.456 274.268 587.43C274.268 589.39 275.626 591.112 277.81 591.112C279.546 591.112 280.82 590.16 281.072 588.704H279.714ZM277.67 584.924C278.832 584.924 279.56 585.638 279.644 586.716H275.64C275.85 585.54 276.564 584.924 277.67 584.924ZM287.438 588.704C287.242 589.502 286.57 589.95 285.534 589.95C284.302 589.95 283.434 589.04 283.322 587.71H288.712C288.726 587.584 288.74 587.36 288.74 587.178C288.74 585.386 287.578 583.832 285.394 583.832C283.224 583.832 281.992 585.456 281.992 587.43C281.992 589.39 283.35 591.112 285.534 591.112C287.27 591.112 288.544 590.16 288.796 588.704H287.438ZM285.394 584.924C286.556 584.924 287.284 585.638 287.368 586.716H283.364C283.574 585.54 284.288 584.924 285.394 584.924ZM290.123 591H291.481V587.178C291.481 585.946 292.265 585.05 293.371 585.05C294.365 585.05 295.023 585.806 295.023 586.926V591H296.381V586.66C296.381 584.98 295.345 583.832 293.749 583.832C292.699 583.832 291.859 584.308 291.481 585.19V583.944H290.123V591Z" fill="#8E8E93"/>
<rect x="217" y="451" width="118" height="248" rx="14" stroke="#48484A" stroke-width="2"/>
<g clip-path="url(#clip2_1794_4167)">
<path d="M305.994 483.842H316.559C318.051 483.818 319.232 483.123 319.794 482.039C320.443 480.826 320.209 479.311 319.344 478.263C317.302 475.788 315.266 473.314 313.224 470.84C312.897 470.433 312.95 469.826 313.347 469.49L319.578 464.241L320.367 465.101L314.447 470.315L320.326 477.438C321.491 478.84 321.795 480.831 321.005 482.487C320.28 484.013 318.712 485.073 316.682 485.073L306 485.085C305.66 485.085 305.385 484.808 305.385 484.466V484.455C305.38 484.119 305.655 483.842 305.994 483.842Z" fill="#B89EFF"/>
<path d="M305.859 483.854L316.6 481.857C317.138 481.745 317.542 481.362 317.729 480.843C317.905 480.313 317.805 479.771 317.454 479.341C314.921 476.26 312.4 473.202 309.867 470.109C309.615 469.803 309.527 469.426 309.615 469.025C309.715 468.636 309.954 468.342 310.329 468.177L319.782 464.047L320.122 465.261L311.107 469.214C311.042 469.237 310.996 469.29 310.984 469.355C310.961 469.42 310.984 469.485 311.031 469.544C313.499 472.536 315.945 475.506 318.413 478.504C319.08 479.323 319.303 480.26 318.952 481.279C318.636 482.228 317.899 482.911 316.922 483.1L308.433 484.679L305.859 483.854Z" fill="#A17FFF"/>
<path d="M320.075 465.266L309.334 467.264C308.784 467.376 308.381 467.747 308.205 468.277C308.03 468.807 308.129 469.349 308.48 469.779C311.013 472.861 313.534 475.918 316.068 479.005C316.319 479.323 316.407 479.7 316.319 480.101C316.22 480.49 315.968 480.785 315.605 480.949L306.152 485.079L305.812 483.866L314.827 479.913C314.88 479.889 314.927 479.836 314.95 479.771C314.962 479.706 314.95 479.642 314.909 479.583C309.556 473.096 312.253 476.36 307.527 470.622C306.86 469.803 306.637 468.866 306.988 467.847C307.304 466.898 308.03 466.215 309.018 466.026L319.659 464.029L320.075 465.266Z" fill="#794FEC"/>
<path d="M319.934 465.278H309.369C307.877 465.302 306.702 465.997 306.134 467.069C305.497 468.295 305.731 469.809 306.596 470.857C308.638 473.332 310.674 475.806 312.715 478.281C313.043 478.687 312.99 479.294 312.587 479.63L306.368 484.879L305.578 484.019L311.493 478.805L305.619 471.67C304.455 470.268 304.151 468.277 304.941 466.622C305.66 465.102 307.234 464.041 309.252 464.041L319.934 464.029C320.274 464.029 320.56 464.306 320.56 464.648V464.66C320.56 465.001 320.274 465.278 319.934 465.278Z" fill="#562EC2"/>
<path d="M312.037 480.089L306.362 484.873L305.573 484.007L310.762 479.436L312.037 480.089Z" fill="#562EC2"/>
<path d="M313.845 481.721L306.158 485.079L305.818 483.866L313.178 480.637L313.845 481.721Z" fill="#794FEC"/>
<path d="M305.859 483.854L314.459 482.251L314.786 483.477L308.428 484.673L305.859 483.854Z" fill="#A17FFF"/>
<path d="M305.994 483.842H314.892C314.991 484.237 315.044 484.661 315.044 485.079L305.994 485.091C305.655 485.091 305.38 484.814 305.38 484.473V484.461C305.38 484.119 305.655 483.842 305.994 483.842Z" fill="#B89EFF"/>
</g>
<path d="M243.272 271H244.728V263.468L249.46 271H251.07V261.2H249.614V268.746L244.896 261.2H243.272V271ZM257.975 268.704C257.779 269.502 257.107 269.95 256.071 269.95C254.839 269.95 253.971 269.04 253.859 267.71H259.249C259.263 267.584 259.277 267.36 259.277 267.178C259.277 265.386 258.115 263.832 255.931 263.832C253.761 263.832 252.529 265.456 252.529 267.43C252.529 269.39 253.887 271.112 256.071 271.112C257.807 271.112 259.081 270.16 259.333 268.704H257.975ZM255.931 264.924C257.093 264.924 257.821 265.638 257.905 266.716H253.901C254.111 265.54 254.825 264.924 255.931 264.924ZM261.995 271H263.255L264.851 265.736L266.461 271H267.721L269.905 263.944H268.533L267.091 269.194L265.509 263.944H264.221L262.625 269.194L261.169 263.944H259.811L261.995 271ZM275.034 261.732V263.944H273.592V265.12H275.034V268.69C275.034 270.132 275.944 271 277.372 271H278.478V269.824H277.484C276.798 269.824 276.392 269.404 276.392 268.648V265.12H278.478V263.944H276.392V261.732H275.034ZM279.552 260.99V262.698H281.064V260.99H279.552ZM279.636 271H280.994V263.944H279.636V271ZM285.807 271.112C287.599 271.112 288.859 270.104 289.083 268.62H287.739C287.515 269.418 286.801 269.922 285.835 269.922C284.435 269.922 283.721 268.83 283.721 267.472C283.721 266.114 284.421 265.022 285.835 265.022C286.787 265.022 287.599 265.61 287.725 266.408H289.083C288.887 264.812 287.459 263.832 285.807 263.832C283.581 263.832 282.307 265.526 282.307 267.472C282.307 269.418 283.581 271.112 285.807 271.112ZM295.227 271H296.907L293.673 266.702L296.641 263.944H294.877L291.811 266.758V260.99H290.439V271H291.811V268.438L292.693 267.626L295.227 271ZM302.587 268.704C302.391 269.502 301.719 269.95 300.683 269.95C299.451 269.95 298.583 269.04 298.471 267.71H303.861C303.875 267.584 303.889 267.36 303.889 267.178C303.889 265.386 302.727 263.832 300.543 263.832C298.373 263.832 297.141 265.456 297.141 267.43C297.141 269.39 298.499 271.112 300.683 271.112C302.419 271.112 303.693 270.16 303.945 268.704H302.587ZM300.543 264.924C301.705 264.924 302.433 265.638 302.517 266.716H298.513C298.723 265.54 299.437 264.924 300.543 264.924ZM305.987 261.732V263.944H304.545V265.12H305.987V268.69C305.987 270.132 306.897 271 308.325 271H309.431V269.824H308.437C307.751 269.824 307.345 269.404 307.345 268.648V265.12H309.431V263.944H307.345V261.732H305.987ZM258.093 291.112C259.689 291.112 260.739 290.286 260.739 288.998C260.739 285.778 256.707 287.57 256.707 285.82C256.707 285.274 257.197 284.91 257.925 284.91C258.527 284.91 259.311 285.232 259.409 286.044H260.683C260.613 284.714 259.521 283.832 257.925 283.832C256.455 283.832 255.419 284.644 255.419 285.862C255.419 288.872 259.423 287.15 259.423 289.026C259.423 289.544 258.905 289.978 258.093 289.978C257.183 289.978 256.595 289.516 256.511 288.704H255.237C255.335 290.188 256.441 291.112 258.093 291.112ZM265.203 291.112C266.995 291.112 268.255 290.104 268.479 288.62H267.135C266.911 289.418 266.197 289.922 265.231 289.922C263.831 289.922 263.117 288.83 263.117 287.472C263.117 286.114 263.817 285.022 265.231 285.022C266.183 285.022 266.995 285.61 267.121 286.408H268.479C268.283 284.812 266.855 283.832 265.203 283.832C262.977 283.832 261.703 285.526 261.703 287.472C261.703 289.418 262.977 291.112 265.203 291.112ZM273.853 285.12V283.944H272.999C272.005 283.944 271.445 284.364 271.123 285.302V283.944H269.765V291H271.123V287.808C271.123 286.268 271.543 285.12 272.831 285.12H273.853ZM279.714 288.704C279.518 289.502 278.846 289.95 277.81 289.95C276.578 289.95 275.71 289.04 275.598 287.71H280.988C281.002 287.584 281.016 287.36 281.016 287.178C281.016 285.386 279.854 283.832 277.67 283.832C275.5 283.832 274.268 285.456 274.268 287.43C274.268 289.39 275.626 291.112 277.81 291.112C279.546 291.112 280.82 290.16 281.072 288.704H279.714ZM277.67 284.924C278.832 284.924 279.56 285.638 279.644 286.716H275.64C275.85 285.54 276.564 284.924 277.67 284.924ZM287.438 288.704C287.242 289.502 286.57 289.95 285.534 289.95C284.302 289.95 283.434 289.04 283.322 287.71H288.712C288.726 287.584 288.74 287.36 288.74 287.178C288.74 285.386 287.578 283.832 285.394 283.832C283.224 283.832 281.992 285.456 281.992 287.43C281.992 289.39 283.35 291.112 285.534 291.112C287.27 291.112 288.544 290.16 288.796 288.704H287.438ZM285.394 284.924C286.556 284.924 287.284 285.638 287.368 286.716H283.364C283.574 285.54 284.288 284.924 285.394 284.924ZM290.123 291H291.481V287.178C291.481 285.946 292.265 285.05 293.371 285.05C294.365 285.05 295.023 285.806 295.023 286.926V291H296.381V286.66C296.381 284.98 295.345 283.832 293.749 283.832C292.699 283.832 291.859 284.308 291.481 285.19V283.944H290.123V291Z" fill="#8E8E93"/>
<rect x="217" y="151" width="118" height="248" rx="14" stroke="#48484A" stroke-width="2"/>
<g clip-path="url(#clip3_1794_4167)">
<path d="M305.994 183.842H316.559C318.051 183.818 319.232 183.123 319.794 182.039C320.443 180.826 320.209 179.311 319.344 178.263C317.302 175.788 315.266 173.314 313.224 170.84C312.897 170.433 312.95 169.826 313.347 169.49L319.578 164.241L320.367 165.101L314.447 170.315L320.326 177.438C321.491 178.84 321.795 180.831 321.005 182.487C320.28 184.013 318.712 185.073 316.682 185.073L306 185.085C305.66 185.085 305.385 184.808 305.385 184.466V184.455C305.38 184.119 305.655 183.842 305.994 183.842Z" fill="#B89EFF"/>
<path d="M305.859 183.854L316.6 181.857C317.138 181.745 317.542 181.362 317.729 180.843C317.905 180.313 317.805 179.771 317.454 179.341C314.921 176.26 312.4 173.202 309.867 170.109C309.615 169.803 309.527 169.426 309.615 169.025C309.715 168.636 309.954 168.342 310.329 168.177L319.782 164.047L320.122 165.261L311.107 169.214C311.042 169.237 310.996 169.29 310.984 169.355C310.961 169.42 310.984 169.485 311.031 169.544C313.499 172.536 315.945 175.506 318.413 178.504C319.08 179.323 319.303 180.26 318.952 181.279C318.636 182.228 317.899 182.911 316.922 183.1L308.433 184.679L305.859 183.854Z" fill="#A17FFF"/>
<path d="M320.075 165.266L309.334 167.264C308.784 167.376 308.381 167.747 308.205 168.277C308.03 168.807 308.129 169.349 308.48 169.779C311.013 172.861 313.534 175.918 316.068 179.005C316.319 179.323 316.407 179.7 316.319 180.101C316.22 180.49 315.968 180.785 315.605 180.949L306.152 185.079L305.812 183.866L314.827 179.913C314.88 179.889 314.927 179.836 314.95 179.771C314.962 179.706 314.95 179.642 314.909 179.583C309.556 173.096 312.253 176.36 307.527 170.622C306.86 169.803 306.637 168.866 306.988 167.847C307.304 166.898 308.03 166.215 309.018 166.026L319.659 164.029L320.075 165.266Z" fill="#794FEC"/>
<path d="M319.934 165.278H309.369C307.877 165.302 306.702 165.997 306.134 167.069C305.497 168.295 305.731 169.809 306.596 170.857C308.638 173.332 310.674 175.806 312.715 178.281C313.043 178.687 312.99 179.294 312.587 179.63L306.368 184.879L305.578 184.019L311.493 178.805L305.619 171.67C304.455 170.268 304.151 168.277 304.941 166.622C305.66 165.102 307.234 164.041 309.252 164.041L319.934 164.029C320.274 164.029 320.56 164.306 320.56 164.648V164.66C320.56 165.001 320.274 165.278 319.934 165.278Z" fill="#562EC2"/>
<path d="M312.037 180.089L306.362 184.873L305.573 184.007L310.762 179.436L312.037 180.089Z" fill="#562EC2"/>
<path d="M313.845 181.721L306.158 185.079L305.818 183.866L313.178 180.637L313.845 181.721Z" fill="#794FEC"/>
<path d="M305.859 183.854L314.459 182.251L314.786 183.477L308.428 184.673L305.859 183.854Z" fill="#A17FFF"/>
<path d="M305.994 183.842H314.892C314.991 184.237 315.044 184.661 315.044 185.079L305.994 185.091C305.655 185.091 305.38 184.814 305.38 184.473V184.461C305.38 184.119 305.655 183.842 305.994 183.842Z" fill="#B89EFF"/>
</g>
<path d="M64.3518 411.2V415.316H59.4938V411.2H58.0378V421H59.4938V416.604H64.3518V421H65.8078V411.2H64.3518ZM70.9075 421.112C73.0215 421.112 74.5335 419.586 74.5335 417.472C74.5335 415.358 73.0215 413.832 70.9075 413.832C68.7935 413.832 67.2675 415.358 67.2675 417.472C67.2675 419.586 68.7935 421.112 70.9075 421.112ZM70.9075 419.922C69.5635 419.922 68.6535 418.914 68.6535 417.472C68.6535 416.03 69.5635 415.022 70.9075 415.022C72.2375 415.022 73.1475 416.03 73.1475 417.472C73.1475 418.914 72.2375 419.922 70.9075 419.922ZM75.863 421H77.221V416.898C77.221 415.778 77.865 415.022 78.943 415.022C79.867 415.022 80.427 415.778 80.427 416.898V421H81.785V416.898C81.785 415.778 82.429 415.022 83.507 415.022C84.445 415.022 85.005 415.778 85.005 416.898V421H86.363V416.52C86.363 414.882 85.411 413.832 83.885 413.832C82.793 413.832 81.869 414.476 81.589 415.274C81.309 414.35 80.455 413.832 79.307 413.832C78.271 413.832 77.515 414.406 77.221 415.204V413.944H75.863V421ZM93.1393 418.704C92.9433 419.502 92.2713 419.95 91.2353 419.95C90.0033 419.95 89.1353 419.04 89.0233 417.71H94.4133C94.4273 417.584 94.4413 417.36 94.4413 417.178C94.4413 415.386 93.2793 413.832 91.0953 413.832C88.9253 413.832 87.6933 415.456 87.6933 417.43C87.6933 419.39 89.0513 421.112 91.2353 421.112C92.9713 421.112 94.2453 420.16 94.4973 418.704H93.1393ZM91.0953 414.924C92.2573 414.924 92.9853 415.638 93.0693 416.716H89.0653C89.2753 415.54 89.9893 414.924 91.0953 414.924ZM58.0929 441.112C59.6889 441.112 60.7389 440.286 60.7389 438.998C60.7389 435.778 56.7069 437.57 56.7069 435.82C56.7069 435.274 57.1969 434.91 57.9249 434.91C58.5269 434.91 59.3109 435.232 59.4089 436.044H60.6829C60.6129 434.714 59.5209 433.832 57.9249 433.832C56.4549 433.832 55.4189 434.644 55.4189 435.862C55.4189 438.872 59.4229 437.15 59.4229 439.026C59.4229 439.544 58.9049 439.978 58.0929 439.978C57.1829 439.978 56.5949 439.516 56.5109 438.704H55.2369C55.3349 440.188 56.4409 441.112 58.0929 441.112ZM65.2031 441.112C66.9951 441.112 68.2551 440.104 68.4791 438.62H67.1351C66.9111 439.418 66.1971 439.922 65.2311 439.922C63.8311 439.922 63.1171 438.83 63.1171 437.472C63.1171 436.114 63.8171 435.022 65.2311 435.022C66.1831 435.022 66.9951 435.61 67.1211 436.408H68.4791C68.2831 434.812 66.8551 433.832 65.2031 433.832C62.9771 433.832 61.7031 435.526 61.7031 437.472C61.7031 439.418 62.9771 441.112 65.2031 441.112ZM73.8533 435.12V433.944H72.9993C72.0053 433.944 71.4453 434.364 71.1233 435.302V433.944H69.7653V441H71.1233V437.808C71.1233 436.268 71.5433 435.12 72.8313 435.12H73.8533ZM79.7135 438.704C79.5175 439.502 78.8455 439.95 77.8095 439.95C76.5775 439.95 75.7095 439.04 75.5975 437.71H80.9875C81.0015 437.584 81.0155 437.36 81.0155 437.178C81.0155 435.386 79.8535 433.832 77.6695 433.832C75.4995 433.832 74.2675 435.456 74.2675 437.43C74.2675 439.39 75.6255 441.112 77.8095 441.112C79.5455 441.112 80.8195 440.16 81.0715 438.704H79.7135ZM77.6695 434.924C78.8315 434.924 79.5595 435.638 79.6435 436.716H75.6395C75.8495 435.54 76.5635 434.924 77.6695 434.924ZM87.4382 438.704C87.2422 439.502 86.5702 439.95 85.5342 439.95C84.3022 439.95 83.4342 439.04 83.3222 437.71H88.7122C88.7262 437.584 88.7402 437.36 88.7402 437.178C88.7402 435.386 87.5782 433.832 85.3942 433.832C83.2242 433.832 81.9922 435.456 81.9922 437.43C81.9922 439.39 83.3502 441.112 85.5342 441.112C87.2702 441.112 88.5442 440.16 88.7962 438.704H87.4382ZM85.3942 434.924C86.5562 434.924 87.2842 435.638 87.3682 436.716H83.3642C83.5742 435.54 84.2882 434.924 85.3942 434.924ZM90.1228 441H91.4808V437.178C91.4808 435.946 92.2648 435.05 93.3708 435.05C94.3648 435.05 95.0228 435.806 95.0228 436.926V441H96.3808V436.66C96.3808 434.98 95.3448 433.832 93.7488 433.832C92.6988 433.832 91.8588 434.308 91.4808 435.19V433.944H90.1228V441Z" fill="#8E8E93"/>
<rect x="16.9999" y="301" width="118" height="248" rx="14" stroke="#48484A" stroke-width="2"/>
<g clip-path="url(#clip4_1794_4167)">
<path d="M105.994 333.842H116.559C118.051 333.818 119.232 333.123 119.794 332.039C120.443 330.826 120.209 329.311 119.344 328.263C117.302 325.788 115.266 323.314 113.224 320.84C112.897 320.433 112.95 319.826 113.347 319.49L119.578 314.241L120.367 315.101L114.447 320.315L120.326 327.438C121.491 328.84 121.795 330.831 121.005 332.487C120.28 334.013 118.712 335.073 116.682 335.073L106 335.085C105.66 335.085 105.385 334.808 105.385 334.466V334.455C105.38 334.119 105.655 333.842 105.994 333.842Z" fill="#B89EFF"/>
<path d="M105.859 333.854L116.6 331.857C117.138 331.745 117.542 331.362 117.729 330.843C117.905 330.313 117.805 329.771 117.454 329.341C114.921 326.26 112.4 323.202 109.867 320.109C109.615 319.803 109.527 319.426 109.615 319.025C109.715 318.636 109.954 318.342 110.329 318.177L119.782 314.047L120.122 315.261L111.107 319.214C111.042 319.237 110.996 319.29 110.984 319.355C110.961 319.42 110.984 319.485 111.031 319.544C113.499 322.536 115.945 325.506 118.413 328.504C119.08 329.323 119.303 330.26 118.952 331.279C118.636 332.228 117.899 332.911 116.922 333.1L108.433 334.679L105.859 333.854Z" fill="#A17FFF"/>
<path d="M120.075 315.266L109.334 317.264C108.784 317.376 108.381 317.747 108.205 318.277C108.03 318.807 108.129 319.349 108.48 319.779C111.013 322.861 113.534 325.918 116.068 329.005C116.319 329.323 116.407 329.7 116.319 330.101C116.22 330.49 115.968 330.785 115.605 330.949L106.152 335.079L105.812 333.866L114.827 329.913C114.88 329.889 114.927 329.836 114.95 329.771C114.962 329.706 114.95 329.642 114.909 329.583C109.556 323.096 112.253 326.36 107.527 320.622C106.86 319.803 106.637 318.866 106.988 317.847C107.304 316.898 108.03 316.215 109.018 316.026L119.659 314.029L120.075 315.266Z" fill="#794FEC"/>
<path d="M119.934 315.278H109.369C107.877 315.302 106.702 315.997 106.134 317.069C105.497 318.295 105.731 319.809 106.596 320.857C108.638 323.332 110.674 325.806 112.715 328.281C113.043 328.687 112.99 329.294 112.587 329.63L106.368 334.879L105.578 334.019L111.493 328.805L105.619 321.67C104.455 320.268 104.151 318.277 104.941 316.622C105.66 315.102 107.234 314.041 109.252 314.041L119.934 314.029C120.274 314.029 120.56 314.306 120.56 314.648V314.66C120.56 315.001 120.274 315.278 119.934 315.278Z" fill="#562EC2"/>
<path d="M112.037 330.089L106.362 334.873L105.573 334.007L110.762 329.436L112.037 330.089Z" fill="#562EC2"/>
<path d="M113.845 331.721L106.158 335.079L105.818 333.866L113.178 330.637L113.845 331.721Z" fill="#794FEC"/>
<path d="M105.859 333.854L114.459 332.251L114.786 333.477L108.428 334.673L105.859 333.854Z" fill="#A17FFF"/>
<path d="M105.994 333.842H114.892C114.991 334.237 115.044 334.661 115.044 335.079L105.994 335.091C105.655 335.091 105.38 334.814 105.38 334.473V334.461C105.38 334.119 105.655 333.842 105.994 333.842Z" fill="#B89EFF"/>
</g>
<path d="M135.453 512.09C134.934 511.901 134.36 512.168 134.171 512.687C133.982 513.206 134.25 513.78 134.769 513.969L135.453 512.09ZM201.312 537.877C201.812 537.644 202.029 537.049 201.796 536.548L197.992 528.391C197.759 527.891 197.164 527.674 196.663 527.908C196.162 528.141 195.946 528.736 196.179 529.237L199.56 536.487L192.31 539.868C191.809 540.101 191.593 540.696 191.826 541.197C192.06 541.697 192.655 541.914 193.155 541.681L201.312 537.877ZM134.769 513.969L200.547 537.91L201.231 536.031L135.453 512.09L134.769 513.969Z" fill="#48484A"/>
<path d="M134.769 336.031C134.25 336.22 133.982 336.794 134.171 337.313C134.36 337.832 134.934 338.099 135.453 337.91L134.769 336.031ZM201.796 313.452C202.029 312.951 201.812 312.356 201.312 312.123L193.155 308.319C192.655 308.086 192.06 308.303 191.826 308.803C191.593 309.304 191.809 309.899 192.31 310.132L199.56 313.513L196.179 320.763C195.946 321.264 196.162 321.859 196.663 322.092C197.164 322.326 197.759 322.109 197.992 321.609L201.796 313.452ZM135.453 337.91L201.231 313.969L200.547 312.09L134.769 336.031L135.453 337.91Z" fill="#48484A"/>
<path d="M335.453 342.09C334.934 341.901 334.36 342.168 334.171 342.687C333.982 343.206 334.25 343.78 334.769 343.969L335.453 342.09ZM401.312 367.877C401.812 367.644 402.029 367.049 401.796 366.548L397.992 358.391C397.759 357.891 397.164 357.674 396.663 357.908C396.162 358.141 395.946 358.736 396.179 359.237L399.56 366.487L392.31 369.868C391.809 370.101 391.593 370.696 391.826 371.197C392.06 371.697 392.655 371.914 393.155 371.681L401.312 367.877ZM334.769 343.969L400.547 367.91L401.231 366.031L335.453 342.09L334.769 343.969Z" fill="#48484A"/>
<path d="M334.769 206.031C334.25 206.22 333.982 206.794 334.171 207.313C334.36 207.832 334.934 208.099 335.453 207.91L334.769 206.031ZM401.796 183.452C402.029 182.951 401.812 182.356 401.312 182.123L393.155 178.319C392.655 178.086 392.06 178.303 391.826 178.803C391.593 179.304 391.809 179.899 392.31 180.132L399.56 183.513L396.179 190.763C395.946 191.264 396.162 191.859 396.663 192.092C397.164 192.326 397.759 192.109 397.992 191.609L401.796 183.452ZM335.453 207.91L401.231 183.969L400.547 182.09L334.769 206.031L335.453 207.91Z" fill="#48484A"/>
<path fill-rule="evenodd" clip-rule="evenodd" d="M26 352L2 364L6.14401 352L2 340L26 352Z" fill="#6552FF" stroke="white" stroke-width="2"/>
<path fill-rule="evenodd" clip-rule="evenodd" d="M226 202L202 214L206.144 202L202 190L226 202Z" fill="#46D39A" stroke="white" stroke-width="2"/>
<defs>
<clipPath id="clip0_1794_4167">
<rect width="18" height="21.2727" fill="white" transform="translate(504 294)"/>
</clipPath>
<clipPath id="clip1_1794_4167">
<rect width="18" height="21.2727" fill="white" transform="translate(504 34)"/>
</clipPath>
<clipPath id="clip2_1794_4167">
<rect width="18" height="21.2727" fill="white" transform="translate(304 464)"/>
</clipPath>
<clipPath id="clip3_1794_4167">
<rect width="18" height="21.2727" fill="white" transform="translate(304 164)"/>
</clipPath>
<clipPath id="clip4_1794_4167">
<rect width="18" height="21.2727" fill="white" transform="translate(104 314)"/>
</clipPath>
</defs>
</svg>
